<svg xmlns="http://www.w3.org/2000/svg" xmlns:xlink="http://www.w3.org/1999/xlink" width="500" zoomAndPan="magnify" viewBox="0 0 375 374.999991" height="500" preserveAspectRatio="xMidYMid meet" version="1.0"><defs><clipPath id="df0e9f6d3a"><path d="M 99.800781 90.058594 L 275.300781 90.058594 L 275.300781 285.058594 L 99.800781 285.058594 Z M 99.800781 90.058594 " clip-rule="nonzero"/></clipPath></defs><g clip-path="url(#df0e9f6d3a)"><path fill="#00bf63" d="M 156.835938 90.058594 C 159.628906 90.058594 162.097656 91.84375 163.007812 94.476562 L 164.371094 98.566406 C 164.632812 99.835938 165.25 100.972656 166.160156 101.878906 L 168.660156 104.382812 C 170.285156 106.003906 172.621094 106.65625 174.832031 106.101562 L 183.472656 103.925781 C 183.992188 103.796875 184.511719 103.730469 185.0625 103.730469 L 187.5 103.730469 C 191.070312 103.730469 193.996094 100.808594 193.996094 97.234375 L 193.996094 93.304688 L 204.421875 93.304688 C 207.734375 93.304688 210.527344 95.804688 210.886719 99.085938 L 212.832031 116.757812 C 213.191406 120.035156 215.984375 122.539062 219.296875 122.539062 L 223.226562 122.539062 C 225.273438 122.539062 227.191406 123.511719 228.425781 125.136719 L 234.660156 133.453125 C 235.667969 134.78125 237.128906 135.691406 238.785156 135.953125 L 254.34375 138.550781 C 255.253906 138.714844 256.128906 139.039062 256.878906 139.558594 L 272.304688 149.855469 C 274.125 151.054688 275.195312 153.101562 275.195312 155.246094 L 275.195312 168.921875 C 275.195312 170.445312 274.675781 171.910156 273.703125 173.078125 L 260.15625 189.351562 C 259.378906 190.261719 258.890625 191.398438 258.730469 192.597656 L 255.96875 211.957031 C 255.804688 212.996094 255.414062 213.96875 254.832031 214.816406 L 241.449219 233.554688 C 240.214844 235.277344 238.265625 236.285156 236.15625 236.285156 L 231.28125 236.285156 C 230.277344 236.285156 229.269531 236.511719 228.390625 236.964844 L 213.125 244.601562 C 211.339844 245.507812 210.039062 247.164062 209.652344 249.148438 L 207.472656 259.960938 C 207.183594 261.457031 206.371094 262.820312 205.167969 263.761719 L 193.214844 273.3125 C 191.6875 274.546875 190.78125 276.398438 190.78125 278.378906 L 190.78125 278.507812 C 190.78125 282.082031 187.855469 285.003906 184.285156 285.003906 L 178.925781 285.003906 C 176.261719 285.003906 173.890625 283.382812 172.882812 280.914062 L 169.765625 273.148438 C 168.726562 270.550781 169.472656 267.5625 171.648438 265.746094 L 185.160156 254.472656 C 186.65625 253.238281 187.5 251.421875 187.5 249.472656 L 187.5 241.480469 C 187.5 240.214844 187.109375 238.949219 186.394531 237.875 L 182.917969 232.648438 C 181.71875 230.828125 179.671875 229.757812 177.527344 229.757812 L 175.9375 229.757812 C 173.144531 229.757812 170.640625 227.96875 169.765625 225.304688 L 161.515625 200.523438 L 161.515625 191.070312 C 161.515625 188.929688 160.246094 186.980469 158.265625 186.136719 L 142.027344 179.183594 C 140.046875 178.339844 138.777344 176.390625 138.777344 174.246094 C 138.777344 170.089844 134.230469 167.523438 130.660156 169.667969 L 122.539062 174.539062 L 117.667969 174.539062 C 114.96875 174.539062 112.792969 172.363281 112.792969 169.667969 C 112.792969 166.972656 110.617188 164.796875 107.921875 164.796875 L 106.296875 164.796875 C 102.726562 164.796875 99.800781 161.871094 99.800781 158.300781 L 99.800781 139.070312 L 99.867188 138.941406 L 102.660156 121.789062 C 102.921875 120.199219 103.765625 118.769531 105 117.761719 L 117.503906 107.757812 C 118.640625 106.851562 120.101562 106.332031 121.5625 106.332031 L 129.035156 106.332031 C 132.605469 106.332031 135.53125 103.40625 135.53125 99.835938 L 135.53125 96.585938 C 135.53125 93.011719 138.453125 90.089844 142.027344 90.089844 L 156.835938 90.089844 Z M 156.835938 90.058594 " fill-opacity="1" fill-rule="nonzero"/></g><path fill="#009245" d="M 223.226562 164.761719 L 223.226562 174.507812 L 229.722656 174.507812 L 229.722656 164.761719 L 239.46875 164.761719 L 229.722656 155.019531 L 239.46875 155.019531 L 226.476562 142.027344 L 213.484375 155.019531 L 223.226562 155.019531 L 213.484375 164.761719 Z M 223.226562 164.761719 " fill-opacity="1" fill-rule="nonzero"/><path fill="#009245" d="M 181.003906 161.515625 L 181.003906 171.257812 L 187.5 171.257812 L 187.5 161.515625 L 197.242188 161.515625 L 187.5 151.769531 L 197.242188 151.769531 L 184.25 138.777344 L 171.257812 151.769531 L 181.003906 151.769531 L 171.257812 161.515625 Z M 181.003906 161.515625 " fill-opacity="1" fill-rule="nonzero"/><path fill="#009245" d="M 190.746094 184.25 L 177.753906 197.242188 L 187.5 197.242188 L 177.753906 206.988281 L 187.5 206.988281 L 187.5 216.730469 L 193.996094 216.730469 L 193.996094 206.988281 L 203.738281 206.988281 L 193.996094 197.242188 L 203.738281 197.242188 Z M 190.746094 184.25 " fill-opacity="1" fill-rule="nonzero"/><path fill="#009245" d="M 245.964844 197.242188 L 232.972656 184.25 L 219.980469 197.242188 L 229.722656 197.242188 L 219.980469 206.988281 L 229.722656 206.988281 L 229.722656 216.730469 L 236.21875 216.730469 L 236.21875 206.988281 L 245.964844 206.988281 L 236.21875 197.242188 Z M 245.964844 197.242188 " fill-opacity="1" fill-rule="nonzero"/><path fill="#009245" d="M 125.785156 129.035156 L 112.792969 142.027344 L 122.539062 142.027344 L 112.792969 151.769531 L 122.539062 151.769531 L 122.539062 161.515625 L 129.035156 161.515625 L 129.035156 151.769531 L 138.777344 151.769531 L 129.035156 142.027344 L 138.777344 142.027344 Z M 125.785156 129.035156 " fill-opacity="1" fill-rule="nonzero"/><path fill="#009245" d="M 161.515625 122.539062 L 171.257812 122.539062 L 158.265625 109.546875 L 145.273438 122.539062 L 155.019531 122.539062 L 145.273438 132.28125 L 155.019531 132.28125 L 155.019531 142.027344 L 161.515625 142.027344 L 161.515625 132.28125 L 171.257812 132.28125 Z M 161.515625 122.539062 " fill-opacity="1" fill-rule="nonzero"/></svg>