<svg xmlns="http://www.w3.org/2000/svg" xmlns:xlink="http://www.w3.org/1999/xlink" width="500" zoomAndPan="magnify" viewBox="0 0 375 374.999991" height="500" preserveAspectRatio="xMidYMid meet" version="1.0"><defs><clipPath id="ad174f9aff"><path d="M 117 104.015625 L 258 104.015625 L 258 271 L 117 271 Z M 117 104.015625 " clip-rule="nonzero"/></clipPath></defs><g clip-path="url(#ad174f9aff)"><path fill="#00bf63" d="M 257.289062 253.375 C 257.289062 258.265625 255.332031 262.667969 252.105469 265.800781 C 248.976562 269.027344 244.574219 270.984375 239.78125 270.984375 L 135.21875 270.984375 C 130.425781 270.984375 126.023438 269.027344 122.792969 265.800781 C 119.664062 262.667969 117.707031 258.265625 117.707031 253.375 L 117.707031 121.523438 C 117.707031 116.730469 119.664062 112.328125 122.792969 109.199219 C 126.023438 105.972656 130.425781 104.015625 135.21875 104.015625 L 224.421875 104.015625 C 225.792969 104.015625 226.96875 104.601562 227.847656 105.480469 L 255.820312 133.457031 C 256.800781 134.433594 257.289062 135.609375 257.289062 136.878906 Z M 257.289062 253.375 " fill-opacity="1" fill-rule="evenodd"/></g><path fill="#009245" d="M 143.335938 144.605469 C 143.335938 147.347656 141.085938 149.5 138.445312 149.5 C 135.707031 149.5 133.554688 147.347656 133.554688 144.605469 L 133.554688 138.152344 C 133.554688 135.414062 135.707031 133.261719 138.445312 133.261719 L 174.148438 133.261719 C 176.886719 133.261719 179.039062 135.414062 179.039062 138.152344 L 179.039062 144.605469 C 179.039062 147.347656 176.886719 149.5 174.148438 149.5 C 171.507812 149.5 169.257812 147.347656 169.257812 144.605469 L 169.257812 143.042969 L 143.335938 143.042969 Z M 143.335938 144.605469 " fill-opacity="1" fill-rule="evenodd"/><path fill="#009245" d="M 151.453125 138.152344 C 151.453125 135.414062 153.605469 133.261719 156.34375 133.261719 C 158.984375 133.261719 161.234375 135.414062 161.234375 138.152344 L 161.234375 166.320312 C 161.234375 169.0625 158.984375 171.210938 156.34375 171.210938 C 153.605469 171.210938 151.453125 169.0625 151.453125 166.320312 Z M 151.453125 138.152344 " fill-opacity="1" fill-rule="evenodd"/><path fill="#009245" d="M 183.339844 156.148438 C 180.601562 156.148438 178.449219 153.898438 178.449219 151.257812 C 178.449219 148.519531 180.601562 146.367188 183.339844 146.367188 L 190.382812 146.367188 C 193.023438 146.367188 195.273438 148.519531 195.273438 151.257812 C 195.273438 153.898438 193.023438 156.148438 190.382812 156.148438 Z M 183.339844 156.148438 " fill-opacity="1" fill-rule="evenodd"/><path fill="#009245" d="M 183.339844 171.210938 C 180.601562 171.210938 178.449219 169.0625 178.449219 166.320312 C 178.449219 163.679688 180.601562 161.429688 183.339844 161.429688 L 190.382812 161.429688 C 193.023438 161.429688 195.273438 163.679688 195.273438 166.320312 C 195.273438 169.0625 193.023438 171.210938 190.382812 171.210938 Z M 183.339844 171.210938 " fill-opacity="1" fill-rule="evenodd"/><path fill="#009245" d="M 181.972656 151.257812 C 181.972656 148.519531 184.125 146.367188 186.863281 146.367188 C 189.503906 146.367188 191.753906 148.519531 191.753906 151.257812 L 191.753906 166.320312 C 191.753906 169.0625 189.503906 171.210938 186.863281 171.210938 C 184.125 171.210938 181.972656 169.0625 181.972656 166.320312 Z M 181.972656 151.257812 " fill-opacity="1" fill-rule="evenodd"/><path fill="#d3f8c8" d="M 194.980469 231.957031 C 197.621094 231.957031 199.871094 234.105469 199.871094 236.847656 C 199.871094 239.585938 197.621094 241.738281 194.980469 241.738281 L 149.105469 241.738281 C 146.464844 241.738281 144.214844 239.585938 144.214844 236.847656 C 144.214844 234.105469 146.464844 231.957031 149.105469 231.957031 Z M 194.980469 231.957031 " fill-opacity="1" fill-rule="evenodd"/><path fill="#d3f8c8" d="M 225.792969 231.957031 C 228.53125 231.957031 230.683594 234.105469 230.683594 236.847656 C 230.683594 239.585938 228.53125 241.738281 225.792969 241.738281 L 215.328125 241.738281 C 212.589844 241.738281 210.4375 239.585938 210.4375 236.847656 C 210.4375 234.105469 212.589844 231.957031 215.328125 231.957031 Z M 225.792969 231.957031 " fill-opacity="1" fill-rule="evenodd"/><path fill="#d3f8c8" d="M 194.980469 208.285156 C 197.621094 208.285156 199.871094 210.535156 199.871094 213.175781 C 199.871094 215.914062 197.621094 218.066406 194.980469 218.066406 L 149.105469 218.066406 C 146.464844 218.066406 144.214844 215.914062 144.214844 213.175781 C 144.214844 210.535156 146.464844 208.285156 149.105469 208.285156 Z M 194.980469 208.285156 " fill-opacity="1" fill-rule="evenodd"/><path fill="#d3f8c8" d="M 225.792969 208.285156 C 228.53125 208.285156 230.683594 210.535156 230.683594 213.175781 C 230.683594 215.914062 228.53125 218.066406 225.792969 218.066406 L 215.328125 218.066406 C 212.589844 218.066406 210.4375 215.914062 210.4375 213.175781 C 210.4375 210.535156 212.589844 208.285156 215.328125 208.285156 Z M 225.792969 208.285156 " fill-opacity="1" fill-rule="evenodd"/><path fill="#d3f8c8" d="M 194.980469 184.613281 C 197.621094 184.613281 199.871094 186.863281 199.871094 189.503906 C 199.871094 192.242188 197.621094 194.394531 194.980469 194.394531 L 149.105469 194.394531 C 146.464844 194.394531 144.214844 192.242188 144.214844 189.503906 C 144.214844 186.863281 146.464844 184.613281 149.105469 184.613281 Z M 194.980469 184.613281 " fill-opacity="1" fill-rule="evenodd"/><path fill="#d3f8c8" d="M 225.792969 184.613281 C 228.53125 184.613281 230.683594 186.863281 230.683594 189.503906 C 230.683594 192.242188 228.53125 194.394531 225.792969 194.394531 L 215.328125 194.394531 C 212.589844 194.394531 210.4375 192.242188 210.4375 189.503906 C 210.4375 186.863281 212.589844 184.613281 215.328125 184.613281 Z M 225.792969 184.613281 " fill-opacity="1" fill-rule="evenodd"/><path fill="#d3f8c8" d="M 225.792969 161.039062 C 228.53125 161.039062 230.683594 163.191406 230.683594 165.929688 C 230.683594 168.570312 228.53125 170.820312 225.792969 170.820312 L 215.328125 170.820312 C 212.589844 170.820312 210.4375 168.570312 210.4375 165.929688 C 210.4375 163.191406 212.589844 161.039062 215.328125 161.039062 Z M 225.792969 161.039062 " fill-opacity="1" fill-rule="evenodd"/></svg>