<svg xmlns="http://www.w3.org/2000/svg" xmlns:xlink="http://www.w3.org/1999/xlink" width="500" zoomAndPan="magnify" viewBox="0 0 375 374.999991" height="500" preserveAspectRatio="xMidYMid meet" version="1.0"><defs><clipPath id="8ed882b28b"><path d="M 99.800781 139 L 262 139 L 262 265.558594 L 99.800781 265.558594 Z M 99.800781 139 " clip-rule="nonzero"/></clipPath><clipPath id="855b1af2b2"><path d="M 176 109.558594 L 275.300781 109.558594 L 275.300781 208 L 176 208 Z M 176 109.558594 " clip-rule="nonzero"/></clipPath></defs><g clip-path="url(#8ed882b28b)"><path fill="#00bf63" d="M 200.746094 266.375 C 201.402344 265.71875 202.292969 265.347656 203.222656 265.347656 L 226.007812 265.347656 C 245.34375 265.347656 261.019531 249.675781 261.019531 230.339844 L 261.019531 174.324219 C 261.019531 154.992188 245.34375 139.316406 226.007812 139.316406 L 134.984375 139.316406 C 115.652344 139.316406 99.976562 154.992188 99.976562 174.324219 L 99.976562 230.339844 C 99.976562 249.675781 115.652344 265.347656 134.984375 265.347656 L 155.617188 265.347656 C 156.546875 265.347656 157.4375 265.71875 158.09375 266.375 L 173.230469 281.511719 C 176.648438 284.929688 182.191406 284.929688 185.609375 281.511719 Z M 200.746094 266.375 " fill-opacity="1" fill-rule="evenodd"/></g><path fill="#d3f8c8" d="M 131.484375 172.574219 C 131.484375 168.707031 134.621094 165.574219 138.488281 165.574219 L 162.992188 165.574219 C 166.859375 165.574219 169.996094 168.707031 169.996094 172.574219 C 169.996094 176.441406 166.859375 179.578125 162.992188 179.578125 L 138.488281 179.578125 C 134.621094 179.578125 131.484375 176.441406 131.484375 172.574219 Z M 131.484375 172.574219 " fill-opacity="1" fill-rule="nonzero"/><path fill="#d3f8c8" d="M 131.484375 228.589844 C 131.484375 224.722656 134.621094 221.585938 138.488281 221.585938 L 222.507812 221.585938 C 226.375 221.585938 229.507812 224.722656 229.507812 228.589844 C 229.507812 232.457031 226.375 235.589844 222.507812 235.589844 L 138.488281 235.589844 C 134.621094 235.589844 131.484375 232.457031 131.484375 228.589844 Z M 131.484375 228.589844 " fill-opacity="1" fill-rule="nonzero"/><path fill="#d3f8c8" d="M 138.488281 193.582031 C 134.621094 193.582031 131.484375 196.714844 131.484375 200.582031 C 131.484375 204.449219 134.621094 207.582031 138.488281 207.582031 L 175.246094 207.582031 C 179.113281 207.582031 182.246094 204.449219 182.246094 200.582031 C 182.246094 196.714844 179.113281 193.582031 175.246094 193.582031 Z M 138.488281 193.582031 " fill-opacity="1" fill-rule="nonzero"/><g clip-path="url(#855b1af2b2)"><path fill="#009245" d="M 275.019531 158.570312 C 275.019531 185.640625 253.078125 207.582031 226.007812 207.582031 C 198.941406 207.582031 176.996094 185.640625 176.996094 158.570312 C 176.996094 131.503906 198.941406 109.558594 226.007812 109.558594 C 253.078125 109.558594 275.019531 131.503906 275.019531 158.570312 Z M 275.019531 158.570312 " fill-opacity="1" fill-rule="nonzero"/></g><path fill="#d3f8c8" d="M 226.007812 142.816406 C 223.109375 142.816406 220.757812 145.167969 220.757812 148.070312 C 220.757812 151.9375 217.621094 155.070312 213.753906 155.070312 C 209.890625 155.070312 206.753906 151.9375 206.753906 148.070312 C 206.753906 137.433594 215.375 128.8125 226.007812 128.8125 C 236.644531 128.8125 245.265625 137.433594 245.265625 148.070312 C 245.265625 156.234375 240.183594 163.210938 233.011719 166.011719 L 233.011719 166.449219 C 233.011719 170.316406 229.875 173.449219 226.007812 173.449219 C 222.140625 173.449219 219.007812 170.316406 219.007812 166.449219 C 219.007812 164.40625 219.007812 162.359375 219.007812 160.320312 C 219.007812 156.453125 222.140625 153.320312 226.007812 153.320312 C 228.910156 153.320312 231.261719 150.96875 231.261719 148.070312 C 231.261719 145.167969 228.910156 142.816406 226.007812 142.816406 Z M 226.007812 142.816406 " fill-opacity="1" fill-rule="nonzero"/><path fill="#d3f8c8" d="M 233.011719 182.203125 C 233.011719 186.070312 229.875 189.203125 226.007812 189.203125 C 222.140625 189.203125 219.007812 186.070312 219.007812 182.203125 C 219.007812 178.335938 222.140625 175.199219 226.007812 175.199219 C 229.875 175.199219 233.011719 178.335938 233.011719 182.203125 Z M 233.011719 182.203125 " fill-opacity="1" fill-rule="nonzero"/></svg>