<svg width="800" height="800" viewBox="0 0 800 800" fill="none" xmlns="http://www.w3.org/2000/svg">
<rect x="0.5" y="0.5" width="799" height="799" fill="#90C77E"/>
<rect x="0.5" y="0.5" width="799" height="799" stroke="black"/>
<g clip-path="url(#clip0_13_2014)">
<mask id="mask0_13_2014" style="mask-type:luminance" maskUnits="userSpaceOnUse" x="170" y="165" width="460" height="470">
<path d="M630 165H170V635H630V165Z" fill="white"/>
</mask>
<g mask="url(#mask0_13_2014)">
<path d="M439.742 588.511C442.809 593.62 447.92 593.62 448.431 592.598L444.978 600.261L438.333 607.924L433.733 611.5L429.133 615.076L426.067 618.652L424.022 621.718L421.978 625.294L419.422 628.87L418.4 630.402L415.333 633.468L413.8 633.979L412.778 634.489L411.244 635L409.711 633.979V631.935L411.12 628.87L412.778 626.826L413.8 624.783L412.778 623.25L409.711 619.674L386.2 602.305H384.667L382.622 603.837H381.6L380.578 602.305L379.556 600.261L378.022 598.729L375.467 596.174L373.933 594.642L370.867 593.109H367.8L365.244 594.642C364.733 594.812 363.609 595.05 363.2 594.642L361.667 593.109L364.733 592.087L366.778 589.533L368.822 585.957L382.622 572.674L384.667 572.163V570.631L386.2 569.098L387.733 567.565L390.8 565.522L396.297 561.435C400.046 563.649 408.257 568.689 411.12 571.142C414.697 574.207 413.164 577.272 407.542 577.272C404.986 576.25 395.275 579.315 393.231 580.848C391.595 582.074 392.549 582.381 393.231 582.381C396.297 581.699 403.146 580.133 406.009 579.315C415.004 586.263 426.793 584.935 431.564 583.402C433.268 583.402 437.289 584.424 439.742 588.511Z" fill="white" stroke="white"/>
<path d="M367.289 419.413C379.556 405.62 387.733 387.228 377.511 396.935C367.289 406.641 334.578 419.924 367.289 370.37C389.778 379.565 384.156 384.675 386.2 390.804C388.244 396.935 403.578 376.5 408.689 380.587C413.8 384.674 419.422 386.207 429.644 370.37C439.867 354.533 456.733 338.696 459.289 341.761C460.311 342.987 460.524 345.288 460.375 347.664L462.867 333.076L465.933 336.141C468.66 322.859 473.293 295.885 470.022 294.25C465.933 292.207 476.667 288.12 479.222 291.185C481.778 294.25 499.667 298.848 503.756 285.054C509.889 298.848 512.444 279.435 518.578 276.37C523.484 273.917 530.163 266.152 532.889 262.576C534.252 263.598 538.613 265.335 545.156 264.109C551.698 265.335 542.771 272.794 537.489 276.37L532.889 279.946L534.422 295.783L530.333 300.381L534.422 307.533C533.229 310.427 530.129 315.604 527.267 313.152C524.404 310.7 521.985 320.645 521.133 325.924C521.133 326.605 521.542 327.559 523.178 325.924C524.404 322.246 525.733 318.942 526.244 317.75C526.926 316.728 528.391 316.217 528.8 322.348C527.573 326.026 526.585 331.033 526.244 333.076C524.882 337.163 522.973 345.746 526.244 347.381C529.516 349.015 530.333 360.663 530.333 366.283L537.489 363.217L532.889 370.37C535.785 373.775 541.169 381.609 539.533 385.696C537.489 390.804 535.444 390.294 537.489 397.446C539.124 403.167 536.126 407.323 534.422 408.685C532.718 408.174 528.698 406.437 526.244 403.576C523.178 400 516.022 405.62 521.133 408.685C525.222 411.137 522.837 415.837 521.133 417.881L527.267 414.304L530.333 420.946C531.185 420.605 532.889 418.8 532.889 414.304C532.889 409.809 541.067 416.859 545.156 420.946H539.533C541.407 426.565 545.156 438.52 545.156 441.38C545.156 444.957 531.356 444.446 528.8 459.261C522.667 464.574 515.682 464.54 512.956 463.859C510.571 468.967 504.164 478.878 497.622 477.652C491.08 476.426 487.06 484.294 485.867 488.38V497.576L479.222 488.38C478.2 493.319 474.827 503.4 469.511 504.217C462.867 505.239 466.444 520.054 459.289 520.565C456.074 520.795 454.213 522.539 453.2 524.476L452.133 528.739C452.133 527.619 452.408 525.99 453.2 524.476L455.2 516.478C458.437 514.605 462.969 509.53 455.2 504.217H436.8C436.289 502.855 436.391 500.13 440.889 500.13H455.2C457.756 498.258 462.867 493.898 462.867 491.446C462.867 488.38 477.178 485.826 471.556 477.652C465.933 469.478 463.378 461.304 459.289 467.435C455.2 473.565 452.644 480.717 449.067 477.652C445.489 474.587 439.867 467.435 446 467.435C452.133 467.435 440.889 466.413 440.889 461.815C440.889 458.137 446.34 455.855 449.067 455.174C449.749 456.196 451.929 458.137 455.2 457.728C458.471 457.32 463.718 453.471 465.933 451.598C466.956 449.554 468.387 445.467 465.933 445.467H455.2C452.133 445.467 447.022 453.641 443.956 451.598C440.889 449.554 435.267 452.62 434.756 455.174C434.244 457.728 437.822 456.196 434.756 461.815C434.756 467.435 433.222 474.587 429.644 477.652C426.067 480.717 428.111 490.935 414.822 497.576C405.622 497.576 397.956 483.783 386.2 500.13C381.293 500.13 378.363 498.427 377.511 497.576C375.636 498.258 370.969 499.211 367.289 497.576C362.791 497.576 361.326 496.214 361.156 495.533C361.496 492.808 363.2 486.235 367.289 481.739C372.4 476.12 364.222 464.37 375.978 474.587C384.156 477.039 387.563 478.334 388.244 478.674C393.696 474.758 405.009 463.45 406.644 449.554C408.689 432.185 411.244 427.586 403.578 419.413C397.444 412.874 376.829 416.688 367.289 419.413Z" fill="white"/>
<path d="M367.289 419.413C379.556 405.62 387.733 387.228 377.511 396.935C367.289 406.641 334.578 419.924 367.289 370.37C389.778 379.565 384.156 384.675 386.2 390.804C388.244 396.935 403.578 376.5 408.689 380.587C413.8 384.674 419.422 386.207 429.644 370.37C439.867 354.533 456.733 338.696 459.289 341.761C461.333 344.213 460.14 350.957 459.289 354.022L462.867 333.076L465.933 336.141C468.66 322.859 473.293 295.885 470.022 294.25C465.933 292.207 476.667 288.12 479.222 291.185C481.778 294.25 499.667 298.848 503.756 285.054C509.889 298.848 512.444 279.435 518.578 276.37C523.484 273.917 530.163 266.152 532.889 262.576C534.252 263.598 538.613 265.335 545.156 264.109C551.698 265.335 542.771 272.794 537.489 276.37L532.889 279.946L534.422 295.783L530.333 300.381L534.422 307.533C533.229 310.427 530.129 315.604 527.267 313.152C524.404 310.7 521.985 320.645 521.133 325.924C521.133 326.605 521.542 327.559 523.178 325.924C524.404 322.246 525.733 318.942 526.244 317.75C526.926 316.728 528.391 316.217 528.8 322.348C527.573 326.026 526.585 331.033 526.244 333.076C524.882 337.163 522.973 345.746 526.244 347.381C529.516 349.015 530.333 360.663 530.333 366.283L537.489 363.217L532.889 370.37C535.785 373.775 541.169 381.609 539.533 385.696C537.489 390.804 535.444 390.294 537.489 397.446C539.124 403.167 536.126 407.323 534.422 408.685C532.718 408.174 528.698 406.437 526.244 403.576C523.178 400 516.022 405.62 521.133 408.685C525.222 411.137 522.837 415.837 521.133 417.881L527.267 414.304L530.333 420.946C531.185 420.605 532.889 418.8 532.889 414.304C532.889 409.809 541.067 416.859 545.156 420.946H539.533C541.407 426.565 545.156 438.52 545.156 441.38C545.156 444.957 531.356 444.446 528.8 459.261C522.667 464.574 515.682 464.54 512.956 463.859C510.571 468.967 504.164 478.878 497.622 477.652C491.08 476.426 487.06 484.294 485.867 488.38V497.576L479.222 488.38C478.2 493.319 474.827 503.4 469.511 504.217C462.867 505.239 466.444 520.054 459.289 520.565C453.564 520.974 452.133 526.185 452.133 528.739L455.2 516.478C458.437 514.605 462.969 509.53 455.2 504.217C444.16 504.217 438.333 504.217 436.8 504.217C436.289 502.855 436.391 500.13 440.889 500.13C445.387 500.13 452.304 500.13 455.2 500.13C457.756 498.258 462.867 493.898 462.867 491.446C462.867 488.38 477.178 485.826 471.556 477.652C465.933 469.478 463.378 461.304 459.289 467.435C455.2 473.565 452.644 480.717 449.067 477.652C445.489 474.587 439.867 467.435 446 467.435C452.133 467.435 440.889 466.413 440.889 461.815C440.889 458.137 446.34 455.855 449.067 455.174C449.749 456.196 451.929 458.137 455.2 457.728C458.471 457.32 463.718 453.471 465.933 451.598C466.956 449.554 468.387 445.467 465.933 445.467C462.867 445.467 458.267 445.467 455.2 445.467C452.133 445.467 447.022 453.641 443.956 451.598C440.889 449.554 435.267 452.62 434.756 455.174C434.244 457.728 437.822 456.196 434.756 461.815C434.756 467.435 433.222 474.587 429.644 477.652C426.067 480.717 428.111 490.935 414.822 497.576C405.622 497.576 397.956 483.783 386.2 500.13C381.293 500.13 378.363 498.427 377.511 497.576C375.636 498.258 370.969 499.211 367.289 497.576C362.791 497.576 361.326 496.214 361.156 495.533C361.496 492.808 363.2 486.235 367.289 481.739C372.4 476.12 364.222 464.37 375.978 474.587C384.156 477.039 387.563 478.334 388.244 478.674C393.696 474.758 405.009 463.45 406.644 449.554C408.689 432.185 411.244 427.586 403.578 419.413C397.444 412.874 376.829 416.688 367.289 419.413Z" stroke="white"/>
<path d="M361.031 495.022C361.202 495.703 362.666 497.065 367.164 497.065L366.267 498.087H364.733L361.667 497.065H360.133H358.6L358.089 495.533L358.6 494V492.467L359.111 489.402V485.315L358.6 481.228L357.067 477.652L356.044 474.587L355.533 473.565L357.067 472.543L357.578 471.522L358.6 470.5L357.578 469.478L357.067 467.946V466.413L357.578 463.859L359.111 460.793L361.031 456.706L362.689 453.13V449.554L361.031 446.489L359.622 444.446L360.644 442.402L357.578 440.87L354 438.315L351.956 435.25L352.978 432.696V430.141L354 428.609V427.076H351.956H349.4H347.867L346.333 426.565H344.289H340.2H335.6L333.556 426.054C334.237 425.543 335.498 424.317 335.089 423.5C334.578 422.478 336.622 421.456 338.156 420.946C339.689 420.435 340.711 416.348 340.711 415.326C340.711 414.304 344.8 419.924 346.333 420.435C347.867 420.946 348.889 417.37 349.4 416.348C349.911 415.326 353.489 419.924 354 418.902C354.511 417.879 356.556 418.902 359.622 419.924C362.076 420.742 365.673 419.584 367.164 418.902C376.705 416.177 397.32 412.363 403.453 418.902C411.12 427.075 408.564 431.674 406.52 449.043C404.884 462.939 393.571 474.247 388.12 478.163C387.438 477.823 384.031 476.528 375.853 474.076C364.098 463.859 372.275 475.609 367.164 481.228C363.075 485.724 361.371 492.297 361.031 495.022Z" fill="white" stroke="white"/>
<path d="M545.031 420.435C540.978 416.384 532.908 409.423 532.766 413.677C532.845 411.251 535.375 406.424 545.031 405.62C557.298 404.598 560.875 394.381 559.853 394.381C558.831 394.381 550.653 389.783 557.809 388.25C564.964 386.717 572.12 377.011 580.809 369.859C589.498 362.707 586.431 351.978 594.609 352.489C602.786 353 612.498 345.848 616.075 341.25C618.938 337.572 618.971 329.16 618.631 325.413C620.851 319.641 624.307 307.39 622.76 299.182C622.43 298.109 622.077 296.975 621.698 295.783C622.18 296.8 622.527 297.945 622.76 299.182C624.911 306.204 626.002 310.653 626.298 312.131C627.49 314.174 629.16 318.976 626.298 321.837C627.32 326.435 627.32 327.457 626.298 329.5C625.275 331.544 624.764 336.141 623.231 338.185C621.698 340.228 611.475 356.065 607.898 357.598C605.035 358.824 594.438 375.138 589.498 383.141C588.646 384.334 586.124 386.82 582.853 387.228C579.582 387.637 578.764 399.319 578.764 405.109C578.424 406.982 578.151 412.874 579.786 421.457C578.969 424.317 577.742 429.801 577.231 432.185L576.209 443.935L571.098 450.576L570.075 453.131L570.586 461.304L570.075 463.348L562.92 478.163L558.831 481.739C557.979 483.612 556.275 486.337 554.742 486.337C555.764 488.381 557.298 493.489 553.72 496.554C550.142 499.62 544.009 497.065 544.009 505.75C532.969 506.159 524.075 507.283 521.009 507.794L527.142 504.728L520.498 506.261C520.327 506.432 519.884 506.772 519.475 506.772H516.409C516.238 507.112 515.795 507.794 515.386 507.794C514.978 507.794 513.171 508.475 512.32 508.815L513.342 509.837L512.32 511.881H511.298L509.764 512.391L507.72 513.413H506.698H506.186L503.12 516.989L500.053 516.478L498.009 516.989L494.431 519.033L492.386 518.522L489.32 519.544L472.578 535.381L467.853 542.022L465.298 543.044L467.853 544.065V545.598H468.364L467.853 546.62L466.32 549.685L466.831 553.261V556.326L467.342 558.881L466.32 561.946V568.587L465.298 571.141L463.764 574.207L462.231 575.228L459.675 577.272L457.631 579.315L453.031 584.424L450.475 588.511L448.431 592.598C447.92 593.62 442.809 593.62 439.742 588.511C437.289 584.424 433.268 583.402 431.564 583.402C426.794 584.935 415.004 586.263 406.009 579.315C403.146 580.133 396.298 581.699 393.231 582.381C392.549 582.381 391.595 582.074 393.231 580.848C395.275 579.315 404.986 576.25 407.542 577.272C413.164 577.272 414.698 574.207 411.12 571.141C408.258 568.689 400.046 563.649 396.298 561.435L403.453 557.859L406.009 556.326L408.053 548.663V545.598L404.475 539.467L401.533 538.446L398.467 538.957L397.32 537.424L396.809 535.891L398.342 533.337L399.364 527.717L400.386 522.098V520.054L399.364 519.033L396.809 518.011H394.253L390.675 519.033L388.631 518.011H388.12L387.098 516.478L386.075 512.391L385.564 504.728L384.542 501.663L383.52 499.456C384.302 499.559 385.153 499.62 386.075 499.62C397.831 483.272 405.498 497.065 414.698 497.065C427.986 490.424 425.942 480.207 429.52 477.141C433.098 474.076 434.631 466.924 434.631 461.304C437.698 455.685 434.12 457.217 434.631 454.663C435.142 452.109 440.764 449.044 443.831 451.087C446.898 453.131 452.009 444.957 455.075 444.957H465.809C468.262 444.957 466.831 449.044 465.809 451.087C463.593 452.96 458.346 456.809 455.075 457.217C451.804 457.626 449.624 455.685 448.942 454.663C446.216 455.345 440.764 457.626 440.764 461.304C440.764 465.902 452.009 466.924 445.875 466.924C439.742 466.924 445.364 474.076 448.942 477.141C452.52 480.207 455.075 473.054 459.164 466.924C463.253 460.794 465.809 468.967 471.431 477.141C477.053 485.315 462.742 487.87 462.742 490.935C462.742 493.387 457.631 497.747 455.075 499.62H440.764C436.266 499.62 436.164 502.345 436.675 503.707H455.075C462.844 509.02 458.313 514.095 455.075 515.967L453.075 523.966C454.088 522.028 455.949 520.284 459.164 520.054C466.32 519.544 462.742 504.728 469.386 503.707C474.702 502.889 478.075 492.808 479.098 487.87L485.742 497.065V487.87C486.935 483.783 490.955 475.915 497.498 477.141C504.04 478.367 510.446 468.457 512.831 463.348C515.557 464.029 522.542 464.063 528.675 458.75C531.231 443.935 545.031 444.446 545.031 440.87C545.031 438.009 541.282 426.054 539.409 420.435H545.031Z" fill="white"/>
<path d="M532.764 413.794C532.764 409.298 540.942 416.348 545.031 420.435H539.409C541.282 426.054 545.031 438.009 545.031 440.87C545.031 444.446 531.231 443.935 528.675 458.75C522.542 464.063 515.557 464.029 512.831 463.348C510.446 468.457 504.04 478.367 497.498 477.141C490.955 475.915 486.935 483.783 485.742 487.87V497.065L479.098 487.87C478.075 492.808 474.702 502.889 469.386 503.707C462.742 504.728 466.32 519.544 459.164 520.054C453.44 520.463 452.009 525.674 452.009 528.228L455.075 515.967C458.313 514.095 462.844 509.02 455.075 503.707C444.035 503.707 438.209 503.707 436.675 503.707C436.164 502.345 436.266 499.62 440.764 499.62C445.262 499.62 452.179 499.62 455.075 499.62C457.631 497.747 462.742 493.387 462.742 490.935C462.742 487.87 477.053 485.315 471.431 477.141C465.809 468.967 463.253 460.794 459.164 466.924C455.075 473.054 452.52 480.207 448.942 477.141C445.364 474.076 439.742 466.924 445.875 466.924C452.009 466.924 440.764 465.902 440.764 461.304C440.764 457.626 446.216 455.345 448.942 454.663C449.624 455.685 451.804 457.626 455.075 457.217C458.346 456.809 463.593 452.96 465.809 451.087C466.831 449.044 468.262 444.957 465.809 444.957C462.742 444.957 458.142 444.957 455.075 444.957C452.009 444.957 446.898 453.131 443.831 451.087C440.764 449.044 435.142 452.109 434.631 454.663C434.12 457.217 437.698 455.685 434.631 461.304C434.631 466.924 433.098 474.076 429.52 477.141C425.942 480.207 427.986 490.424 414.698 497.065C405.498 497.065 397.831 483.272 386.075 499.62C385.153 499.62 384.302 499.559 383.52 499.456L384.542 501.663L385.564 504.728L386.075 512.391L387.098 516.478L388.12 518.011H388.631L390.675 519.033L394.253 518.011H396.809L399.364 519.033L400.386 520.054V522.098L399.364 527.717L398.342 533.337L396.809 535.891L397.32 537.424L398.467 538.957L401.533 538.446L404.475 539.467L408.053 545.598V548.663L406.009 556.326L403.453 557.859L396.298 561.435C400.046 563.649 408.258 568.689 411.12 571.141C414.698 574.207 413.164 577.272 407.542 577.272C404.986 576.25 395.275 579.315 393.231 580.848C391.595 582.074 392.549 582.381 393.231 582.381C396.298 581.699 403.146 580.133 406.009 579.315C415.004 586.263 426.794 584.935 431.564 583.402C433.268 583.402 437.289 584.424 439.742 588.511C442.809 593.62 447.92 593.62 448.431 592.598C448.84 591.781 449.964 589.533 450.475 588.511L453.031 584.424L457.631 579.315L459.675 577.272L462.231 575.228L463.764 574.207L465.298 571.141L466.32 568.587V561.946L467.342 558.881L466.831 556.326V553.261L466.32 549.685L467.853 546.62L468.364 545.598H467.853V544.065L465.298 543.044L467.853 542.022L472.578 535.381L489.32 519.544L492.386 518.522L494.431 519.033L498.009 516.989L500.053 516.478L503.12 516.989L506.186 513.413H506.698H507.72L509.764 512.391L511.298 511.881H512.32L513.342 509.837L512.32 508.815C513.171 508.475 514.978 507.794 515.386 507.794C515.795 507.794 516.238 507.112 516.409 506.772C517.26 506.772 519.066 506.772 519.475 506.772C519.884 506.772 520.327 506.432 520.498 506.261L527.142 504.728L521.009 507.794C524.075 507.283 532.969 506.159 544.009 505.75C544.009 497.065 550.142 499.62 553.72 496.554C557.298 493.489 555.764 488.381 554.742 486.337C556.275 486.337 557.979 483.612 558.831 481.739L562.92 478.163L570.075 463.348L570.586 461.304L570.075 453.131L571.098 450.576L576.209 443.935L577.231 432.185C577.742 429.801 578.969 424.317 579.786 421.457C578.151 412.874 578.424 406.982 578.764 405.109C578.764 399.319 579.582 387.637 582.853 387.228C586.124 386.82 588.646 384.334 589.498 383.141C594.438 375.138 605.035 358.824 607.898 357.598C611.475 356.065 621.698 340.228 623.231 338.185C624.764 336.141 625.275 331.544 626.298 329.5C627.32 327.457 627.32 326.435 626.298 321.837C629.16 318.976 627.49 314.174 626.298 312.131C625.957 310.427 624.56 304.774 621.698 295.783C625.378 303.548 621.186 318.772 618.631 325.413C618.971 329.16 618.938 337.572 616.075 341.25C612.498 345.848 602.786 353 594.609 352.489C586.431 351.978 589.498 362.707 580.809 369.859C572.12 377.011 564.964 386.717 557.809 388.25C550.653 389.783 558.831 394.381 559.853 394.381C560.875 394.381 557.298 404.598 545.031 405.62C535.218 406.437 532.764 411.41 532.764 413.794Z" stroke="white"/>
<path d="M545.156 264.109C545.859 264.241 546.383 264.444 546.752 264.707L553.333 267.174C554.696 266.493 558.24 265.335 561.511 266.152C565.6 267.174 568.156 266.152 574.289 269.728C579.196 272.589 585.874 277.732 588.6 279.946C589.793 281.478 592.689 284.748 594.733 285.565C596.778 286.383 598.652 288.631 599.333 289.652C605.296 288.631 618.142 288.528 621.822 296.294C625.502 304.059 621.311 319.283 618.756 325.924C619.096 329.671 619.062 338.083 616.2 341.761C612.622 346.359 602.911 353.511 594.733 353C586.556 352.489 589.622 363.218 580.933 370.37C572.244 377.522 565.089 387.228 557.933 388.761C550.778 390.294 558.956 394.891 559.978 394.891C561 394.891 557.422 405.109 545.156 406.131C535.342 406.948 532.889 411.921 532.889 414.305C532.889 418.8 531.185 420.606 530.333 420.946L527.267 414.305L521.133 417.881C522.837 415.837 525.222 411.137 521.133 408.685C516.022 405.62 523.178 400 526.244 403.576C528.698 406.437 532.718 408.174 534.422 408.685C536.126 407.323 539.124 403.168 537.489 397.446C535.444 390.294 537.489 390.805 539.533 385.696C541.169 381.609 535.785 373.775 532.889 370.37L537.489 363.218L530.333 366.283C530.333 360.663 529.516 349.015 526.244 347.381C522.973 345.746 524.882 337.163 526.244 333.076C526.585 331.033 527.573 326.026 528.8 322.348C528.391 316.218 526.926 316.728 526.244 317.75C525.733 318.943 524.404 322.246 523.178 325.924C521.542 327.559 521.133 326.606 521.133 325.924C521.985 320.645 524.404 310.7 527.267 313.152C530.129 315.605 533.229 310.427 534.422 307.533L530.333 300.381L534.422 295.783L532.889 279.946L537.489 276.37C542.203 273.178 549.822 266.893 546.752 264.707L545.156 264.109Z" fill="white"/>
<path d="M545.156 264.109C551.698 265.335 542.771 272.794 537.489 276.37L532.889 279.946L534.422 295.783L530.333 300.381L534.422 307.533C533.229 310.427 530.129 315.605 527.267 313.152C524.404 310.7 521.985 320.645 521.133 325.924C521.133 326.606 521.542 327.559 523.178 325.924C524.404 322.246 525.733 318.943 526.244 317.75C526.926 316.728 528.391 316.218 528.8 322.348C527.573 326.026 526.585 331.033 526.244 333.076C524.882 337.163 522.973 345.746 526.244 347.381C529.516 349.015 530.333 360.663 530.333 366.283L537.489 363.218L532.889 370.37C535.785 373.775 541.169 381.609 539.533 385.696C537.489 390.805 535.444 390.294 537.489 397.446C539.124 403.168 536.126 407.323 534.422 408.685C532.718 408.174 528.698 406.437 526.244 403.576C523.178 400 516.022 405.62 521.133 408.685C525.222 411.137 522.837 415.837 521.133 417.881L527.267 414.305L530.333 420.946C531.185 420.606 532.889 418.8 532.889 414.305C532.889 411.921 535.342 406.948 545.156 406.131C557.422 405.109 561 394.891 559.978 394.891C558.956 394.891 550.778 390.294 557.933 388.761C565.089 387.228 572.244 377.522 580.933 370.37C589.622 363.218 586.556 352.489 594.733 353C602.911 353.511 612.622 346.359 616.2 341.761C619.062 338.083 619.096 329.671 618.756 325.924C621.311 319.283 625.502 304.059 621.822 296.294C618.142 288.528 605.296 288.631 599.333 289.652C598.652 288.631 596.778 286.383 594.733 285.565C592.689 284.748 589.793 281.478 588.6 279.946C585.874 277.732 579.196 272.589 574.289 269.728C568.156 266.152 565.6 267.174 561.511 266.152C558.24 265.335 554.696 266.493 553.333 267.174L545.156 264.109Z" stroke="white"/>
<path d="M377.386 396.424C387.609 386.718 379.431 405.109 367.164 418.902C365.673 419.584 362.076 420.742 359.622 419.924C356.556 418.902 354.511 417.88 354 418.902C353.489 419.924 349.911 415.326 349.4 416.348C348.889 417.37 347.867 420.946 346.333 420.435C344.8 419.924 340.711 414.304 340.711 415.326C340.711 416.348 339.689 420.435 338.156 420.946C336.622 421.457 334.578 422.478 335.089 423.5C335.498 424.318 334.237 425.544 333.556 426.054L335.6 426.565H332.533V424.522L332.022 421.968L329.467 414.815V413.283V411.239L330.489 409.707L331 407.152L329.978 405.109V403.576L329.467 401.533V398.978L328.444 396.935L326.911 395.913L326.4 394.381H325.378L323.333 393.87L321.289 393.359H318.733L316.689 393.87H312.6L311.067 392.337L309.022 390.294L307.489 389.272L302.378 387.228L296.756 383.141L292.667 382.12L284.489 381.098L277.844 375.478H276.311L273.244 370.881L272.222 366.794L272.733 364.75L273.244 362.707L271.2 358.109L271.711 357.087L272.222 353.511L272.733 350.957L272.222 349.424L271.711 348.402L268.644 349.424L256.889 349.935L255.867 351.468L252.289 353.511L246.667 357.598L244.622 359.131H242.578L240.533 359.641L237.978 362.707L234.4 364.75L231.333 364.239L224.689 362.707H217.022L210.889 363.218V362.707L210.378 352.489L210.889 349.935L211.911 346.359V344.826L207.311 347.381L199.133 351.468L194.533 351.978L193 350.957L191.978 348.913L190.444 346.359L188.911 345.337L187.378 344.315H185.333L181.244 343.804L182.267 342.272L182.778 340.228V337.674L172.044 322.859V321.837V320.304L173.578 319.794L174.6 318.772V317.75L173.578 316.218L175.111 314.685L177.667 313.152L180.733 309.576V305.489V303.446L181.244 300.891L183.289 296.804L186.356 293.228L194.022 287.098L199.644 285.054L203.222 284.544L211.911 280.968L213.956 281.478L215.489 283.011L217.022 283.522L219.067 280.968L225.2 246.228L224.689 243.674L223.667 241.12L222.644 238.565L220.6 236.751L218.044 233.968L217.022 231.413L217.533 226.304L219.578 224.261L221.111 223.75L225.711 224.261H228.267V223.239L227.244 221.707L225.711 219.152L224.178 218.641H222.644L220.6 217.62L220.089 216.598L219.578 214.044L220.089 212L224.178 209.957H228.267H235.933L239 210.468L238.489 209.957V208.935L239.511 207.913L241.044 208.935H242.578L244.622 206.891L247.178 205.359H249.222L251.267 212L252.289 217.62H253.822L256.378 219.152L259.956 221.707H263.022L265.578 220.685L267.622 219.152H269.667V221.707L270.689 223.239L273.244 220.685L274.778 218.131L275.8 217.62L280.911 215.576L282.444 214.554L285 215.576L286.022 213.022L288.067 208.935L289.089 207.913L290.622 208.424L292.156 206.891V205.359L291.133 203.315L289.089 202.804L287.556 200.25L286.022 197.696L285 188.5L282.444 185.946L278.867 182.37L278.356 180.837H279.378L285 183.391L290.622 184.413L292.156 183.391V184.413L293.689 184.924H295.222L298.8 186.457L300.333 187.478H302.378V185.946L301.867 183.902L302.889 183.391H304.422L304.933 181.859L307.489 181.348L309.533 182.37L314.644 180.326L316.689 179.304L318.733 177.261H320.267H322.822L323.844 175.728L325.889 174.707V172.152C326.06 171.812 326.4 170.722 326.4 169.087C335.089 166.022 334.067 173.174 334.067 177.261C344.289 182.37 339.178 185.946 337.133 188.501C331 197.492 337.985 209.276 342.244 214.044L344.8 215.577L347.356 216.598H349.911L352.467 214.044L354.511 212.511H356.556H358.6L360.644 210.979H362.689L364.222 209.446L365.244 208.424L368.822 207.403L373.422 208.424L378.022 209.446H381.089L381.6 207.403L381.089 205.359L379.556 203.316L381.089 201.272H386.711H391.822H393.356L394.378 202.294L397.444 203.316L400 204.848L401.533 205.359L404.089 204.848L406.644 203.316H409.711L413.8 205.359L417.889 204.848L419.933 203.316L421.467 200.251L423 195.653L424.533 193.098L426.067 191.566L428.622 185.435L429.644 182.881L432.2 179.305H433.733H434.756L438.333 185.435L439.867 193.609L440.889 200.251L442.933 203.316L446 206.892L448.556 209.446L451.111 212.001L452.133 214.555L451.111 216.598L450.089 219.664L447.533 220.685V222.729L450.089 225.794L452.133 227.327H454.178L456.733 229.37L459.8 232.435L469 234.99V236.522L469.898 238.055L473.089 239.077H478.2L483.822 240.098L490.467 242.653L496.089 244.696H497.622L500.689 247.251L503.631 249.805H505.289V251.337L505.8 250.316L507.333 249.805L509.889 250.316V248.783H511.422L513.467 251.848L517.044 261.044H519.089L521.133 262.066L523.178 260.022H527.778L532.764 262.066C530.038 265.642 523.36 273.407 518.453 275.859C512.32 278.924 509.764 298.337 503.631 284.544C499.542 298.337 481.653 293.739 479.098 290.674C476.542 287.609 465.809 291.696 469.898 293.739C473.169 295.374 468.535 322.348 465.809 335.631L462.742 332.565L460.25 347.154C460.101 349.528 459.59 351.979 459.164 353.511L460.25 347.154C460.4 344.777 460.186 342.477 459.164 341.25C456.609 338.185 439.742 354.022 429.52 369.859C419.298 385.696 413.675 384.163 408.564 380.076C403.453 375.989 388.12 396.424 386.075 390.294C384.031 384.164 389.653 379.054 367.164 369.859C334.453 419.413 367.164 406.131 377.386 396.424Z" fill="white"/>
<path d="M367.164 418.902C379.431 405.109 387.609 386.718 377.386 396.424C367.164 406.131 334.453 419.413 367.164 369.859C389.653 379.054 384.031 384.164 386.075 390.294C388.12 396.424 403.453 375.989 408.564 380.076C413.675 384.163 419.298 385.696 429.52 369.859C439.742 354.022 456.609 338.185 459.164 341.25C461.209 343.702 460.016 350.446 459.164 353.511L462.742 332.565L465.809 335.631C468.535 322.348 473.169 295.374 469.898 293.739C465.809 291.696 476.542 287.609 479.098 290.674C481.653 293.739 499.542 298.337 503.631 284.544C509.764 298.337 512.32 278.924 518.453 275.859C523.36 273.407 530.038 265.642 532.764 262.066L527.778 260.022H523.178L521.133 262.066L519.089 261.044H517.044L513.467 251.848L511.422 248.783H509.889V250.316L507.333 249.805L505.8 250.316L505.289 251.337V249.805H503.631L500.689 247.251L497.622 244.696H496.089L490.467 242.653L483.822 240.098L478.2 239.077H473.089L469.898 238.055L469 236.522V234.99L459.8 232.435L456.733 229.37L454.178 227.327H452.133L450.089 225.794L447.533 222.729V220.685L450.089 219.664L451.111 216.598L452.133 214.555L451.111 212.001L448.556 209.446L446 206.892L442.933 203.316L440.889 200.251L439.867 193.609L438.333 185.435L434.756 179.305H433.733H432.2L429.644 182.881L428.622 185.435L426.067 191.566L424.533 193.098L423 195.653L421.467 200.251L419.933 203.316L417.889 204.848L413.8 205.359L409.711 203.316H406.644L404.089 204.848L401.533 205.359L400 204.848L397.444 203.316L394.378 202.294L393.356 201.272H391.822H386.711H381.089L379.556 203.316L381.089 205.359L381.6 207.403L381.089 209.446H378.022L373.422 208.424L368.822 207.403L365.244 208.424L364.222 209.446L362.689 210.979H360.644L358.6 212.511H356.556H354.511L352.467 214.044L349.911 216.598H347.356L344.8 215.577L342.244 214.044C337.985 209.276 331 197.492 337.133 188.501C339.178 185.946 344.289 182.37 334.067 177.261C334.067 173.174 335.089 166.022 326.4 169.087C326.4 170.722 326.06 171.812 325.889 172.152V174.707L323.844 175.728L322.822 177.261H320.267H318.733L316.689 179.304L314.644 180.326L309.533 182.37L307.489 181.348L304.933 181.859L304.422 183.391H302.889L301.867 183.902L302.378 185.946V187.478H300.333L298.8 186.457L295.222 184.924H293.689L292.156 184.413V183.391L290.622 184.413L285 183.391L279.378 180.837H278.356L278.867 182.37L282.444 185.946L285 188.5L286.022 197.696L287.556 200.25L289.089 202.804L291.133 203.315L292.156 205.359V206.891L290.622 208.424L289.089 207.913L288.067 208.935L286.022 213.022L285 215.576L282.444 214.554L280.911 215.576L275.8 217.62L274.778 218.131L273.244 220.685L270.689 223.239L269.667 221.707V219.152H267.622L265.578 220.685L263.022 221.707H259.956L256.378 219.152L253.822 217.62H252.289L251.267 212L249.222 205.359H247.178L244.622 206.891L242.578 208.935H241.044L239.511 207.913L238.489 208.935V209.957L239 210.468L235.933 209.957H228.267H224.178L220.089 212L219.578 214.044L220.089 216.598L220.6 217.62L222.644 218.641H224.178L225.711 219.152L227.244 221.707L228.267 223.239V224.261H225.711L221.111 223.75L219.578 224.261L217.533 226.304L217.022 231.413L218.044 233.968L220.6 236.751L222.644 238.565L223.667 241.12L224.689 243.674L225.2 246.228L219.067 280.968L217.022 283.522L215.489 283.011L213.956 281.478L211.911 280.968L203.222 284.544L199.644 285.054L194.022 287.098L186.356 293.228L183.289 296.804L181.244 300.891L180.733 303.446V305.489V309.576L177.667 313.152L175.111 314.685L173.578 316.218L174.6 317.75V318.772L173.578 319.794L172.044 320.304V321.837V322.859L182.778 337.674V340.228L182.267 342.272L181.244 343.804L185.333 344.315H187.378L188.911 345.337L190.444 346.359L191.978 348.913L193 350.957L194.533 351.978L199.133 351.468L207.311 347.381L211.911 344.826V346.359L210.889 349.935L210.378 352.489L210.889 362.707V363.218L217.022 362.707H224.689L231.333 364.239L234.4 364.75L237.978 362.707L240.533 359.641L242.578 359.131H244.622L246.667 357.598L252.289 353.511L255.867 351.468L256.889 349.935L268.644 349.424L271.711 348.402L272.222 349.424L272.733 350.957L272.222 353.511L271.711 357.087L271.2 358.109L273.244 362.707L272.733 364.75L272.222 366.794L273.244 370.881L276.311 375.478H277.844L284.489 381.098L292.667 382.12L296.756 383.141L302.378 387.228L307.489 389.272L309.022 390.294L311.067 392.337L312.6 393.87H316.689L318.733 393.359H321.289L323.333 393.87L325.378 394.381H326.4L326.911 395.913L328.444 396.935L329.467 398.978V401.533L329.978 403.576V405.109L331 407.152L330.489 409.707L329.467 411.239V413.283V414.815L332.022 421.968L332.533 424.522V426.565H335.6L333.556 426.054C334.237 425.544 335.498 424.318 335.089 423.5C334.578 422.478 336.622 421.457 338.156 420.946C339.689 420.435 340.711 416.348 340.711 415.326C340.711 414.304 344.8 419.924 346.333 420.435C347.867 420.946 348.889 417.37 349.4 416.348C349.911 415.326 353.489 419.924 354 418.902C354.511 417.88 356.556 418.902 359.622 419.924C362.076 420.742 365.673 419.584 367.164 418.902Z" stroke="white"/>
</g>
</g>
<defs>
<clipPath id="clip0_13_2014">
<rect width="460" height="470" fill="white" transform="translate(170 165)"/>
</clipPath>
</defs>
</svg>
