<svg width="450" height="460" viewBox="0 0 450 460" fill="none" xmlns="http://www.w3.org/2000/svg">
<g clip-path="url(#clip0_5_5)">
<path d="M289.558 235.641C305.662 236.216 334.531 203.994 334.393 190.382C334.257 176.77 317.166 131.936 312.044 124.294C306.922 116.666 274.139 126.8 274.139 126.8C274.139 126.8 234.852 233.695 289.558 235.641Z" fill="#D3D3D3" stroke="white" stroke-width="1.0404" stroke-linecap="round" stroke-linejoin="round"/>
<path d="M313.276 197.775C315.36 195.036 316.782 190.763 319.74 189.011C321.381 188.038 322.972 184.327 324.011 183.848C326.315 182.834 336.172 158.705 344.717 161.335C345.812 161.677 374.598 164.813 376.87 168.867C379.116 168.361 394.452 160.063 402.699 163.868C411.871 168.114 413.924 184.547 413.899 184.711C414.006 185.039 413.076 190.476 412.914 190.64C411.764 191.64 407.656 189.833 408.694 192.778C410.011 196.529 413.788 203.361 418.664 199.391C414.995 205.965 411.818 215.413 404.698 217.138C398.89 218.549 400.093 230.559 399.52 235.175C399.055 238.925 399.712 243.623 400.534 247.292C401.682 252.251 399.713 255.892 398.726 260.712C397.904 264.874 398.507 269.011 397.739 273.009C397.468 274.295 393.332 278.732 392.18 280.157C390.564 278.731 328.228 242.909 319.08 243.892C320.229 240.154 321.518 234.333 318.339 231.169C309.714 222.597 318.204 211.834 318.177 211.737C317.631 210.012 312.781 205.658 318.151 204.562C314.976 205.521 316.207 200.535 319.026 201.55C316.726 200.733 314.044 200.527 313.276 197.775Z" fill="#D3D3D3" stroke="white" stroke-width="1.0404" stroke-linecap="round" stroke-linejoin="round"/>
<path d="M408.561 191.735C409.082 190.23 411.026 191.01 412.094 190.941C414.367 190.777 412.588 188.203 413.189 187.163C415.215 183.37 410.451 181.164 411.191 176.755C415.215 178.686 420.639 180.152 423.599 183.645C424.942 185.178 429.103 186.301 429.431 188.492C422.609 188.876 422.53 197.311 417.489 200.064C413.545 202.212 407.055 193.721 408.561 191.735Z" fill="#D3D3D3" stroke="white" stroke-width="1.0404" stroke-linecap="round" stroke-linejoin="round"/>
<path d="M373.011 167.238C375.72 166.443 379.229 153.132 381.336 152.132C385.472 150.146 398.591 150.695 399.136 157.035C398.699 156.967 407.325 154.762 406.615 155.569C408.315 154.858 417.133 150.846 419.214 150.749C419.488 150.736 423.817 151.654 422.282 153.064C421.818 153.503 426.501 156.762 433.071 156.514C437.731 156.338 438.25 153.078 441.698 152.105C447.588 150.435 446.435 155.803 447.287 159.048C446.105 161.732 445.641 164.634 444.547 167.333C443.014 171.125 434.743 177.124 431.157 179.452C423.87 184.23 409.355 175.385 408.395 173.782C407.793 172.797 405.845 168.661 405.217 168.675C404.588 169.031 404.177 169.536 403.93 170.194C403.026 170.181 396.674 166.661 396.428 165.539C391.659 164.388 391.003 171.647 387.471 171.729C387.69 171.837 379.227 178.41 379.965 175.043C383.556 170.4 374.241 168.566 373.011 167.238Z" fill="#D3D3D3" stroke="white" stroke-width="1.0404" stroke-linecap="round" stroke-linejoin="round"/>
<path d="M413.953 169.018C417.733 172.331 423.377 174.523 426.5 174.509C429.729 174.496 431.509 171.181 433.921 169.715C435.098 169.003 444.218 167.785 443.095 170.757C441.288 175.605 435.973 179.342 433.071 183.546C430.279 185.546 429.648 190.639 426.717 185.41C423.458 185.834 422.995 180.986 419.76 180.933C416.092 178.672 411.762 177.164 408.559 174.591C410.615 172.646 412.751 171.359 413.953 169.018Z" fill="#D3D3D3" stroke="white" stroke-width="1.0404" stroke-linecap="round" stroke-linejoin="round"/>
<path d="M404.698 138.794C407.081 134.767 411.272 132.671 413.188 127.645C415.161 122.538 417.022 121.827 421.952 123.003C426.993 124.21 431.291 123.84 436.522 124.674C444.056 125.867 443.37 135.642 445.728 141.19C443.809 142.286 431.756 141.711 430.664 139.533C429.623 137.466 427.76 146.64 425.57 146.833C427.102 140.986 412.916 148.613 420.146 138.15C422.691 134.48 413.844 137.342 413.435 138.875C410.121 144.012 407.217 139.15 404.698 138.794Z" fill="#D3D3D3" stroke="white" stroke-width="1.0404" stroke-linecap="round" stroke-linejoin="round"/>
<path d="M372.379 104.408C372.816 103.04 375.34 100.781 373.422 99.3833C385.528 98.0553 391.003 98.5343 401.082 106.106C405.108 109.16 407.904 111.68 411.653 115.253C412.97 116.526 419.267 119.566 419.567 121.417C419.513 121.101 414.171 125.113 413.57 126.634C412.504 129.318 410.911 132.727 409.27 134.932C409.295 134.877 402.367 138.889 405.738 139.149C401.328 142.97 404.723 147.284 404.941 150.666C405.137 153.433 400.561 158.253 398.176 156.088C395.932 154.089 394.178 150.377 390.397 150.994C388.399 151.323 384.921 153.183 382.785 151.473C380.265 149.419 386.454 146.311 382.24 144.119C375.253 140.504 380.976 128.726 375.556 123.88C372.052 120.744 377.309 116.567 375.665 113.131C374.952 111.679 373.694 105.243 372.379 104.408C374.815 105.97 373.035 102.313 372.379 104.408Z" fill="#D3D3D3"/>
<path d="M372.379 104.408C372.816 103.04 375.34 100.781 373.422 99.3833C385.528 98.0553 391.003 98.5343 401.082 106.106C405.108 109.16 407.904 111.68 411.653 115.253C412.97 116.526 419.267 119.566 419.567 121.417C419.513 121.101 414.171 125.113 413.57 126.634C412.504 129.318 410.911 132.727 409.27 134.932C409.295 134.877 402.367 138.889 405.738 139.149C401.328 142.97 404.723 147.284 404.941 150.666C405.137 153.433 400.561 158.253 398.176 156.088C395.932 154.089 394.178 150.377 390.397 150.994C388.399 151.323 384.921 153.183 382.785 151.473C380.265 149.419 386.454 146.311 382.24 144.119C375.253 140.504 380.976 128.726 375.556 123.88C372.052 120.744 377.309 116.567 375.665 113.131C374.952 111.679 373.694 105.243 372.379 104.408ZM372.379 104.408C373.035 102.313 374.815 105.97 372.379 104.408Z" stroke="white" stroke-width="1.0404" stroke-linecap="round" stroke-linejoin="round"/>
<path d="M320.781 185.478C323.246 180.329 313.276 164.677 313.276 164.677C313.276 164.677 360.63 98.8087 367.561 97.8357C367.86 97.7937 373.804 99.6037 374.024 100.055C374.462 100.918 373.203 105.299 373.339 106.642C373.614 109.271 376.218 113.229 375.667 115.326C374.517 120.062 373.804 121.46 377.036 125.227C379.83 128.472 377.361 135.387 379.58 139.496C377.802 143.726 384.348 143.152 383.523 147.109C382.868 150.272 378.099 154.764 382.347 157.421C382.621 162.063 377.662 162.404 375.557 165.239C372.926 168.074 370.022 170.252 367.558 173.127C367.008 173.798 358.737 177.223 357.56 177.209C357.862 176.908 339.895 170.76 345.593 179.563C348.056 183.371 344.088 185.123 342.416 188.341C341.783 190.505 336.58 189.299 334.58 191.546C328.176 198.748 327.409 180.727 320.781 185.478Z" fill="#D3D3D3" stroke="white" stroke-width="1.0404" stroke-linecap="round" stroke-linejoin="round"/>
<path d="M288.845 127.827C292.953 125.101 320.04 78.8416 320.231 77.4316C321.466 77.8286 326.315 84.8666 327.793 82.4566C328.286 82.4696 327.465 84.6066 327.246 84.8526C327.192 84.7176 329.435 82.5666 329.766 82.4166C330.287 82.1836 331.714 84.3196 333.217 81.6906C338.859 83.2656 334.531 96.0006 342.338 93.3846C341.191 93.7686 343.79 94.1246 343.186 95.2896C348.281 88.7026 351.674 95.2626 358.523 96.7806C360.548 97.2466 364.766 97.3556 366.685 96.9876C370.493 96.1646 364.603 103.835 364.603 103.875C363.234 106.861 359.562 105.588 357.785 109.558C357.101 111.107 354.279 113.885 354.743 115.706C355.237 117.487 356.824 118.569 355.017 120.335C355.62 123.128 358.083 127.444 354.632 129.455C350.031 133.838 356.936 136.975 355.948 141.053C355.048 144.779 349.704 146.778 346.801 143.833C341.954 143.723 339.929 147.654 336.395 150.283C333.655 152.324 327.602 152.776 326.068 155.925C324.15 159.854 322.369 164.688 320.727 168.715C319.028 172.919 327.11 187.477 316.399 184.326C315.467 184.053 313.003 179.601 313.003 178.588C312.922 174.849 310.265 174.412 308.182 171.111C308.538 168.086 310.648 164.182 312.948 163.059C316.29 161.429 314.867 156.43 310.482 158.594C306.977 160.32 305.773 155.8 303.524 153.307C304.072 153.897 300.46 148.611 300.378 149.61C300.568 147.72 303.254 143.777 303.719 141.162C304.294 137.903 304.239 134.398 303.198 131.057C302.568 128.989 298.542 126.536 296.68 126.62C295.391 126.907 294.237 126.62 293.253 125.742C290.983 125.675 290.983 128.044 288.845 127.827Z" fill="#D3D3D3" stroke="white" stroke-width="1.0404" stroke-linecap="round" stroke-linejoin="round"/>
<path d="M225.198 39.0887C228.472 40.2537 229.183 37.7737 231.77 37.3487C235.386 36.7457 237.453 40.0737 240.807 39.4157C244.862 38.6357 247.9 31.3907 248.121 27.8177C252.613 24.2837 253.624 16.5597 257.541 13.1377C263.596 17.3957 263.651 28.9257 265.13 35.6227C264.966 35.7057 271.7 43.6207 273.074 44.3047C276.47 45.9617 276.44 50.5077 273.152 53.6447C269.375 57.2317 265.703 87.9197 265.703 87.9197H219.214C219.214 87.9197 220.146 37.5537 219.214 36.4707C221.814 36.4577 223.334 38.4167 225.198 39.0887Z" fill="#D3D3D3" stroke="white" stroke-width="1.0404" stroke-linecap="round" stroke-linejoin="round"/>
<path d="M173.378 50.6191C175.637 53.2491 179.007 46.1411 181.279 46.7991C184.469 47.7171 182.757 45.6911 186.305 45.0471C188.236 45.8531 189.401 45.3201 189.824 43.4161C190.359 42.1561 191.277 41.6901 192.549 42.0321C194.317 40.3481 206.107 45.6351 207.229 42.4161C207.858 40.5951 202.942 36.7071 206.927 35.4191C208.57 34.8861 212.939 36.2271 215.677 35.3511C219.663 34.0631 220.553 38.0351 220.059 41.4171C220.69 45.0041 233.204 47.1831 233.041 49.3871C236.63 47.8691 238.395 62.1501 240.146 63.8341C240.503 68.0941 246.45 72.4191 247.216 76.3781C247.844 79.7741 254.281 79.9941 255.429 76.4731C258.007 68.3401 265.125 66.4511 268.904 59.8221C273.507 51.7841 272.629 63.5741 277.859 60.8891C279.969 61.3001 280.735 64.5181 282.433 65.6131C285.613 67.6401 290.212 66.5871 293.005 68.6261C288.813 73.0081 301.193 72.3781 302.236 72.5011C306.918 73.0761 310.34 74.8841 314.091 76.1301C313.927 76.0611 318.883 76.6501 319.269 77.3751C321.295 81.1421 314.365 96.5891 312.887 98.8611C311.766 100.574 309.955 103.846 309.16 105.695C308.258 107.721 304.396 113.008 304.505 114.924C302.617 115.896 302.257 119.759 299.493 119.252C296.397 122.278 291.306 124.251 289.223 128.208C291.28 128.989 297.548 129.249 294.534 132.48C293.713 133.357 293.44 138.013 292.919 139.313C292.344 140.697 288.455 144.092 286.811 144.653C282.704 146.079 284.075 148.788 282.54 152.308C281.607 154.362 281.994 155.799 284.296 156.647C284.213 159.482 283.308 162.222 281.911 164.645C278.87 169.89 272.902 174.463 271.832 180.915C268.571 184.323 184.766 179.695 184.368 178.271C182.945 173.259 185.876 154.265 181.56 150.391C181.37 148.309 151.667 144.092 150.846 142.31C150.016 140.479 173.173 58.5611 173.378 50.6191ZM319.139 77.6641C319.74 78.7601 319.302 76.9121 319.139 77.6641Z" fill="#D3D3D3" stroke="white" stroke-width="1.0404" stroke-linecap="round" stroke-linejoin="round"/>
<path d="M113.18 24.1068C112.208 21.3538 105.319 18.2178 106.181 15.1228C106.249 14.8908 119.41 21.1758 118.971 17.9308C119.369 19.2598 120.19 19.8198 121.41 19.6158C123.299 18.3148 128.558 23.8198 129.626 21.5048C130.064 20.5458 127.969 17.7518 130.366 17.6568C131.392 18.0948 131.9 17.8208 131.886 16.8348C132.721 15.0828 135.461 17.0538 136.679 16.9178C137.446 15.8618 147.304 13.8918 145.716 11.8238C147.086 12.2618 150.29 12.6318 150.346 10.2768C154.892 8.2228 151.496 5.8678 152.99 3.9228C155.167 1.1028 162.781 4.7318 160.317 9.6608C158.345 13.5908 167.438 13.6878 166.041 19.0268C165.589 20.7128 163.562 21.7508 162.618 22.9978C161.439 24.5438 160.782 32.2408 161.262 34.5278C162.303 39.4168 164.493 43.2228 167.396 46.6878C169.108 48.7148 173.01 48.9488 173.12 51.0568C173.284 54.0018 174.285 57.2338 173.449 60.1488C171.902 65.5728 136.831 90.6198 136.831 90.6198C136.831 90.6198 124.314 37.8838 116.496 36.5568C115.261 36.4168 111.523 25.6818 113.18 24.1068Z" fill="#D3D3D3" stroke="white" stroke-width="1.0404" stroke-linecap="round" stroke-linejoin="round"/>
<path d="M10.0784 136.412C11.2284 131.44 14.3364 126.018 18.2934 123.307C22.7034 120.28 25.9494 117.597 31.3984 117.225C33.5634 117.076 41.6144 111.475 43.3814 114.241C47.0924 120.006 48.3794 110.502 48.9554 107.216C50.6814 97.5488 52.6524 87.8938 53.8154 78.1298C53.4734 76.7738 51.8024 71.8988 50.9824 70.9668C49.5294 69.3508 46.6954 68.8448 46.2144 66.4228C45.9424 64.9708 45.6404 59.1648 47.3234 58.3018C50.8174 56.5338 53.8704 58.2598 57.0604 57.4118C54.4994 53.3588 57.3624 53.0848 51.5284 52.2768C48.0904 51.8108 47.5574 49.8108 48.7904 45.9088C49.8434 42.6088 64.6884 44.9088 67.8784 44.5128C66.3444 44.6908 66.7684 42.0338 67.8364 41.8968C69.1104 41.7318 69.4124 44.5808 71.0014 42.8948C72.2874 41.4998 74.1904 39.9798 75.6014 39.1438C78.0394 37.6938 80.1344 47.3608 80.0664 48.9768C80.0254 49.7568 79.9294 51.4148 81.2434 51.2228C84.2554 50.7568 85.4624 54.0718 88.5164 55.4538C92.2944 57.1668 92.4454 54.0988 95.5394 53.3858C99.8404 52.4008 96.2504 56.7818 97.9224 57.1788C99.5114 57.5638 101.728 52.2098 102.743 51.6068C103.673 51.0738 106.468 50.8538 107.589 50.0048C110.602 47.7598 109.522 48.3188 111.081 48.7988C114.559 49.8398 113.314 40.4318 117.572 41.7328C119.394 41.2668 121.215 39.3928 123.105 39.3098C124.146 39.2668 129.171 41.5968 129.649 42.4568C130.238 43.9218 129.965 45.2518 128.856 46.4428C130.431 47.8678 131.554 49.5918 132.211 51.6048C133.115 54.4668 130.925 58.4118 132.799 60.9038C132.579 67.5588 137.607 68.7908 132.403 73.5008C132.595 73.3228 139.114 80.5678 139.524 81.5398C140.495 80.8288 143.59 82.3888 143.905 83.0748C142.247 79.4458 144.452 65.9848 150.533 72.1598C157.736 79.4868 156.024 68.5448 159.681 63.5328C162.515 59.6578 174.278 60.3968 173.758 66.7788C172.676 70.0518 180.029 81.0348 183.425 78.2148C185.685 83.9518 190.314 82.4998 193.832 86.2658C198.926 91.7298 198.202 89.6618 205.145 89.1138C202.886 92.7158 201.72 93.9218 199.873 97.9738C196.724 104.836 193.723 111.75 190.669 118.652C188.232 124.157 175.826 142.123 179.564 147.094C184.37 153.489 188.903 177.277 190.888 177.028C184.726 176.768 142.809 166.403 139.236 168.923C137.783 169.936 85.6104 179.426 83.3364 179.742C76.9674 180.617 65.2464 172.47 59.6174 169.606C51.0164 165.225 43.0074 160.625 33.5294 158.556C23.2474 156.297 12.8944 153.763 3.65137 148.545C4.12137 145.766 12.4334 144.779 10.0784 136.412Z" fill="#D3D3D3" stroke="white" stroke-width="1.0404" stroke-linecap="round" stroke-linejoin="round"/>
<path d="M3.65597 148.545C16.213 156.089 31.18 156.912 44.738 161.745C57.54 169.81 72.016 174.59 85.354 181.617C82.52 182.822 77.767 185.999 75.371 188.012C72.441 190.462 74.071 190.052 70.743 189.969C67.813 189.9 66.786 194.584 63.54 195.228C60.541 195.831 56.379 193.27 52.545 193.531C50.64 193.667 40.576 193.475 39.905 194.134C40.218 190.492 39.52 186.835 39.74 183.193C39.836 181.754 41.738 176.66 40.985 175.742C34.165 178.891 32.646 182.932 24.252 182.755C22.116 182.713 21.69 180.263 21.171 178.754C19.924 175.182 13.953 175.332 10.612 174.976C16.911 171.566 7.50497 163.076 5.39597 159.297C4.87597 158.379 1.80797 154.642 1.76697 153.34C1.64197 150.174 6.61197 151.968 3.65597 148.545Z" fill="#D3D3D3" stroke="white" stroke-width="1.0404" stroke-linecap="round" stroke-linejoin="round"/>
<path d="M83.3398 180.232C84.2708 178.658 88.6808 175.564 89.6518 175.576C91.0068 175.509 92.3228 175.714 93.6098 176.179C96.6218 177.619 95.6488 175.044 98.9508 176.056C97.6768 173.769 102.744 173.113 101.811 175.741C104.879 175.988 104.536 171.058 108.479 170.621C112.917 170.113 113.533 169.975 115.601 166.087C115.736 165.841 118.229 160.568 118.353 161.062C120.544 154.571 132.938 160.184 133.991 164.417C134.388 166.032 135.825 167.554 137.633 168.786C138.879 169.648 143.96 164.787 143.767 170.1C142.987 171.374 170.43 177.756 173.772 189.382C177.592 202.72 157.351 221.549 155.599 223.425C151.135 224.616 153.56 225.151 148.999 223.575C146.425 222.7 142.577 224.561 139.919 223.864C137.51 223.219 136.878 219.907 134.059 219.181C131.004 218.401 128.636 217.386 126.405 215.251C122.364 211.375 117.422 212.606 111.93 211.443C110.095 211.36 105.877 204.664 104.056 206.116C102.235 205.678 98.6748 197.022 100.659 194.912C100.783 193.242 100.399 191.708 99.4958 190.285C98.5098 187.641 100.537 185.259 100.359 182.479C99.9748 176.398 99.3308 180.493 96.9768 180.576C94.3358 180.686 85.9568 181.671 83.3398 180.232Z" fill="#D3D3D3" stroke="white" stroke-width="1.0404" stroke-linecap="round" stroke-linejoin="round"/>
<path d="M142.237 173.961C146.237 173.645 140.349 167.509 147.237 168.223C155.151 169.031 163.532 168.551 171.516 168.441C173.145 168.428 180.418 169.729 178.911 166.608C177.719 164.155 180.732 160.183 179.336 156.883C181.363 156.019 180.625 153.076 181.965 151.776C183.116 150.653 186.141 159.02 186.401 159.595C187.498 162.046 186.799 165.073 188.333 167.249C189.743 169.236 192.907 169.385 194.222 171.508C197.358 176.644 205.067 175.645 211.352 176.165C231.511 177.821 251.708 178.834 271.838 180.917C268.358 188.68 267.839 195.829 266.716 203.469C266.279 206.441 268.579 210.632 266.66 213.534C268.605 214.821 268.006 216.287 268.084 217.943C269.235 243.072 247.655 278.129 234.536 276.512C223.622 275.143 189.236 276.57 187.608 273.116C186.443 269.172 181.472 270.458 179.213 266.513C176.912 262.462 179.897 260.214 179.95 256.271C172.953 256.874 165.86 255.887 158.848 255.947C159.641 250.931 155.123 246.659 155.919 242.138C156.438 239.113 158.645 239.222 156.851 235.348C155.645 232.759 156.59 231.101 156.152 228.966C155.863 227.581 155.11 227.09 154.028 226.542C151.097 225.049 155.274 224.062 156.084 222.898C157.81 220.433 159.383 211.504 162.629 211.286C163.848 209.287 160.848 207.643 161.164 205.726C157.262 202.138 161.67 201.083 161.533 197.742C161.382 194.115 151.879 193.798 149.277 193.991C147.456 194.128 145.168 194.553 143.389 193.897C143.882 190.376 142.868 187.843 142.854 184.68C142.84 182.394 144.142 179.503 143.689 177.23C143.581 176.617 141.937 174.713 142.237 173.961Z" fill="#D3D3D3" stroke="white" stroke-width="1.0404" stroke-linecap="round" stroke-linejoin="round"/>
<path d="M183.197 294.536C185.333 290.072 186.374 285.142 188.509 280.926C190.221 277.582 184.443 273.339 186.087 271.119C186.114 271.093 188.824 274.76 190.003 274.844C193.207 273.31 194.811 272.572 196.988 269.616C199.603 266.026 207.819 266.602 211.038 269.311C212.297 270.352 214.107 271.418 215.707 271.885C218.87 272.819 221.596 268.872 224.266 271.012C227.99 273.994 228.892 269.15 232.126 267.503C234.071 266.491 230.358 275.968 229.882 275.284C232.345 276.243 234.166 276.185 236.701 276.243C240.205 276.324 238.507 277.448 239.138 279.582C239.604 281.146 268.085 273.585 268.553 280.16C268.855 283.997 267.566 341.973 267.566 341.973C267.566 341.973 228.034 347.506 225.964 347.259C222.075 346.767 222.377 344.028 217.901 346.326C215.873 346.655 211.89 347.531 212.725 343.917C210.712 339.563 212.614 329.292 207.876 326.829C206.67 326.17 200.783 324.469 200.371 324.884C198.672 326.661 196.633 326.446 194.251 326.005C191.347 326.032 188.621 324.391 186.007 324.802C181.829 325.458 185.405 321.816 184.363 321.267C185.295 318.42 185.773 311.355 184.815 309.411C184.65 309.08 181.295 302.179 182.268 301.303C186.305 297.688 182.333 299.415 183.197 294.536Z" fill="#D3D3D3" stroke="white" stroke-width="1.0404" stroke-linecap="round" stroke-linejoin="round"/>
<path d="M237.768 270.518C238.396 267.614 239.603 263.122 242.477 261.752C243.492 260.108 244.231 256.605 244.752 256.166C247.16 253.919 248.641 252.383 251.382 251.51C255.105 250.305 254.72 246.168 256.228 243.345C257.732 240.5 260.964 242.195 262.17 239.963C263.649 237.129 262.911 233.802 264.359 231.089C267.261 225.558 266.221 213.726 273.015 210.522C268.137 218.163 276.713 215.493 280.216 219.971C282.489 221.709 282.38 218.149 282.926 216.916C284.544 213.383 285.804 219.163 287.446 215.383C287.859 215.753 291.582 221.148 290.873 220.984C290.844 220.053 291.199 219.576 291.91 219.546C292.018 220.08 292.184 220.559 292.512 220.998C291.91 220.737 302.209 220.903 301.332 222.532C301.692 221.875 300.73 219.422 301.553 219.094C302.592 218.683 305.524 220.462 307.904 219.532C308.949 219.135 315.793 216.725 315.575 215.849C316.342 216.754 316.837 218.519 318.425 217.135C315.793 219.409 315.849 221.601 319.683 220.956C317.822 222.394 316.837 225.297 317.301 227.503C317.658 229.146 321.053 233.476 320.779 234.254C318.999 234.569 321.381 239.692 318.454 240.332C315.273 241.033 314.481 234.802 314.154 241.02C313.99 242.5 313.057 242.69 311.386 241.596C308.098 241.923 310.837 243.786 310.265 245.484C309.277 248.386 313.057 251.921 307.854 252.248C304.268 252.467 305.172 253.589 305.172 249.509C305.144 244.936 293.118 245.866 294.954 250.03C290.053 256.385 307.004 249.704 304.622 256.385C303.309 260.137 320.452 284.596 315.028 281.801C313.084 280.815 264.224 292.072 265.046 293.906C260.034 291.77 253.242 285.965 247.655 285.744C247.217 283.555 244.037 284.46 242.56 284.211C238.836 283.607 243.6 280.98 242.78 280.102C240.89 278.186 238.398 281.858 239.192 277.09C239.602 274.626 237.055 273.037 237.768 270.518Z" fill="#D3D3D3" stroke="white" stroke-width="1.0404" stroke-linecap="round" stroke-linejoin="round"/>
<path d="M222.225 363.694C224.032 361.556 224.114 358.813 224.649 356.215C224.95 354.762 225.114 348.355 226.018 347.479C228.318 346.795 228.318 344.164 228.744 342.275C229.36 339.537 231.565 339.317 232.728 336.659C237.097 326.749 271.675 327.13 279.204 327.432C283.862 327.625 294.979 361.995 297.12 361.226C295.392 363.416 291.366 370.155 288.71 370.21C284.656 370.267 274.495 384.89 274.495 384.89C274.495 384.89 237.166 372.84 234.208 373.605C230.333 372.156 231.51 367.114 228.154 365.389C226.663 364.623 222.498 367.8 222.225 363.694Z" fill="#D3D3D3" stroke="white" stroke-width="1.0404" stroke-linecap="round" stroke-linejoin="round"/>
<path d="M231.029 383.959C232.698 380.621 230.745 373.443 235.602 373.39C242.233 373.281 249.241 376.949 256.004 377.278C257.321 377.333 261.235 379.441 260.361 376.128C259.266 371.964 264.306 374.265 266.031 372.949C268.305 371.225 274.218 368.843 277.342 371.582C278.765 373.391 297.392 366.187 290.626 375.528C289.258 376.923 291.339 386.317 291.092 386.262C287.643 390.7 292.818 397.928 285.996 401.596C283.095 403.132 278.712 409.375 276.356 411.591C276.085 411.866 233.534 382.918 231.029 383.959Z" fill="#D3D3D3" stroke="white" stroke-width="1.0404" stroke-linecap="round" stroke-linejoin="round"/>
<path d="M191.236 416.881C191.756 414.197 198.616 408.472 200.713 406.53C201.083 406.171 209.312 396.45 209.887 398.201C208.586 394.311 212.668 396.612 213.804 393.382C214.064 392.861 220.844 388.561 220.913 388.587C222.349 388.396 227.634 384.892 228.334 385.33C229.538 383.302 237.261 383.851 236.987 384.506C238.152 384.126 239.271 383.629 240.313 383.027C240.534 382.206 262.772 390.56 264.632 394.558C267.155 399.898 276.849 397.38 277.782 400.121C277.888 400.396 271.973 409.46 273.892 409.294C272.907 409.374 277.096 406.419 277.726 409.703C274.933 413.322 273.126 417.537 271.155 421.647C267.459 429.261 262.283 434.412 255.269 439.067C247.875 443.969 247.93 451.008 242.012 456.76C233.921 464.702 231.853 456.186 237.932 451.008C241.738 447.777 215.405 431.262 212.354 428.276C210.436 426.414 209.97 428.55 208.135 429.426C205.588 430.631 206.218 426.604 204.547 425.153C202.247 423.154 199.754 419.674 196.81 418.473C193.332 417.106 191.195 423.618 187.758 419.294C189.168 418.854 190.332 418.032 191.236 416.881Z" fill="#D3D3D3" stroke="white" stroke-width="1.0404" stroke-linecap="round" stroke-linejoin="round"/>
<path d="M239.3 330.554C242.56 326.198 248.86 325.515 250.831 319.762C252.2 315.82 254.72 310.944 256.966 306.726C258.527 303.769 264.715 299.605 267.483 298.076C267.866 297.88 300.457 291.938 309.717 296.375C329.982 306.099 335.734 330.254 337.571 329.679C341.979 328.254 342.911 333.457 339.677 334.169C337.923 334.582 333.158 335.648 333.187 337.568C333.214 341.016 333.708 339.183 330.256 341.207C328.067 339.787 326.916 345.318 325.493 344.633C321.222 342.389 318.535 347.593 316.235 346.551C311.964 344.633 299.255 359.643 296.597 361.887C296.842 361.669 295.449 360.408 295.01 359.202C294.544 357.833 292.352 359.587 290.985 359.284C289.999 359.092 292.736 355.205 288.682 354.764C287.313 354.6 284.929 355.067 283.753 354.848C280.85 354.301 283.861 352.438 283.314 350.986C282.247 348 280.301 346.055 279.563 343.207C279.043 341.262 279.728 335.676 275.948 335.812C275.1 332.856 269.32 334.361 266.882 333.95C266.72 334.113 258.036 331.266 256.803 331.266C255.187 331.237 250.012 327.87 249.682 330.992C247.982 330.386 239.876 331.21 239.3 330.554Z" fill="#D3D3D3" stroke="white" stroke-width="1.0404" stroke-linecap="round" stroke-linejoin="round"/>
<path d="M262.881 297.305C261.185 292.211 278.412 277.423 281.725 283.884C287.256 276.517 297.611 285.472 301.498 279.94C302.486 278.573 304.513 278.487 305.223 276.983C305.549 276.272 304.73 274.19 305.167 273.095C306.536 269.697 300.294 270.74 305.058 266.492C309.605 262.439 303.141 261.753 303.854 258.306C304.811 253.702 305.661 253.593 309.467 252.279C311.41 251.591 310.373 244.007 309.55 243.759C309.442 241.06 311.524 241.213 313.332 242.142C315.52 242.007 313.056 238.447 314.289 237.899C313.932 238.05 319.848 239.898 320.013 239.954C320.999 240.312 319.493 243.488 319.082 243.897C327.299 241.542 333.596 232.108 342.361 232.655C347.344 232.971 342.034 236.994 347.728 238.199C348.412 239.433 351.068 237.145 351.782 237.01C354.658 236.474 357.312 240.294 359.888 240.896C362.189 244.474 367.391 241.433 370.186 243.897C371.941 245.486 372.374 247.294 373.582 249.21C374.896 251.262 377.442 248.745 379.308 249.101C382.565 249.757 385.634 251.127 388.646 252.824C390.836 254.029 389.414 256.003 388.098 257.397C387.333 258.193 384.839 263.562 385.471 263.04C383.333 264.821 382.843 261.371 382.074 265.804C381.446 269.478 382.238 270.518 385.223 272.819C390.124 276.048 378.458 275.939 378.513 276.323C378.733 276.924 375.667 318.283 374.678 318.502C367.941 320.064 360.165 323.813 352.934 325.514C340.198 328.499 328.639 329.292 323.463 330.17C323.463 331.622 318.096 337.042 314.945 331.429C314.945 331.429 311.904 324.144 312.124 324.2C312.229 324.173 314.262 318.694 314.368 318.063C315.136 314.559 309.326 317.298 308.619 315.875C307.741 314.065 306.261 311.299 306.453 309.247C308.152 308.042 308.125 306.864 306.373 305.685C305.333 304.59 305.168 303.382 305.852 302.013C303.523 300.589 302.787 299.33 300.154 299.551C298.675 299.689 296.099 303.219 294.648 300.18C295.526 302.288 290.46 300.949 289.554 301.74C287.2 300.538 287.775 303.768 287.17 304.809C287.033 305.029 286.156 301.905 286.105 301.848C284.956 300.673 283.338 306.013 282.6 301.793C283.366 297.688 277.943 299.084 274.93 298.863C270.222 298.51 269.4 297.25 265.072 299.494C262.993 300.562 262.336 299.274 262.881 297.305Z" fill="#D3D3D3" stroke="white" stroke-width="1.0404" stroke-linecap="round" stroke-linejoin="round"/>
<path d="M332.886 337.429C331.626 334.661 341.295 332.634 340.776 330.719C337.599 328.855 336.174 331.867 334.146 327.76C338.42 327.074 343.679 323.27 347.977 324.198C348.525 323.979 352.879 322.445 352.937 324.365C355.483 322.799 358.416 321.953 361.042 320.528C363.288 319.322 361.974 312.31 364.767 310.885C370.821 307.762 366.165 312.721 371.833 313.844C377.721 315.049 377.228 315.324 377.474 320.911C377.721 326.553 368.711 325.292 366.411 329.675C365.372 331.674 368.109 335.043 363.043 334.578C358.855 334.165 352.415 336.933 353.758 331.398C352.719 331.318 351.897 331.699 351.294 332.522C351.294 332.522 351.399 335.289 350.554 335.263C349.788 335.207 342.911 336.357 343.105 335.726C344.503 335.367 345.813 335.042 347.24 334.932C345.573 334.219 344.283 333.093 342.339 334.79C342.804 334.985 338.112 334.704 338.96 334.677C338.439 336.404 335.146 335.376 335.081 337.722C336.717 337.908 333.927 342.41 332.886 337.429Z" fill="#D3D3D3" stroke="white" stroke-width="1.0404" stroke-linecap="round" stroke-linejoin="round"/>
<path d="M367.119 308.834C368.163 306.835 366.821 303.383 368.96 302.508C372.657 301.055 372.818 302.041 374.901 298.018C375.668 296.455 378.9 292.211 377.749 290.183C377.31 289.418 374.545 286.57 374.463 286.133C375.503 285.884 376.542 285.914 377.586 286.187C378.952 285.533 371.121 275.668 379.723 278.133C378.519 277.478 378.188 276.768 378.791 275.998C383.149 275.86 392.647 276.025 391.636 282.736C391.059 286.571 392.569 290.815 391.059 294.54C390.841 295.116 385.198 303.494 385.228 303.494C386.213 306.783 380.048 309.302 379.174 311.659C377.861 315.219 377.039 314.672 373.56 314.232C371.92 313.958 370.358 313.464 368.824 312.781C368.819 311.297 369.424 309.055 367.119 308.834Z" fill="#D3D3D3" stroke="white" stroke-width="1.0404" stroke-linecap="round" stroke-linejoin="round"/>
<path d="M401.575 141.096C403.656 138.015 418.366 134.276 420.692 136.48C420.692 138.398 427.951 138.166 430.825 139.192C430.333 142.23 443.477 140.725 445.233 141.451C446.654 142.04 449.066 153.434 446.654 153.653C445.78 152.529 444.571 151.914 443.068 151.818C440.111 151.791 440.522 153.681 438.685 154.926C436.059 156.693 432.114 156.843 429.127 157.035C428.965 158.267 425.184 161.473 423.868 161.951C420.746 163.1 421.211 159.224 418.773 158.349C419.486 157.225 422.855 153.146 422.498 152.144C421.075 148.298 410.447 157.664 407.517 155.65C406.121 154.677 401.299 157.143 404.041 153.062C405.574 150.776 400.398 142.889 401.575 141.096Z" fill="#D3D3D3" stroke="white" stroke-width="1.0404" stroke-linecap="round" stroke-linejoin="round"/>
<path d="M292.461 246.196C292.461 246.196 305.39 243.293 306.649 246.196C307.882 249.099 307.308 256.879 305.225 257.7C303.145 258.549 290.929 255.894 291.202 254.387C291.503 252.852 292.461 246.196 292.461 246.196Z" fill="#C1CE0D" stroke="white" stroke-width="1.0404" stroke-linecap="round" stroke-linejoin="round"/>
<path d="M263.878 414.5C266.878 419.5 271.878 419.5 272.378 418.5L269 426L262.5 433.5L258 437L253.5 440.5L250.5 444L248.5 447L246.5 450.5L244 454L243 455.5L240 458.5L238.5 459L237.5 459.5L236 460L234.5 459V457L235.878 454L237.5 452L238.5 450L237.5 448.5L234.5 445L211.5 428H210L208 429.5H207L206 428L205 426L203.5 424.5L201 422L199.5 420.5L196.5 419H193.5L191 420.5C190.5 420.667 189.4 420.9 189 420.5L187.5 419L190.5 418L192.5 415.5L194.5 412L208 399L210 398.5V397L211.5 395.5L213 394L216 392L221.378 388C225.045 390.167 233.078 395.1 235.878 397.5C239.378 400.5 237.878 403.5 232.378 403.5C229.878 402.5 220.378 405.5 218.378 407C216.778 408.2 217.711 408.5 218.378 408.5C221.378 407.833 228.078 406.3 230.878 405.5C239.678 412.3 251.211 411 255.878 409.5C257.545 409.5 261.478 410.5 263.878 414.5Z" fill="#FFF95D" stroke="white" stroke-width="1"/>
<path d="M193 249C205 235.5 213 217.5 203 227C193 236.5 161 249.5 193 201C215 210 209.5 215.001 211.5 221C213.5 227 228.5 207 233.5 211C238.5 215 244 216.5 254 201C264 185.5 280.5 170 283 173C284 174.2 284.208 176.452 284.062 178.777L286.5 164.5L289.5 167.5C292.167 154.5 296.7 128.1 293.5 126.5C289.5 124.5 300 120.5 302.5 123.5C305 126.5 322.5 131 326.5 117.5C332.5 131 335 112 341 109C345.8 106.6 352.333 99 355 95.5C356.333 96.5 360.6 98.2 367 97C373.4 98.2 364.667 105.5 359.5 109L355 112.5L356.5 128L352.5 132.5L356.5 139.5C355.333 142.333 352.3 147.4 349.5 145C346.7 142.6 344.333 152.333 343.5 157.5C343.5 158.167 343.9 159.1 345.5 157.5C346.7 153.9 348 150.667 348.5 149.5C349.167 148.5 350.6 148 351 154C349.8 157.6 348.833 162.5 348.5 164.5C347.167 168.5 345.3 176.9 348.5 178.5C351.7 180.1 352.5 191.5 352.5 197L359.5 194L355 201C357.833 204.333 363.1 212 361.5 216C359.5 221 357.5 220.5 359.5 227.5C361.1 233.1 358.167 237.167 356.5 238.5C354.833 238 350.9 236.3 348.5 233.5C345.5 230 338.5 235.5 343.5 238.5C347.5 240.9 345.167 245.5 343.5 247.5L349.5 244L352.5 250.5C353.333 250.167 355 248.4 355 244C355 239.6 363 246.5 367 250.5H361.5C363.333 256 367 267.7 367 270.5C367 274 353.5 273.5 351 288C345 293.2 338.167 293.167 335.5 292.5C333.167 297.5 326.9 307.2 320.5 306C314.1 304.8 310.167 312.5 309 316.5V325.5L302.5 316.5C301.5 321.333 298.2 331.2 293 332C286.5 333 290 347.5 283 348C279.855 348.225 278.034 349.932 277.043 351.828L276 356C276 354.904 276.269 353.309 277.043 351.828L279 344C282.167 342.167 286.6 337.2 279 332H261C260.5 330.667 260.6 328 265 328H279C281.5 326.167 286.5 321.9 286.5 319.5C286.5 316.5 300.5 314 295 306C289.5 298 287 290 283 296C279 302 276.5 309 273 306C269.5 303 264 296 270 296C276 296 265 295 265 290.5C265 286.9 270.333 284.667 273 284C273.667 285 275.8 286.9 279 286.5C282.2 286.1 287.333 282.333 289.5 280.5C290.5 278.5 291.9 274.5 289.5 274.5H279C276 274.5 271 282.5 268 280.5C265 278.5 259.5 281.5 259 284C258.5 286.5 262 285 259 290.5C259 296 257.5 303 254 306C250.5 309 252.5 319 239.5 325.5C230.5 325.5 223 312 211.5 328C206.7 328 203.833 326.333 203 325.5C201.166 326.167 196.6 327.1 193 325.5C188.6 325.5 187.167 324.167 187 323.5C187.333 320.833 189 314.4 193 310C198 304.5 190 293 201.5 303C209.5 305.4 212.833 306.667 213.5 307C218.833 303.167 229.9 292.1 231.5 278.5C233.5 261.5 236 256.999 228.5 249C222.5 242.6 202.333 246.333 193 249Z" fill="#EF6034"/>
<path d="M193 249C205 235.5 213 217.5 203 227C193 236.5 161 249.5 193 201C215 210 209.5 215.001 211.5 221C213.5 227 228.5 207 233.5 211C238.5 215 244 216.5 254 201C264 185.5 280.5 170 283 173C285 175.4 283.833 182 283 185L286.5 164.5L289.5 167.5C292.167 154.5 296.7 128.1 293.5 126.5C289.5 124.5 300 120.5 302.5 123.5C305 126.5 322.5 131 326.5 117.5C332.5 131 335 112 341 109C345.8 106.6 352.333 99 355 95.5C356.333 96.5 360.6 98.2 367 97C373.4 98.2 364.667 105.5 359.5 109L355 112.5L356.5 128L352.5 132.5L356.5 139.5C355.333 142.333 352.3 147.4 349.5 145C346.7 142.6 344.333 152.333 343.5 157.5C343.5 158.167 343.9 159.1 345.5 157.5C346.7 153.9 348 150.667 348.5 149.5C349.167 148.5 350.6 148 351 154C349.8 157.6 348.833 162.5 348.5 164.5C347.167 168.5 345.3 176.9 348.5 178.5C351.7 180.1 352.5 191.5 352.5 197L359.5 194L355 201C357.833 204.333 363.1 212 361.5 216C359.5 221 357.5 220.5 359.5 227.5C361.1 233.1 358.167 237.167 356.5 238.5C354.833 238 350.9 236.3 348.5 233.5C345.5 230 338.5 235.5 343.5 238.5C347.5 240.9 345.167 245.5 343.5 247.5L349.5 244L352.5 250.5C353.333 250.167 355 248.4 355 244C355 239.6 363 246.5 367 250.5H361.5C363.333 256 367 267.7 367 270.5C367 274 353.5 273.5 351 288C345 293.2 338.167 293.167 335.5 292.5C333.167 297.5 326.9 307.2 320.5 306C314.1 304.8 310.167 312.5 309 316.5V325.5L302.5 316.5C301.5 321.333 298.2 331.2 293 332C286.5 333 290 347.5 283 348C277.4 348.4 276 353.5 276 356L279 344C282.167 342.167 286.6 337.2 279 332C268.2 332 262.5 332 261 332C260.5 330.667 260.6 328 265 328C269.4 328 276.167 328 279 328C281.5 326.167 286.5 321.9 286.5 319.5C286.5 316.5 300.5 314 295 306C289.5 298 287 290 283 296C279 302 276.5 309 273 306C269.5 303 264 296 270 296C276 296 265 295 265 290.5C265 286.9 270.333 284.667 273 284C273.667 285 275.8 286.9 279 286.5C282.2 286.1 287.333 282.333 289.5 280.5C290.5 278.5 291.9 274.5 289.5 274.5C286.5 274.5 282 274.5 279 274.5C276 274.5 271 282.5 268 280.5C265 278.5 259.5 281.5 259 284C258.5 286.5 262 285 259 290.5C259 296 257.5 303 254 306C250.5 309 252.5 319 239.5 325.5C230.5 325.5 223 312 211.5 328C206.7 328 203.833 326.333 203 325.5C201.166 326.167 196.6 327.1 193 325.5C188.6 325.5 187.167 324.167 187 323.5C187.333 320.833 189 314.4 193 310C198 304.5 190 293 201.5 303C209.5 305.4 212.833 306.667 213.5 307C218.833 303.167 229.9 292.1 231.5 278.5C233.5 261.5 236 256.999 228.5 249C222.5 242.6 202.333 246.333 193 249Z" stroke="white" stroke-width="1"/>
<path d="M186.878 323C187.045 323.667 188.478 325 192.878 325L192 326H190.5L187.5 325H186H184.5L184 323.5L184.5 322V320.5L185 317.5V313.5L184.5 309.5L183 306L182 303L181.5 302L183 301L183.5 300L184.5 299L183.5 298L183 296.5V295L183.5 292.5L185 289.5L186.878 285.5L188.5 282V278.5L186.878 275.5L185.5 273.5L186.5 271.5L183.5 270L180 267.5L178 264.5L179 262V259.5L180 258V256.5H178H175.5H174L172.5 256H170.5H166.5H162L160 255.5C160.667 255 161.9 253.8 161.5 253C161 252 163 251 164.5 250.5C166 250 167 246 167 245C167 244 171 249.5 172.5 250C174 250.5 175 247 175.5 246C176 245 179.5 249.5 180 248.5C180.5 247.499 182.5 248.5 185.5 249.5C187.9 250.301 191.419 249.167 192.878 248.5C202.211 245.833 222.378 242.1 228.378 248.5C235.878 256.499 233.378 261 231.378 278C229.778 291.6 218.711 302.667 213.378 306.5C212.711 306.167 209.378 304.9 201.378 302.5C189.878 292.5 197.878 304 192.878 309.5C188.878 313.9 187.211 320.333 186.878 323Z" fill="#F19325" stroke="white" stroke-width="1"/>
<path d="M366.878 250C362.913 246.035 355.019 239.222 354.88 243.386C354.957 241.012 357.432 236.287 366.878 235.5C378.878 234.5 382.378 224.5 381.378 224.5C380.378 224.5 372.378 220 379.378 218.5C386.378 217 393.378 207.5 401.878 200.5C410.378 193.5 407.378 183 415.378 183.5C423.378 184 432.878 177 436.378 172.5C439.178 168.9 439.211 160.667 438.878 157C441.05 151.351 444.431 139.36 442.917 131.327C442.595 130.277 442.249 129.167 441.878 128C442.35 128.996 442.689 130.116 442.917 131.327C445.022 138.2 446.089 142.554 446.378 144C447.545 146 449.178 150.7 446.378 153.5C447.378 158 447.378 159 446.378 161C445.378 163 444.878 167.5 443.378 169.5C441.878 171.5 431.878 187 428.378 188.5C425.578 189.7 415.211 205.667 410.378 213.5C409.545 214.667 407.078 217.1 403.878 217.5C400.678 217.9 399.878 229.333 399.878 235C399.545 236.833 399.278 242.6 400.878 251C400.078 253.8 398.878 259.167 398.378 261.5L397.378 273L392.378 279.5L391.378 282L391.878 290L391.378 292L384.378 306.5L380.378 310C379.545 311.833 377.878 314.5 376.378 314.5C377.378 316.5 378.878 321.5 375.378 324.5C371.878 327.5 365.878 325 365.878 333.5C355.078 333.9 346.378 335 343.378 335.5L349.378 332.5L342.878 334C342.711 334.167 342.278 334.5 341.878 334.5H338.878C338.711 334.833 338.278 335.5 337.878 335.5C337.478 335.5 335.711 336.167 334.878 336.5L335.878 337.5L334.878 339.5H333.878L332.378 340L330.378 341H329.378H328.878L325.878 344.5L322.878 344L320.878 344.5L317.378 346.5L315.378 346L312.378 347L296 362.5L291.378 369L288.878 370L291.378 371V372.5H291.878L291.378 373.5L289.878 376.5L290.378 380V383L290.878 385.5L289.878 388.5V395L288.878 397.5L287.378 400.5L285.878 401.5L283.378 403.5L281.378 405.5L276.878 410.5L274.378 414.5L272.378 418.5C271.878 419.5 266.878 419.5 263.878 414.5C261.478 410.5 257.545 409.5 255.878 409.5C251.211 411 239.678 412.3 230.878 405.5C228.078 406.3 221.378 407.833 218.378 408.5C217.711 408.5 216.778 408.2 218.378 407C220.378 405.5 229.878 402.5 232.378 403.5C237.878 403.5 239.378 400.5 235.878 397.5C233.078 395.1 225.045 390.167 221.378 388L228.378 384.5L230.878 383L232.878 375.5V372.5L229.378 366.5L226.5 365.5L223.5 366L222.378 364.5L221.878 363L223.378 360.5L224.378 355L225.378 349.5V347.5L224.378 346.5L221.878 345.5H219.378L215.878 346.5L213.878 345.5H213.378L212.378 344L211.378 340L210.878 332.5L209.878 329.5L208.878 327.34C209.643 327.441 210.476 327.5 211.378 327.5C222.878 311.5 230.378 325 239.378 325C252.378 318.5 250.378 308.5 253.878 305.5C257.378 302.5 258.878 295.5 258.878 290C261.878 284.5 258.378 286 258.878 283.5C259.378 281 264.878 278 267.878 280C270.878 282 275.878 274 278.878 274H289.378C291.778 274 290.378 278 289.378 280C287.211 281.833 282.078 285.6 278.878 286C275.678 286.4 273.545 284.5 272.878 283.5C270.211 284.167 264.878 286.4 264.878 290C264.878 294.5 275.878 295.5 269.878 295.5C263.878 295.5 269.378 302.5 272.878 305.5C276.378 308.5 278.878 301.5 282.878 295.5C286.878 289.5 289.378 297.5 294.878 305.5C300.378 313.5 286.378 316 286.378 319C286.378 321.4 281.378 325.667 278.878 327.5H264.878C260.478 327.5 260.378 330.167 260.878 331.5H278.878C286.478 336.7 282.045 341.667 278.878 343.5L276.921 351.328C277.912 349.432 279.733 347.725 282.878 347.5C289.878 347 286.378 332.5 292.878 331.5C298.078 330.7 301.378 320.833 302.378 316L308.878 325V316C310.045 312 313.978 304.3 320.378 305.5C326.778 306.7 333.045 297 335.378 292C338.045 292.667 344.878 292.7 350.878 287.5C353.378 273 366.878 273.5 366.878 270C366.878 267.2 363.211 255.5 361.378 250H366.878Z" fill="#79CF45"/>
<path d="M354.878 243.5C354.878 239.1 362.878 246 366.878 250H361.378C363.211 255.5 366.878 267.2 366.878 270C366.878 273.5 353.378 273 350.878 287.5C344.878 292.7 338.045 292.667 335.378 292C333.045 297 326.778 306.7 320.378 305.5C313.978 304.3 310.045 312 308.878 316V325L302.378 316C301.378 320.833 298.078 330.7 292.878 331.5C286.378 332.5 289.878 347 282.878 347.5C277.278 347.9 275.878 353 275.878 355.5L278.878 343.5C282.045 341.667 286.478 336.7 278.878 331.5C268.078 331.5 262.378 331.5 260.878 331.5C260.378 330.167 260.478 327.5 264.878 327.5C269.278 327.5 276.045 327.5 278.878 327.5C281.378 325.667 286.378 321.4 286.378 319C286.378 316 300.378 313.5 294.878 305.5C289.378 297.5 286.878 289.5 282.878 295.5C278.878 301.5 276.378 308.5 272.878 305.5C269.378 302.5 263.878 295.5 269.878 295.5C275.878 295.5 264.878 294.5 264.878 290C264.878 286.4 270.211 284.167 272.878 283.5C273.545 284.5 275.678 286.4 278.878 286C282.078 285.6 287.211 281.833 289.378 280C290.378 278 291.778 274 289.378 274C286.378 274 281.878 274 278.878 274C275.878 274 270.878 282 267.878 280C264.878 278 259.378 281 258.878 283.5C258.378 286 261.878 284.5 258.878 290C258.878 295.5 257.378 302.5 253.878 305.5C250.378 308.5 252.378 318.5 239.378 325C230.378 325 222.878 311.5 211.378 327.5C210.476 327.5 209.643 327.441 208.878 327.34L209.878 329.5L210.878 332.5L211.378 340L212.378 344L213.378 345.5H213.878L215.878 346.5L219.378 345.5H221.878L224.378 346.5L225.378 347.5V349.5L224.378 355L223.378 360.5L221.878 363L222.378 364.5L223.5 366L226.5 365.5L229.378 366.5L232.878 372.5V375.5L230.878 383L228.378 384.5L221.378 388C225.045 390.167 233.078 395.1 235.878 397.5C239.378 400.5 237.878 403.5 232.378 403.5C229.878 402.5 220.378 405.5 218.378 407C216.778 408.2 217.711 408.5 218.378 408.5C221.378 407.833 228.078 406.3 230.878 405.5C239.678 412.3 251.211 411 255.878 409.5C257.545 409.5 261.478 410.5 263.878 414.5C266.878 419.5 271.878 419.5 272.378 418.5C272.778 417.7 273.878 415.5 274.378 414.5L276.878 410.5L281.378 405.5L283.378 403.5L285.878 401.5L287.378 400.5L288.878 397.5L289.878 395V388.5L290.878 385.5L290.378 383V380L289.878 376.5L291.378 373.5L291.878 372.5H291.378V371L288.878 370L291.378 369L296 362.5L312.378 347L315.378 346L317.378 346.5L320.878 344.5L322.878 344L325.878 344.5L328.878 341H329.378H330.378L332.378 340L333.878 339.5H334.878L335.878 337.5L334.878 336.5C335.711 336.167 337.478 335.5 337.878 335.5C338.278 335.5 338.711 334.833 338.878 334.5C339.711 334.5 341.478 334.5 341.878 334.5C342.278 334.5 342.711 334.167 342.878 334L349.378 332.5L343.378 335.5C346.378 335 355.078 333.9 365.878 333.5C365.878 325 371.878 327.5 375.378 324.5C378.878 321.5 377.378 316.5 376.378 314.5C377.878 314.5 379.545 311.833 380.378 310L384.378 306.5L391.378 292L391.878 290L391.378 282L392.378 279.5L397.378 273L398.378 261.5C398.878 259.167 400.078 253.8 400.878 251C399.278 242.6 399.545 236.833 399.878 235C399.878 229.333 400.678 217.9 403.878 217.5C407.078 217.1 409.545 214.667 410.378 213.5C415.211 205.667 425.578 189.7 428.378 188.5C431.878 187 441.878 171.5 443.378 169.5C444.878 167.5 445.378 163 446.378 161C447.378 159 447.378 158 446.378 153.5C449.178 150.7 447.545 146 446.378 144C446.045 142.333 444.678 136.8 441.878 128C445.478 135.6 441.378 150.5 438.878 157C439.211 160.667 439.178 168.9 436.378 172.5C432.878 177 423.378 184 415.378 183.5C407.378 183 410.378 193.5 401.878 200.5C393.378 207.5 386.378 217 379.378 218.5C372.378 220 380.378 224.5 381.378 224.5C382.378 224.5 378.878 234.5 366.878 235.5C357.278 236.3 354.878 241.167 354.878 243.5Z" stroke="white" stroke-width="1"/>
<path d="M367 97C367.688 97.1289 368.201 97.3283 368.562 97.5857L375 100C376.333 99.3333 379.8 98.2 383 99C387 100 389.5 99 395.5 102.5C400.3 105.3 406.833 110.333 409.5 112.5C410.667 114 413.5 117.2 415.5 118C417.5 118.8 419.333 121 420 122C425.833 121 438.4 120.9 442 128.5C445.6 136.1 441.5 151 439 157.5C439.333 161.167 439.3 169.4 436.5 173C433 177.5 423.5 184.5 415.5 184C407.5 183.5 410.5 194 402 201C393.5 208 386.5 217.5 379.5 219C372.5 220.5 380.5 225 381.5 225C382.5 225 379 235 367 236C357.4 236.8 355 241.667 355 244C355 248.4 353.333 250.167 352.5 250.5L349.5 244L343.5 247.5C345.167 245.5 347.5 240.9 343.5 238.5C338.5 235.5 345.5 230 348.5 233.5C350.9 236.3 354.833 238 356.5 238.5C358.167 237.167 361.1 233.1 359.5 227.5C357.5 220.5 359.5 221 361.5 216C363.1 212 357.833 204.333 355 201L359.5 194L352.5 197C352.5 191.5 351.7 180.1 348.5 178.5C345.3 176.9 347.167 168.5 348.5 164.5C348.833 162.5 349.8 157.6 351 154C350.6 148 349.167 148.5 348.5 149.5C348 150.667 346.7 153.9 345.5 157.5C343.9 159.1 343.5 158.167 343.5 157.5C344.333 152.333 346.7 142.6 349.5 145C352.3 147.4 355.333 142.333 356.5 139.5L352.5 132.5L356.5 128L355 112.5L359.5 109C364.112 105.876 371.565 99.7247 368.562 97.5857L367 97Z" fill="#306ADA"/>
<path d="M367 97C373.4 98.2 364.667 105.5 359.5 109L355 112.5L356.5 128L352.5 132.5L356.5 139.5C355.333 142.333 352.3 147.4 349.5 145C346.7 142.6 344.333 152.333 343.5 157.5C343.5 158.167 343.9 159.1 345.5 157.5C346.7 153.9 348 150.667 348.5 149.5C349.167 148.5 350.6 148 351 154C349.8 157.6 348.833 162.5 348.5 164.5C347.167 168.5 345.3 176.9 348.5 178.5C351.7 180.1 352.5 191.5 352.5 197L359.5 194L355 201C357.833 204.333 363.1 212 361.5 216C359.5 221 357.5 220.5 359.5 227.5C361.1 233.1 358.167 237.167 356.5 238.5C354.833 238 350.9 236.3 348.5 233.5C345.5 230 338.5 235.5 343.5 238.5C347.5 240.9 345.167 245.5 343.5 247.5L349.5 244L352.5 250.5C353.333 250.167 355 248.4 355 244C355 241.667 357.4 236.8 367 236C379 235 382.5 225 381.5 225C380.5 225 372.5 220.5 379.5 219C386.5 217.5 393.5 208 402 201C410.5 194 407.5 183.5 415.5 184C423.5 184.5 433 177.5 436.5 173C439.3 169.4 439.333 161.167 439 157.5C441.5 151 445.6 136.1 442 128.5C438.4 120.9 425.833 121 420 122C419.333 121 417.5 118.8 415.5 118C413.5 117.2 410.667 114 409.5 112.5C406.833 110.333 400.3 105.3 395.5 102.5C389.5 99 387 100 383 99C379.8 98.2 376.333 99.3333 375 100L367 97Z" stroke="white" stroke-width="1"/>
<path d="M202.878 226.5C212.878 217 204.878 235 192.878 248.5C191.419 249.167 187.9 250.301 185.5 249.5C182.5 248.5 180.5 247.499 180 248.5C179.5 249.5 176 245 175.5 246C175 247 174 250.5 172.5 250C171 249.5 167 244 167 245C167 246 166 250 164.5 250.5C163 251 161 252 161.5 253C161.9 253.8 160.667 255 160 255.5L162 256H159V254L158.5 251.5L156 244.5V243V241L157 239.5L157.5 237L156.5 235V233.5L156 231.5V229L155 227L153.5 226L153 224.5H152L150 224L148 223.5H145.5L143.5 224H139.5L138 222.5L136 220.5L134.5 219.5L129.5 217.5L124 213.5L120 212.5L112 211.5L105.5 206H104L101 201.5L100 197.5L100.5 195.5L101 193.5L99 189L99.5 188L100 184.5L100.5 182L100 180.5L99.5 179.5L96.5 180.5L85 181L84 182.5L80.5 184.5L75 188.5L73 190H71L69 190.5L66.5 193.5L63 195.5L60 195L53.5 193.5H46L40 194V193.5L39.5 183.5L40 181L41 177.5V176L36.5 178.5L28.5 182.5L24 183L22.5 182L21.5 180L20 177.5L18.5 176.5L17 175.5H15L11 175L12 173.5L12.5 171.5V169L2 154.5V153.5V152L3.5 151.5L4.5 150.5V149.5L3.5 148L5 146.5L7.5 145L10.5 141.5V137.5V135.5L11 133L13 129L16 125.5L23.5 119.5L29 117.5L32.5 117L41 113.5L43 114L44.5 115.5L46 116L48 113.5L54 79.5L53.5 77L52.5 74.5L51.5 72L49.5 70.2241L47 67.5L46 65L46.5 60L48.5 58L50 57.5L54.5 58H57V57L56 55.5L54.5 53L53 52.5H51.5L49.5 51.5L49 50.5L48.5 48L49 46L53 44H57H64.5L67.5 44.5L67 44V43L68 42L69.5 43H71L73 41L75.5 39.5H77.5L79.5 46L80.5 51.5H82L84.5 53L88 55.5H91L93.5 54.5L95.5 53H97.5V55.5L98.5 57L101 54.5L102.5 52L103.5 51.5L108.5 49.5L110 48.5L112.5 49.5L113.5 47L115.5 43L116.5 42L118 42.5L119.5 41V39.5L118.5 37.5L116.5 37L115 34.5L113.5 32L112.5 23L110 20.5L106.5 17L106 15.5H107L112.5 18L118 19L119.5 18V19L121 19.5H122.5L126 21L127.5 22H129.5V20.5L129 18.5L130 18H131.5L132 16.5L134.5 16L136.5 17L141.5 15L143.5 14L145.5 12.0004H147H149.5L150.5 10.5L152.5 9.5V7C152.667 6.66667 153 5.60007 153 4.00036C161.5 1.00036 160.5 8.00036 160.5 12.0004C170.5 17.0004 165.5 20.5004 163.5 23.0004C157.5 31.8004 164.333 43.3337 168.5 48.0004L171 49.5004L173.5 50.5004H176L178.5 48.0004L180.5 46.5004H182.5H184.5L186.5 45.0004H188.5L190 43.5004L191 42.5004L194.5 41.5004L199 42.5004L203.5 43.5004H206.5L207 41.5004L206.5 39.5004L205 37.5004L206.5 35.5004H212H217H218.5L219.5 36.5004L222.5 37.5004L225 39.0004L226.5 39.5004L229 39.0004L231.5 37.5004H234.5L238.5 39.5004L242.5 39.0004L244.5 37.5004L246 34.5004L247.5 30.0004L249 27.5004L250.5 26.0004L253 20.0004L254 17.5004L256.5 14.0004H258H259L262.5 20.0004L264 28.0004L265 34.5004L267 37.5004L270 41.0004L272.5 43.5004L275 46.0004L276 48.5004L275 50.5004L274 53.5004L271.5 54.5004V56.5004L274 59.5004L276 61.0004H278L280.5 63.0004L283.5 66.0004L292.5 68.5004V70.0004L293.378 71.5004L296.5 72.5004H301.5L307 73.5004L313.5 76.0004L319 78.0004H320.5L323.5 80.5004L326.378 83.0004H328V84.5004L328.5 83.5004L330 83.0004L332.5 83.5004V82.0004H334L336 85.0004L339.5 94.0004H341.5L343.5 95.0004L345.5 93.0004H350L354.878 95.0004C352.211 98.5004 345.678 106.1 340.878 108.5C334.878 111.5 332.378 130.5 326.378 117C322.378 130.5 304.878 126 302.378 123C299.878 120 289.378 124 293.378 126C296.578 127.6 292.045 154 289.378 167L286.378 164L283.94 178.278C283.794 180.602 283.295 183.001 282.878 184.5L283.94 178.278C284.087 175.952 283.878 173.701 282.878 172.5C280.378 169.5 263.878 185 253.878 200.5C243.878 216 238.378 214.5 233.378 210.5C228.378 206.5 213.378 226.5 211.378 220.5C209.378 214.501 214.878 209.5 192.878 200.5C160.878 249 192.878 236 202.878 226.5Z" fill="#00A040"/>
<path d="M192.878 248.5C204.878 235 212.878 217 202.878 226.5C192.878 236 160.878 249 192.878 200.5C214.878 209.5 209.378 214.501 211.378 220.5C213.378 226.5 228.378 206.5 233.378 210.5C238.378 214.5 243.878 216 253.878 200.5C263.878 185 280.378 169.5 282.878 172.5C284.878 174.9 283.711 181.5 282.878 184.5L286.378 164L289.378 167C292.045 154 296.578 127.6 293.378 126C289.378 124 299.878 120 302.378 123C304.878 126 322.378 130.5 326.378 117C332.378 130.5 334.878 111.5 340.878 108.5C345.678 106.1 352.211 98.5004 354.878 95.0004L350 93.0004H345.5L343.5 95.0004L341.5 94.0004H339.5L336 85.0004L334 82.0004H332.5V83.5004L330 83.0004L328.5 83.5004L328 84.5004V83.0004H326.378L323.5 80.5004L320.5 78.0004H319L313.5 76.0004L307 73.5004L301.5 72.5004H296.5L293.378 71.5004L292.5 70.0004V68.5004L283.5 66.0004L280.5 63.0004L278 61.0004H276L274 59.5004L271.5 56.5004V54.5004L274 53.5004L275 50.5004L276 48.5004L275 46.0004L272.5 43.5004L270 41.0004L267 37.5004L265 34.5004L264 28.0004L262.5 20.0004L259 14.0004H258H256.5L254 17.5004L253 20.0004L250.5 26.0004L249 27.5004L247.5 30.0004L246 34.5004L244.5 37.5004L242.5 39.0004L238.5 39.5004L234.5 37.5004H231.5L229 39.0004L226.5 39.5004L225 39.0004L222.5 37.5004L219.5 36.5004L218.5 35.5004H217H212H206.5L205 37.5004L206.5 39.5004L207 41.5004L206.5 43.5004H203.5L199 42.5004L194.5 41.5004L191 42.5004L190 43.5004L188.5 45.0004H186.5L184.5 46.5004H182.5H180.5L178.5 48.0004L176 50.5004H173.5L171 49.5004L168.5 48.0004C164.333 43.3337 157.5 31.8004 163.5 23.0004C165.5 20.5004 170.5 17.0004 160.5 12.0004C160.5 8.00036 161.5 1.00036 153 4.00036C153 5.60007 152.667 6.66667 152.5 7V9.5L150.5 10.5L149.5 12.0004H147H145.5L143.5 14L141.5 15L136.5 17L134.5 16L132 16.5L131.5 18H130L129 18.5L129.5 20.5V22H127.5L126 21L122.5 19.5H121L119.5 19V18L118 19L112.5 18L107 15.5H106L106.5 17L110 20.5L112.5 23L113.5 32L115 34.5L116.5 37L118.5 37.5L119.5 39.5V41L118 42.5L116.5 42L115.5 43L113.5 47L112.5 49.5L110 48.5L108.5 49.5L103.5 51.5L102.5 52L101 54.5L98.5 57L97.5 55.5V53H95.5L93.5 54.5L91 55.5H88L84.5 53L82 51.5H80.5L79.5 46L77.5 39.5H75.5L73 41L71 43H69.5L68 42L67 43V44L67.5 44.5L64.5 44H57H53L49 46L48.5 48L49 50.5L49.5 51.5L51.5 52.5H53L54.5 53L56 55.5L57 57V58H54.5L50 57.5L48.5 58L46.5 60L46 65L47 67.5L49.5 70.2241L51.5 72L52.5 74.5L53.5 77L54 79.5L48 113.5L46 116L44.5 115.5L43 114L41 113.5L32.5 117L29 117.5L23.5 119.5L16 125.5L13 129L11 133L10.5 135.5V137.5V141.5L7.5 145L5 146.5L3.5 148L4.5 149.5V150.5L3.5 151.5L2 152V153.5V154.5L12.5 169V171.5L12 173.5L11 175L15 175.5H17L18.5 176.5L20 177.5L21.5 180L22.5 182L24 183L28.5 182.5L36.5 178.5L41 176V177.5L40 181L39.5 183.5L40 193.5V194L46 193.5H53.5L60 195L63 195.5L66.5 193.5L69 190.5L71 190H73L75 188.5L80.5 184.5L84 182.5L85 181L96.5 180.5L99.5 179.5L100 180.5L100.5 182L100 184.5L99.5 188L99 189L101 193.5L100.5 195.5L100 197.5L101 201.5L104 206H105.5L112 211.5L120 212.5L124 213.5L129.5 217.5L134.5 219.5L136 220.5L138 222.5L139.5 224H143.5L145.5 223.5H148L150 224L152 224.5H153L153.5 226L155 227L156 229V231.5L156.5 233.5V235L157.5 237L157 239.5L156 241V243V244.5L158.5 251.5L159 254V256H162L160 255.5C160.667 255 161.9 253.8 161.5 253C161 252 163 251 164.5 250.5C166 250 167 246 167 245C167 244 171 249.5 172.5 250C174 250.5 175 247 175.5 246C176 245 179.5 249.5 180 248.5C180.5 247.499 182.5 248.5 185.5 249.5C187.9 250.301 191.419 249.167 192.878 248.5Z" stroke="white" stroke-width="1"/>
<path d="M433.797 133.597C440.034 133.597 445.057 138.648 445.057 144.858C445.057 151.084 440.035 156.12 433.797 156.12C427.589 156.12 422.54 151.084 422.54 144.858C422.54 138.647 427.589 133.597 433.797 133.597Z" fill="black"/>
<path d="M417.324 182.854C423.538 182.854 428.59 187.889 428.59 194.116C428.59 200.324 423.538 205.377 417.324 205.377C411.086 205.377 406.066 200.324 406.066 194.116C406.063 187.89 411.084 182.854 417.324 182.854Z" fill="black"/>
<path d="M381.917 284.723C388.127 284.723 393.178 289.778 393.178 295.985C393.178 302.197 388.127 307.246 381.917 307.246C375.705 307.246 370.654 302.197 370.654 295.985C370.654 289.777 375.705 284.723 381.917 284.723Z" fill="black"/>
<path d="M300.735 238.34C306.947 238.34 311.995 243.375 311.995 249.598C311.995 255.808 306.947 260.861 300.735 260.861C294.526 260.861 289.474 255.808 289.474 249.598C289.475 243.377 294.523 238.34 300.735 238.34Z" fill="black"/>
<path d="M430.827 107.798C437.068 107.798 442.088 112.837 442.088 119.059C442.088 125.283 437.068 130.32 430.827 130.32C424.618 130.32 419.567 125.283 419.567 119.059C419.567 112.837 424.618 107.798 430.827 107.798Z" fill="black"/>
<path d="M436.422 168.763C442.658 168.763 447.68 173.817 447.68 180.041C447.68 186.248 442.66 191.3 436.422 191.3C430.181 191.3 425.159 186.248 425.159 180.041C425.159 173.816 430.181 168.763 436.422 168.763Z" fill="black"/>
<path d="M355.094 318.613C361.303 318.613 366.357 323.634 366.357 329.872C366.357 336.08 361.301 341.136 355.094 341.136C348.883 341.136 343.831 336.082 343.831 329.872C343.831 323.634 348.883 318.613 355.094 318.613Z" fill="black"/>
<path d="M319.332 117.976H320.594L323.559 125.22H323.662L326.628 117.976H327.889V126.703H326.9V120.072H326.815L324.088 126.703H323.133L320.406 120.072H320.321V126.703H319.332V117.976ZM330.366 126.703H329.258L332.463 117.976H333.553L336.758 126.703H335.65L333.042 119.357H332.974L330.366 126.703ZM330.775 123.294H335.241V124.232H330.775V123.294Z" fill="black"/>
<path d="M232.088 414.466V405.739H235.037C235.719 405.739 236.278 405.855 236.716 406.088C237.153 406.318 237.477 406.635 237.688 407.038C237.898 407.442 238.003 407.9 238.003 408.415C238.003 408.929 237.898 409.385 237.688 409.783C237.477 410.18 237.155 410.493 236.72 410.72C236.286 410.945 235.73 411.057 235.054 411.057H232.668V410.102H235.02C235.486 410.102 235.861 410.034 236.145 409.898C236.432 409.761 236.639 409.568 236.767 409.318C236.898 409.065 236.963 408.764 236.963 408.415C236.963 408.065 236.898 407.76 236.767 407.498C236.636 407.237 236.428 407.035 236.141 406.893C235.854 406.748 235.474 406.676 235.003 406.676H233.145V414.466H232.088ZM236.196 410.545L238.344 414.466H237.116L235.003 410.545H236.196ZM244.537 407.92C244.485 407.489 244.278 407.153 243.914 406.915C243.551 406.676 243.105 406.557 242.576 406.557C242.19 406.557 241.852 406.619 241.562 406.744C241.275 406.869 241.051 407.041 240.889 407.26C240.73 407.479 240.65 407.727 240.65 408.006C240.65 408.239 240.706 408.439 240.816 408.606C240.93 408.771 241.075 408.909 241.251 409.02C241.427 409.128 241.612 409.217 241.805 409.288C241.998 409.356 242.176 409.412 242.338 409.454L243.224 409.693C243.451 409.753 243.704 409.835 243.983 409.94C244.264 410.045 244.532 410.189 244.788 410.371C245.047 410.55 245.26 410.78 245.427 411.061C245.595 411.342 245.679 411.687 245.679 412.097C245.679 412.568 245.555 412.994 245.308 413.375C245.064 413.756 244.706 414.058 244.234 414.283C243.765 414.507 243.196 414.619 242.525 414.619C241.9 414.619 241.359 414.518 240.902 414.317C240.447 414.115 240.089 413.834 239.828 413.473C239.569 413.112 239.423 412.693 239.389 412.216H240.48C240.508 412.545 240.619 412.818 240.812 413.034C241.008 413.247 241.255 413.406 241.554 413.511C241.855 413.614 242.179 413.665 242.525 413.665C242.929 413.665 243.291 413.599 243.612 413.469C243.933 413.335 244.187 413.15 244.375 412.915C244.562 412.676 244.656 412.398 244.656 412.079C244.656 411.79 244.575 411.554 244.413 411.372C244.251 411.19 244.038 411.043 243.774 410.929C243.51 410.815 243.224 410.716 242.917 410.631L241.843 410.324C241.162 410.128 240.622 409.848 240.224 409.484C239.826 409.121 239.627 408.645 239.627 408.057C239.627 407.568 239.76 407.142 240.024 406.778C240.291 406.412 240.649 406.128 241.098 405.926C241.549 405.722 242.054 405.619 242.61 405.619C243.173 405.619 243.673 405.72 244.11 405.922C244.548 406.121 244.895 406.393 245.15 406.74C245.409 407.087 245.545 407.48 245.559 407.92H244.537Z" fill="black"/>
<path d="M49.1169 184.936H48.009L51.2135 176.208H52.3044L55.509 184.936H54.401L51.7931 177.589H51.7249L49.1169 184.936ZM49.526 181.526H53.9919V182.464H49.526V181.526ZM63.4809 178.936H62.4241C62.3616 178.632 62.2522 178.365 62.096 178.134C61.9426 177.904 61.7551 177.711 61.5335 177.555C61.3147 177.396 61.0718 177.276 60.8048 177.197C60.5377 177.117 60.2593 177.078 59.9695 177.078C59.4411 177.078 58.9624 177.211 58.5335 177.478C58.1073 177.745 57.7678 178.139 57.515 178.659C57.265 179.178 57.14 179.816 57.14 180.572C57.14 181.328 57.265 181.965 57.515 182.485C57.7678 183.005 58.1073 183.399 58.5335 183.666C58.9624 183.933 59.4411 184.066 59.9695 184.066C60.2593 184.066 60.5377 184.026 60.8048 183.947C61.0718 183.867 61.3147 183.749 61.5335 183.593C61.7551 183.434 61.9426 183.24 62.096 183.009C62.2522 182.776 62.3616 182.509 62.4241 182.208H63.4809C63.4014 182.654 63.2565 183.053 63.0463 183.406C62.836 183.758 62.5747 184.058 62.2622 184.305C61.9497 184.549 61.5988 184.735 61.2096 184.863C60.8232 184.991 60.4099 185.055 59.9695 185.055C59.2252 185.055 58.5633 184.873 57.9838 184.509C57.4042 184.146 56.9482 183.629 56.6159 182.958C56.2835 182.288 56.1173 181.492 56.1173 180.572C56.1173 179.651 56.2835 178.856 56.6159 178.186C56.9482 177.515 57.4042 176.998 57.9838 176.634C58.5633 176.271 59.2252 176.089 59.9695 176.089C60.4099 176.089 60.8232 176.153 61.2096 176.281C61.5988 176.409 61.9497 176.596 62.2622 176.843C62.5747 177.088 62.836 177.386 63.0463 177.738C63.2565 178.088 63.4014 178.487 63.4809 178.936Z" fill="black"/>
<path d="M356.184 158.104V149.377H359.133C359.817 149.377 360.377 149.501 360.812 149.748C361.249 149.992 361.573 150.323 361.783 150.741C361.993 151.158 362.099 151.624 362.099 152.139C362.099 152.653 361.993 153.12 361.783 153.541C361.576 153.961 361.255 154.296 360.82 154.546C360.385 154.793 359.829 154.917 359.15 154.917H357.036V153.979H359.116C359.584 153.979 359.961 153.899 360.245 153.737C360.529 153.575 360.735 153.356 360.863 153.08C360.993 152.802 361.059 152.488 361.059 152.139C361.059 151.789 360.993 151.477 360.863 151.201C360.735 150.926 360.528 150.71 360.241 150.553C359.954 150.394 359.573 150.315 359.099 150.315H357.241V158.104H356.184ZM364.858 149.377V158.104H363.801V149.377H364.858Z" fill="black"/>
<path d="M394.917 123.034H393.861C393.798 122.73 393.689 122.463 393.532 122.233C393.379 122.003 393.192 121.81 392.97 121.653C392.751 121.494 392.508 121.375 392.241 121.296C391.974 121.216 391.696 121.176 391.406 121.176C390.878 121.176 390.399 121.31 389.97 121.577C389.544 121.844 389.204 122.237 388.952 122.757C388.702 123.277 388.577 123.915 388.577 124.671C388.577 125.426 388.702 126.064 388.952 126.584C389.204 127.104 389.544 127.497 389.97 127.764C390.399 128.031 390.878 128.165 391.406 128.165C391.696 128.165 391.974 128.125 392.241 128.046C392.508 127.966 392.751 127.848 392.97 127.692C393.192 127.533 393.379 127.338 393.532 127.108C393.689 126.875 393.798 126.608 393.861 126.307H394.917C394.838 126.753 394.693 127.152 394.483 127.504C394.273 127.857 394.011 128.156 393.699 128.403C393.386 128.648 393.035 128.834 392.646 128.962C392.26 129.09 391.846 129.153 391.406 129.153C390.662 129.153 390 128.972 389.42 128.608C388.841 128.244 388.385 127.727 388.052 127.057C387.72 126.386 387.554 125.591 387.554 124.671C387.554 123.75 387.72 122.955 388.052 122.284C388.385 121.614 388.841 121.097 389.42 120.733C390 120.369 390.662 120.188 391.406 120.188C391.846 120.188 392.26 120.252 392.646 120.379C393.035 120.507 393.386 120.695 393.699 120.942C394.011 121.186 394.273 121.484 394.483 121.837C394.693 122.186 394.838 122.585 394.917 123.034ZM396.625 129.034V120.307H401.892V121.244H397.682V124.193H401.619V125.131H397.682V128.097H401.96V129.034H396.625Z" fill="black"/>
<path d="M273.934 248.213C273.84 247.926 273.717 247.669 273.563 247.442C273.413 247.211 273.232 247.015 273.022 246.854C272.815 246.692 272.579 246.568 272.315 246.483C272.05 246.398 271.761 246.355 271.445 246.355C270.928 246.355 270.458 246.488 270.035 246.756C269.611 247.023 269.275 247.416 269.025 247.936C268.775 248.456 268.65 249.094 268.65 249.849C268.65 250.605 268.776 251.243 269.029 251.763C269.282 252.282 269.624 252.676 270.056 252.943C270.488 253.21 270.974 253.344 271.513 253.344C272.013 253.344 272.454 253.237 272.834 253.024C273.218 252.808 273.516 252.504 273.729 252.112C273.945 251.717 274.053 251.253 274.053 250.719L274.377 250.787H271.752V249.849H275.076V250.787C275.076 251.506 274.922 252.131 274.616 252.662C274.312 253.193 273.891 253.605 273.354 253.898C272.82 254.187 272.207 254.332 271.513 254.332C270.741 254.332 270.062 254.15 269.476 253.787C268.894 253.423 268.44 252.906 268.113 252.236C267.789 251.565 267.627 250.77 267.627 249.849C267.627 249.159 267.719 248.538 267.904 247.987C268.092 247.433 268.356 246.961 268.697 246.572C269.038 246.183 269.441 245.885 269.907 245.677C270.373 245.47 270.886 245.366 271.445 245.366C271.905 245.366 272.334 245.436 272.732 245.575C273.133 245.711 273.489 245.906 273.802 246.159C274.117 246.409 274.38 246.709 274.59 247.058C274.8 247.405 274.945 247.79 275.025 248.213H273.934ZM284.25 249.849C284.25 250.77 284.083 251.565 283.751 252.236C283.419 252.906 282.963 253.423 282.383 253.787C281.804 254.15 281.142 254.332 280.397 254.332C279.653 254.332 278.991 254.15 278.411 253.787C277.832 253.423 277.376 252.906 277.044 252.236C276.711 251.565 276.545 250.77 276.545 249.849C276.545 248.929 276.711 248.133 277.044 247.463C277.376 246.792 277.832 246.275 278.411 245.912C278.991 245.548 279.653 245.366 280.397 245.366C281.142 245.366 281.804 245.548 282.383 245.912C282.963 246.275 283.419 246.792 283.751 247.463C284.083 248.133 284.25 248.929 284.25 249.849ZM283.227 249.849C283.227 249.094 283.1 248.456 282.848 247.936C282.598 247.416 282.258 247.023 281.829 246.756C281.403 246.488 280.926 246.355 280.397 246.355C279.869 246.355 279.39 246.488 278.961 246.756C278.535 247.023 278.196 247.416 277.943 247.936C277.693 248.456 277.568 249.094 277.568 249.849C277.568 250.605 277.693 251.243 277.943 251.763C278.196 252.282 278.535 252.676 278.961 252.943C279.39 253.21 279.869 253.344 280.397 253.344C280.926 253.344 281.403 253.21 281.829 252.943C282.258 252.676 282.598 252.282 282.848 251.763C283.1 251.243 283.227 250.605 283.227 249.849Z" fill="black"/>
<path d="M201.081 209.69H202.343L205.309 216.934H205.411L208.377 209.69H209.638V218.417H208.649V211.786H208.564L205.837 218.417H204.882L202.155 211.786H202.07V218.417H201.081V209.69ZM211.28 210.627V209.69H217.825V210.627H215.081V218.417H214.024V210.627H211.28Z" fill="black"/>
<path d="M431.204 183.895H430.096L433.3 175.167H434.391L437.596 183.895H436.488L433.88 176.548H433.812L431.204 183.895ZM431.613 180.485H436.079V181.423H431.613V180.485ZM438.955 183.895V175.167H440.012V182.957H444.069V183.895H438.955Z" fill="white"/>
<path d="M214.35 297.996H215.611L218.577 305.241H218.679L221.645 297.996H222.907V306.724H221.918V300.093H221.833L219.105 306.724H218.151L215.424 300.093H215.338V306.724H214.35V297.996ZM229.798 300.178C229.747 299.746 229.54 299.411 229.176 299.172C228.813 298.934 228.366 298.815 227.838 298.815C227.452 298.815 227.114 298.877 226.824 299.002C226.537 299.127 226.313 299.299 226.151 299.518C225.991 299.736 225.912 299.985 225.912 300.263C225.912 300.496 225.967 300.697 226.078 300.864C226.192 301.029 226.337 301.167 226.513 301.278C226.689 301.386 226.874 301.475 227.067 301.546C227.26 301.614 227.438 301.67 227.599 301.712L228.486 301.951C228.713 302.011 228.966 302.093 229.244 302.198C229.526 302.303 229.794 302.447 230.05 302.628C230.308 302.807 230.521 303.038 230.689 303.319C230.857 303.6 230.94 303.945 230.94 304.354C230.94 304.826 230.817 305.252 230.57 305.633C230.325 306.013 229.967 306.316 229.496 306.54C229.027 306.765 228.457 306.877 227.787 306.877C227.162 306.877 226.621 306.776 226.163 306.574C225.709 306.373 225.351 306.092 225.089 305.731C224.831 305.37 224.685 304.951 224.651 304.474H225.741C225.77 304.803 225.881 305.076 226.074 305.292C226.27 305.505 226.517 305.664 226.815 305.769C227.116 305.871 227.44 305.922 227.787 305.922C228.19 305.922 228.553 305.857 228.874 305.726C229.195 305.593 229.449 305.408 229.636 305.172C229.824 304.934 229.918 304.655 229.918 304.337C229.918 304.047 229.837 303.812 229.675 303.63C229.513 303.448 229.3 303.3 229.036 303.187C228.771 303.073 228.486 302.974 228.179 302.888L227.105 302.582C226.423 302.386 225.884 302.106 225.486 301.742C225.088 301.378 224.889 300.903 224.889 300.315C224.889 299.826 225.021 299.4 225.286 299.036C225.553 298.67 225.911 298.386 226.359 298.184C226.811 297.979 227.315 297.877 227.872 297.877C228.435 297.877 228.935 297.978 229.372 298.18C229.81 298.378 230.156 298.651 230.412 298.998C230.67 299.344 230.807 299.738 230.821 300.178H229.798Z" fill="black"/>
<path d="M99.5554 119.059H98.4474L101.652 110.331H102.743L105.947 119.059H104.839L102.232 111.712H102.163L99.5554 119.059ZM99.9645 115.65H104.43V116.587H99.9645V115.65ZM107.307 110.331H108.568L111.534 117.576H111.636L114.602 110.331H115.864V119.059H114.875V112.428H114.79L112.062 119.059H111.108L108.381 112.428H108.295V119.059H107.307V110.331Z" fill="black"/>
<path d="M249.502 356.104V347.377H252.451C253.136 347.377 253.695 347.5 254.13 347.747C254.567 347.992 254.891 348.323 255.102 348.74C255.312 349.158 255.417 349.624 255.417 350.138C255.417 350.652 255.312 351.12 255.102 351.54C254.894 351.961 254.573 352.296 254.138 352.546C253.704 352.793 253.147 352.917 252.468 352.917H250.354V351.979H252.434C252.903 351.979 253.279 351.898 253.563 351.736C253.847 351.574 254.053 351.355 254.181 351.08C254.312 350.801 254.377 350.488 254.377 350.138C254.377 349.789 254.312 349.476 254.181 349.201C254.053 348.925 253.846 348.709 253.559 348.553C253.272 348.394 252.891 348.314 252.417 348.314H250.559V356.104H249.502ZM257.119 356.104V347.377H260.068C260.75 347.377 261.31 347.493 261.747 347.726C262.185 347.956 262.509 348.273 262.719 348.676C262.929 349.08 263.034 349.539 263.034 350.053C263.034 350.567 262.929 351.023 262.719 351.421C262.509 351.818 262.186 352.131 261.751 352.358C261.317 352.583 260.761 352.695 260.085 352.695H257.699V351.74H260.051C260.517 351.74 260.892 351.672 261.176 351.536C261.463 351.399 261.67 351.206 261.798 350.956C261.929 350.703 261.994 350.402 261.994 350.053C261.994 349.703 261.929 349.398 261.798 349.137C261.668 348.875 261.459 348.674 261.172 348.532C260.885 348.387 260.506 348.314 260.034 348.314H258.176V356.104H257.119ZM261.227 352.184L263.375 356.104H262.148L260.034 352.184H261.227Z" fill="black"/>
<path d="M402.455 165.801V157.074H405.404C406.089 157.074 406.648 157.197 407.083 157.444C407.521 157.689 407.844 158.02 408.055 158.437C408.265 158.855 408.37 159.321 408.37 159.835C408.37 160.349 408.265 160.816 408.055 161.237C407.847 161.657 407.526 161.993 407.092 162.243C406.657 162.49 406.1 162.613 405.421 162.613H403.308V161.676H405.387C405.856 161.676 406.232 161.595 406.516 161.433C406.8 161.271 407.006 161.052 407.134 160.777C407.265 160.498 407.33 160.184 407.33 159.835C407.33 159.485 407.265 159.173 407.134 158.897C407.006 158.622 406.799 158.406 406.512 158.25C406.225 158.091 405.844 158.011 405.37 158.011H403.512V165.801H402.455ZM410.072 165.801V157.074H415.339V158.011H411.129V160.96H415.067V161.897H411.129V164.863H415.408V165.801H410.072Z" fill="black"/>
<path d="M247.317 52.6094H246.209L249.414 43.8821H250.505L253.709 52.6094H252.601L249.993 45.2628H249.925L247.317 52.6094ZM247.726 49.2003H252.192V50.1378H247.726V49.2003ZM255.069 52.6094V43.8821H258.017C258.702 43.8821 259.262 44.0057 259.696 44.2528C260.134 44.4972 260.458 44.8281 260.668 45.2457C260.878 45.6634 260.983 46.1293 260.983 46.6435C260.983 47.1577 260.878 47.625 260.668 48.0455C260.461 48.4659 260.14 48.8011 259.705 49.0511C259.27 49.2983 258.713 49.4219 258.034 49.4219H255.921V48.4844H258C258.469 48.4844 258.846 48.4034 259.13 48.2415C259.414 48.0795 259.62 47.8608 259.748 47.5852C259.878 47.3068 259.944 46.9929 259.944 46.6435C259.944 46.294 259.878 45.9815 259.748 45.706C259.62 45.4304 259.412 45.2145 259.125 45.0582C258.838 44.8991 258.458 44.8196 257.983 44.8196H256.125V52.6094H255.069Z" fill="black"/>
<path d="M233.829 122.514V113.786H236.778C237.463 113.786 238.022 113.91 238.457 114.157C238.895 114.401 239.218 114.732 239.429 115.15C239.639 115.568 239.744 116.034 239.744 116.548C239.744 117.062 239.639 117.529 239.429 117.95C239.221 118.37 238.9 118.705 238.466 118.955C238.031 119.203 237.474 119.326 236.795 119.326H234.682V118.389H236.761C237.23 118.389 237.606 118.308 237.89 118.146C238.174 117.984 238.38 117.765 238.508 117.49C238.639 117.211 238.704 116.897 238.704 116.548C238.704 116.198 238.639 115.886 238.508 115.61C238.38 115.335 238.173 115.119 237.886 114.963C237.599 114.803 237.218 114.724 236.744 114.724H234.886V122.514H233.829ZM240.914 122.514H239.806L243.01 113.786H244.101L247.306 122.514H246.198L243.59 115.167H243.522L240.914 122.514ZM241.323 119.105H245.789V120.042H241.323V119.105Z" fill="black"/>
<path d="M360.789 210.122V201.395H363.84C364.448 201.395 364.95 201.5 365.345 201.71C365.74 201.918 366.034 202.197 366.227 202.55C366.42 202.899 366.517 203.287 366.517 203.713C366.517 204.088 366.45 204.398 366.316 204.642C366.186 204.886 366.012 205.079 365.796 205.222C365.583 205.364 365.352 205.469 365.102 205.537V205.622C365.369 205.639 365.637 205.733 365.907 205.903C366.177 206.074 366.403 206.318 366.585 206.636C366.767 206.954 366.857 207.344 366.857 207.804C366.857 208.241 366.758 208.635 366.559 208.984C366.36 209.334 366.046 209.611 365.617 209.815C365.188 210.02 364.63 210.122 363.943 210.122H360.789ZM361.846 209.185H363.943C364.633 209.185 365.123 209.051 365.413 208.784C365.705 208.514 365.852 208.187 365.852 207.804C365.852 207.508 365.776 207.236 365.626 206.986C365.475 206.733 365.261 206.531 364.982 206.381C364.704 206.227 364.374 206.15 363.994 206.15H361.846V209.185ZM361.846 205.23H363.806C364.124 205.23 364.411 205.168 364.667 205.043C364.926 204.918 365.13 204.741 365.281 204.514C365.434 204.287 365.511 204.02 365.511 203.713C365.511 203.329 365.377 203.004 365.11 202.737C364.843 202.467 364.42 202.332 363.84 202.332H361.846V205.23ZM368.952 210.122H367.844L371.048 201.395H372.139L375.344 210.122H374.236L371.628 202.775H371.56L368.952 210.122ZM369.361 206.713H373.827V207.65H369.361V206.713Z" fill="black"/>
<path d="M423.598 123.9V115.173H426.547C427.229 115.173 427.788 115.29 428.226 115.523C428.663 115.753 428.987 116.069 429.197 116.473C429.407 116.876 429.513 117.335 429.513 117.849C429.513 118.363 429.407 118.819 429.197 119.217C428.987 119.615 428.665 119.927 428.23 120.155C427.795 120.379 427.24 120.491 426.564 120.491H424.177V119.537H426.53C426.996 119.537 427.371 119.469 427.655 119.332C427.942 119.196 428.149 119.003 428.277 118.753C428.407 118.5 428.473 118.199 428.473 117.849C428.473 117.5 428.407 117.194 428.277 116.933C428.146 116.672 427.937 116.47 427.65 116.328C427.363 116.183 426.984 116.111 426.513 116.111H424.655V123.9H423.598ZM427.706 119.98L429.854 123.9H428.626L426.513 119.98H427.706ZM438.194 115.173V123.9H437.171L432.416 117.048H432.33V123.9H431.274V115.173H432.296L437.069 122.042H437.154V115.173H438.194Z" fill="white"/>
<path d="M119.187 195.319V186.592H122.136C122.817 186.592 123.377 186.709 123.815 186.941C124.252 187.172 124.576 187.488 124.786 187.892C124.996 188.295 125.101 188.754 125.101 189.268C125.101 189.782 124.996 190.238 124.786 190.636C124.576 191.034 124.253 191.346 123.819 191.574C123.384 191.798 122.829 191.91 122.153 191.91H119.766V190.956H122.119C122.584 190.956 122.959 190.888 123.244 190.751C123.53 190.615 123.738 190.422 123.866 190.172C123.996 189.919 124.062 189.618 124.062 189.268C124.062 188.919 123.996 188.613 123.866 188.352C123.735 188.091 123.526 187.889 123.239 187.747C122.952 187.602 122.573 187.53 122.101 187.53H120.244V195.319H119.187ZM123.295 191.399L125.442 195.319H124.215L122.101 191.399H123.295ZM134.226 190.956C134.226 191.876 134.06 192.672 133.728 193.342C133.395 194.013 132.939 194.53 132.36 194.893C131.78 195.257 131.118 195.439 130.374 195.439C129.63 195.439 128.968 195.257 128.388 194.893C127.809 194.53 127.353 194.013 127.02 193.342C126.688 192.672 126.522 191.876 126.522 190.956C126.522 190.035 126.688 189.24 127.02 188.569C127.353 187.899 127.809 187.382 128.388 187.018C128.968 186.655 129.63 186.473 130.374 186.473C131.118 186.473 131.78 186.655 132.36 187.018C132.939 187.382 133.395 187.899 133.728 188.569C134.06 189.24 134.226 190.035 134.226 190.956ZM133.203 190.956C133.203 190.2 133.077 189.562 132.824 189.042C132.574 188.522 132.235 188.129 131.806 187.862C131.38 187.595 130.902 187.461 130.374 187.461C129.845 187.461 129.367 187.595 128.938 187.862C128.512 188.129 128.172 188.522 127.919 189.042C127.669 189.562 127.544 190.2 127.544 190.956C127.544 191.711 127.669 192.349 127.919 192.869C128.172 193.389 128.512 193.782 128.938 194.049C129.367 194.316 129.845 194.45 130.374 194.45C130.902 194.45 131.38 194.316 131.806 194.049C132.235 193.782 132.574 193.389 132.824 192.869C133.077 192.349 133.203 191.711 133.203 190.956Z" fill="black"/>
<path d="M287.593 180.531V179.593H294.139V180.531H291.394V188.32H290.338V180.531H287.593ZM302.77 183.957C302.77 184.877 302.604 185.673 302.271 186.343C301.939 187.013 301.483 187.531 300.904 187.894C300.324 188.258 299.662 188.44 298.918 188.44C298.173 188.44 297.512 188.258 296.932 187.894C296.352 187.531 295.896 187.013 295.564 186.343C295.232 185.673 295.066 184.877 295.066 183.957C295.066 183.036 295.232 182.241 295.564 181.57C295.896 180.9 296.352 180.383 296.932 180.019C297.512 179.656 298.173 179.474 298.918 179.474C299.662 179.474 300.324 179.656 300.904 180.019C301.483 180.383 301.939 180.9 302.271 181.57C302.604 182.241 302.77 183.036 302.77 183.957ZM301.747 183.957C301.747 183.201 301.621 182.563 301.368 182.043C301.118 181.523 300.779 181.13 300.35 180.863C299.923 180.596 299.446 180.462 298.918 180.462C298.389 180.462 297.911 180.596 297.482 180.863C297.056 181.13 296.716 181.523 296.463 182.043C296.213 182.563 296.088 183.201 296.088 183.957C296.088 184.712 296.213 185.35 296.463 185.87C296.716 186.39 297.056 186.783 297.482 187.05C297.911 187.317 298.389 187.451 298.918 187.451C299.446 187.451 299.923 187.317 300.35 187.05C300.779 186.783 301.118 186.39 301.368 185.87C301.621 185.35 301.747 184.712 301.747 183.957Z" fill="black"/>
<path d="M137.351 42.3857V33.6585H140.3C140.981 33.6585 141.541 33.7749 141.979 34.0079C142.416 34.238 142.74 34.5548 142.95 34.9582C143.16 35.3616 143.266 35.8204 143.266 36.3346C143.266 36.8488 143.16 37.3048 142.95 37.7025C142.74 38.1002 142.418 38.4127 141.983 38.64C141.548 38.8644 140.993 38.9767 140.317 38.9767H137.93V38.0221H140.283C140.748 38.0221 141.123 37.9539 141.408 37.8176C141.695 37.6812 141.902 37.488 142.03 37.238C142.16 36.9852 142.226 36.684 142.226 36.3346C142.226 35.9852 142.16 35.6798 142.03 35.4184C141.899 35.157 141.69 34.9553 141.403 34.8133C141.116 34.6684 140.737 34.596 140.266 34.596H138.408V42.3857H137.351ZM141.459 38.4653L143.606 42.3857H142.379L140.266 38.4653H141.459ZM145.027 42.3857V33.6585H147.975C148.657 33.6585 149.217 33.7749 149.654 34.0079C150.092 34.238 150.416 34.5548 150.626 34.9582C150.836 35.3616 150.941 35.8204 150.941 36.3346C150.941 36.8488 150.836 37.3048 150.626 37.7025C150.416 38.1002 150.093 38.4127 149.659 38.64C149.224 38.8644 148.669 38.9767 147.992 38.9767H145.606V38.0221H147.958C148.424 38.0221 148.799 37.9539 149.083 37.8176C149.37 37.6812 149.578 37.488 149.706 37.238C149.836 36.9852 149.902 36.684 149.902 36.3346C149.902 35.9852 149.836 35.6798 149.706 35.4184C149.575 35.157 149.366 34.9553 149.079 34.8133C148.792 34.6684 148.413 34.596 147.941 34.596H146.083V42.3857H145.027ZM149.134 38.4653L151.282 42.3857H150.055L147.941 38.4653H149.134Z" fill="black"/>
<path d="M272.741 381.219C272.69 380.787 272.482 380.452 272.119 380.213C271.755 379.974 271.309 379.855 270.78 379.855C270.394 379.855 270.056 379.918 269.766 380.043C269.479 380.168 269.255 380.339 269.093 380.558C268.934 380.777 268.854 381.026 268.854 381.304C268.854 381.537 268.91 381.737 269.021 381.905C269.134 382.07 269.279 382.207 269.455 382.318C269.631 382.426 269.816 382.516 270.009 382.587C270.202 382.655 270.38 382.71 270.542 382.753L271.428 382.991C271.655 383.051 271.908 383.133 272.187 383.239C272.468 383.344 272.736 383.487 272.992 383.669C273.251 383.848 273.464 384.078 273.631 384.359C273.799 384.641 273.883 384.986 273.883 385.395C273.883 385.866 273.759 386.293 273.512 386.673C273.268 387.054 272.91 387.356 272.438 387.581C271.969 387.805 271.4 387.918 270.729 387.918C270.104 387.918 269.563 387.817 269.106 387.615C268.651 387.413 268.293 387.132 268.032 386.771C267.773 386.41 267.627 385.991 267.593 385.514H268.684C268.712 385.844 268.823 386.116 269.016 386.332C269.212 386.545 269.459 386.705 269.758 386.81C270.059 386.912 270.383 386.963 270.729 386.963C271.133 386.963 271.495 386.898 271.816 386.767C272.137 386.633 272.391 386.449 272.579 386.213C272.766 385.974 272.86 385.696 272.86 385.378C272.86 385.088 272.779 384.852 272.617 384.67C272.455 384.489 272.242 384.341 271.978 384.227C271.714 384.114 271.428 384.014 271.121 383.929L270.047 383.622C269.366 383.426 268.826 383.146 268.428 382.783C268.03 382.419 267.832 381.943 267.832 381.355C267.832 380.866 267.964 380.44 268.228 380.077C268.495 379.71 268.853 379.426 269.302 379.224C269.753 379.02 270.258 378.918 270.815 378.918C271.377 378.918 271.877 379.018 272.315 379.22C272.752 379.419 273.099 379.692 273.354 380.038C273.613 380.385 273.749 380.778 273.763 381.219H272.741ZM282.643 381.764H281.586C281.524 381.46 281.414 381.193 281.258 380.963C281.105 380.733 280.917 380.54 280.696 380.383C280.477 380.224 280.234 380.105 279.967 380.026C279.7 379.946 279.421 379.906 279.132 379.906C278.603 379.906 278.125 380.04 277.696 380.307C277.269 380.574 276.93 380.967 276.677 381.487C276.427 382.007 276.302 382.645 276.302 383.401C276.302 384.156 276.427 384.794 276.677 385.314C276.93 385.834 277.269 386.227 277.696 386.494C278.125 386.761 278.603 386.895 279.132 386.895C279.421 386.895 279.7 386.855 279.967 386.776C280.234 386.696 280.477 386.578 280.696 386.422C280.917 386.263 281.105 386.068 281.258 385.838C281.414 385.605 281.524 385.338 281.586 385.037H282.643C282.563 385.483 282.419 385.882 282.208 386.234C281.998 386.587 281.737 386.886 281.424 387.133C281.112 387.378 280.761 387.564 280.372 387.692C279.985 387.82 279.572 387.883 279.132 387.883C278.387 387.883 277.725 387.702 277.146 387.338C276.566 386.974 276.11 386.457 275.778 385.787C275.446 385.116 275.279 384.321 275.279 383.401C275.279 382.48 275.446 381.685 275.778 381.014C276.11 380.344 276.566 379.827 277.146 379.463C277.725 379.099 278.387 378.918 279.132 378.918C279.572 378.918 279.985 378.981 280.372 379.109C280.761 379.237 281.112 379.425 281.424 379.672C281.737 379.916 281.998 380.214 282.208 380.567C282.419 380.916 282.563 381.315 282.643 381.764Z" fill="black"/>
<path d="M414.742 192.123C414.691 191.692 414.483 191.356 414.119 191.118C413.756 190.879 413.31 190.76 412.781 190.76C412.395 190.76 412.057 190.822 411.767 190.947C411.48 191.072 411.256 191.244 411.094 191.463C410.935 191.682 410.855 191.93 410.855 192.209C410.855 192.442 410.911 192.642 411.021 192.81C411.135 192.974 411.28 193.112 411.456 193.223C411.632 193.331 411.817 193.42 412.01 193.491C412.203 193.56 412.381 193.615 412.543 193.658L413.429 193.896C413.656 193.956 413.909 194.038 414.188 194.143C414.469 194.248 414.737 194.392 414.993 194.574C415.252 194.753 415.465 194.983 415.632 195.264C415.8 195.545 415.884 195.891 415.884 196.3C415.884 196.771 415.76 197.197 415.513 197.578C415.269 197.959 414.911 198.261 414.439 198.486C413.97 198.71 413.401 198.822 412.73 198.822C412.105 198.822 411.564 198.722 411.107 198.52C410.652 198.318 410.294 198.037 410.033 197.676C409.774 197.315 409.628 196.896 409.594 196.419H410.685C410.713 196.748 410.824 197.021 411.017 197.237C411.213 197.45 411.46 197.609 411.759 197.714C412.06 197.817 412.384 197.868 412.73 197.868C413.134 197.868 413.496 197.802 413.817 197.672C414.138 197.538 414.392 197.354 414.58 197.118C414.767 196.879 414.861 196.601 414.861 196.283C414.861 195.993 414.78 195.757 414.618 195.575C414.456 195.393 414.243 195.246 413.979 195.132C413.715 195.018 413.429 194.919 413.122 194.834L412.048 194.527C411.367 194.331 410.827 194.051 410.429 193.687C410.031 193.324 409.833 192.848 409.833 192.26C409.833 191.771 409.965 191.345 410.229 190.981C410.496 190.615 410.854 190.331 411.303 190.129C411.754 189.925 412.259 189.822 412.816 189.822C413.378 189.822 413.878 189.923 414.316 190.125C414.753 190.324 415.1 190.597 415.355 190.943C415.614 191.29 415.75 191.683 415.764 192.123H414.742ZM417.621 198.669V189.942H422.888V190.879H418.678V193.828H422.616V194.766H418.678V197.731H422.956V198.669H417.621Z" fill="white"/>
<path d="M286.511 320.774C286.46 320.342 286.253 320.007 285.889 319.768C285.525 319.53 285.079 319.41 284.551 319.41C284.165 319.41 283.827 319.473 283.537 319.598C283.25 319.723 283.025 319.895 282.863 320.113C282.704 320.332 282.625 320.581 282.625 320.859C282.625 321.092 282.68 321.292 282.791 321.46C282.905 321.625 283.05 321.763 283.226 321.873C283.402 321.981 283.586 322.071 283.78 322.142C283.973 322.21 284.15 322.265 284.312 322.308L285.199 322.547C285.426 322.606 285.679 322.689 285.957 322.794C286.238 322.899 286.507 323.042 286.763 323.224C287.021 323.403 287.234 323.633 287.402 323.915C287.569 324.196 287.653 324.541 287.653 324.95C287.653 325.422 287.53 325.848 287.282 326.228C287.038 326.609 286.68 326.912 286.209 327.136C285.74 327.361 285.17 327.473 284.5 327.473C283.875 327.473 283.334 327.372 282.876 327.17C282.422 326.968 282.064 326.687 281.802 326.326C281.544 325.966 281.398 325.547 281.363 325.069H282.454C282.483 325.399 282.594 325.672 282.787 325.888C282.983 326.101 283.23 326.26 283.528 326.365C283.829 326.467 284.153 326.518 284.5 326.518C284.903 326.518 285.265 326.453 285.586 326.322C285.907 326.189 286.162 326.004 286.349 325.768C286.537 325.53 286.631 325.251 286.631 324.933C286.631 324.643 286.55 324.407 286.388 324.226C286.226 324.044 286.013 323.896 285.748 323.782C285.484 323.669 285.199 323.569 284.892 323.484L283.818 323.177C283.136 322.981 282.596 322.701 282.199 322.338C281.801 321.974 281.602 321.498 281.602 320.91C281.602 320.422 281.734 319.995 281.998 319.632C282.265 319.265 282.623 318.981 283.072 318.78C283.524 318.575 284.028 318.473 284.585 318.473C285.148 318.473 285.648 318.574 286.085 318.775C286.523 318.974 286.869 319.247 287.125 319.593C287.383 319.94 287.52 320.334 287.534 320.774H286.511ZM289.391 327.319V318.592H292.34C293.024 318.592 293.584 318.716 294.019 318.963C294.456 319.207 294.78 319.538 294.99 319.956C295.2 320.373 295.306 320.839 295.306 321.353C295.306 321.868 295.2 322.335 294.99 322.755C294.783 323.176 294.462 323.511 294.027 323.761C293.593 324.008 293.036 324.132 292.357 324.132H290.243V323.194H292.323C292.791 323.194 293.168 323.113 293.452 322.951C293.736 322.79 293.942 322.571 294.07 322.295C294.2 322.017 294.266 321.703 294.266 321.353C294.266 321.004 294.2 320.691 294.07 320.416C293.942 320.14 293.735 319.924 293.448 319.768C293.161 319.609 292.78 319.53 292.306 319.53H290.448V327.319H289.391Z" fill="black"/>
<path d="M329.463 277.728H330.724L333.69 284.973H333.793L336.759 277.728H338.02V286.456H337.031V279.825H336.946L334.219 286.456H333.264L330.537 279.825H330.452V286.456H329.463V277.728ZM346.105 280.456C346.011 280.169 345.887 279.912 345.734 279.684C345.583 279.454 345.403 279.258 345.193 279.096C344.985 278.934 344.75 278.811 344.485 278.725C344.221 278.64 343.931 278.598 343.616 278.598C343.099 278.598 342.629 278.731 342.206 278.998C341.782 279.265 341.446 279.659 341.196 280.179C340.946 280.698 340.821 281.336 340.821 282.092C340.821 282.848 340.947 283.485 341.2 284.005C341.453 284.525 341.795 284.919 342.227 285.186C342.659 285.453 343.145 285.586 343.684 285.586C344.184 285.586 344.625 285.48 345.005 285.267C345.389 285.051 345.687 284.747 345.9 284.355C346.116 283.96 346.224 283.495 346.224 282.961L346.548 283.029H343.923V282.092H347.247V283.029C347.247 283.748 347.093 284.373 346.787 284.904C346.483 285.436 346.062 285.848 345.525 286.14C344.991 286.43 344.377 286.575 343.684 286.575C342.912 286.575 342.233 286.393 341.647 286.029C341.065 285.666 340.61 285.149 340.284 284.478C339.96 283.808 339.798 283.012 339.798 282.092C339.798 281.402 339.89 280.781 340.075 280.23C340.262 279.676 340.527 279.204 340.868 278.815C341.208 278.426 341.612 278.127 342.078 277.92C342.544 277.713 343.056 277.609 343.616 277.609C344.076 277.609 344.505 277.679 344.903 277.818C345.304 277.954 345.66 278.149 345.973 278.402C346.288 278.652 346.551 278.951 346.761 279.301C346.971 279.647 347.116 280.032 347.196 280.456H346.105Z" fill="black"/>
<path d="M296.164 254.214H293.471V245.487H296.283C297.13 245.487 297.854 245.661 298.457 246.011C299.059 246.357 299.521 246.856 299.842 247.506C300.163 248.154 300.323 248.93 300.323 249.833C300.323 250.742 300.161 251.525 299.837 252.181C299.513 252.835 299.042 253.337 298.423 253.69C297.803 254.039 297.05 254.214 296.164 254.214ZM294.528 253.276H296.096C296.817 253.276 297.415 253.137 297.89 252.859C298.364 252.58 298.718 252.184 298.951 251.67C299.184 251.156 299.3 250.543 299.3 249.833C299.3 249.129 299.185 248.522 298.955 248.014C298.725 247.502 298.381 247.11 297.924 246.837C297.467 246.562 296.897 246.424 296.215 246.424H294.528V253.276ZM302.096 254.214V245.487H307.329V246.424H303.153V249.373H306.937V250.31H303.153V254.214H302.096Z" fill="white"/>
<path d="M374.362 300.497V291.77H379.629V292.707H375.418V295.656H379.356V296.594H375.418V299.56H379.697V300.497H374.362ZM386.306 293.952C386.255 293.52 386.048 293.185 385.684 292.946C385.32 292.707 384.874 292.588 384.346 292.588C383.96 292.588 383.621 292.65 383.332 292.775C383.045 292.9 382.82 293.072 382.658 293.291C382.499 293.51 382.42 293.758 382.42 294.037C382.42 294.27 382.475 294.47 382.586 294.638C382.7 294.802 382.844 294.94 383.021 295.051C383.197 295.159 383.381 295.248 383.575 295.32C383.768 295.388 383.945 295.443 384.107 295.486L384.994 295.724C385.221 295.784 385.474 295.866 385.752 295.972C386.033 296.077 386.302 296.22 386.558 296.402C386.816 296.581 387.029 296.811 387.197 297.092C387.364 297.373 387.448 297.719 387.448 298.128C387.448 298.599 387.325 299.025 387.077 299.406C386.833 299.787 386.475 300.089 386.004 300.314C385.535 300.538 384.965 300.65 384.295 300.65C383.67 300.65 383.129 300.55 382.671 300.348C382.217 300.146 381.859 299.865 381.597 299.504C381.339 299.143 381.192 298.724 381.158 298.247H382.249C382.278 298.577 382.388 298.849 382.582 299.065C382.778 299.278 383.025 299.437 383.323 299.543C383.624 299.645 383.948 299.696 384.295 299.696C384.698 299.696 385.06 299.631 385.381 299.5C385.702 299.366 385.957 299.182 386.144 298.946C386.332 298.707 386.425 298.429 386.425 298.111C386.425 297.821 386.344 297.585 386.183 297.403C386.021 297.222 385.808 297.074 385.543 296.96C385.279 296.847 384.994 296.747 384.687 296.662L383.613 296.355C382.931 296.159 382.391 295.879 381.994 295.516C381.596 295.152 381.397 294.676 381.397 294.088C381.397 293.599 381.529 293.173 381.793 292.81C382.06 292.443 382.418 292.159 382.867 291.957C383.319 291.753 383.823 291.65 384.38 291.65C384.942 291.65 385.442 291.751 385.88 291.953C386.317 292.152 386.664 292.425 386.92 292.771C387.178 293.118 387.315 293.511 387.329 293.952H386.306Z" fill="white"/>
<path d="M348.522 334.68V325.953H351.471C352.152 325.953 352.712 326.069 353.15 326.302C353.587 326.532 353.911 326.849 354.121 327.253C354.331 327.656 354.436 328.115 354.436 328.629C354.436 329.143 354.331 329.599 354.121 329.997C353.911 330.395 353.588 330.707 353.154 330.934C352.719 331.159 352.164 331.271 351.488 331.271H349.101V330.317H351.453C351.919 330.317 352.294 330.248 352.578 330.112C352.865 329.976 353.073 329.782 353.201 329.532C353.331 329.28 353.397 328.978 353.397 328.629C353.397 328.28 353.331 327.974 353.201 327.713C353.07 327.451 352.861 327.25 352.574 327.108C352.287 326.963 351.908 326.89 351.436 326.89H349.578V334.68H348.522ZM352.63 330.76L354.777 334.68H353.55L351.436 330.76H352.63ZM359.538 325.953H360.595V332.192C360.595 332.748 360.493 333.221 360.288 333.611C360.084 334 359.795 334.295 359.423 334.497C359.051 334.699 358.612 334.799 358.107 334.799C357.629 334.799 357.205 334.713 356.832 334.54C356.46 334.363 356.168 334.113 355.955 333.79C355.741 333.466 355.635 333.081 355.635 332.635H356.675C356.675 332.882 356.736 333.098 356.858 333.282C356.983 333.464 357.153 333.606 357.369 333.709C357.585 333.811 357.831 333.862 358.107 333.862C358.411 333.862 358.669 333.798 358.882 333.67C359.095 333.542 359.257 333.355 359.368 333.108C359.482 332.858 359.538 332.552 359.538 332.192V325.953Z" fill="white"/>
<path d="M426.27 148.989V140.262H429.219C429.903 140.262 430.463 140.386 430.898 140.633C431.335 140.877 431.659 141.208 431.869 141.626C432.079 142.043 432.184 142.509 432.184 143.023C432.184 143.538 432.079 144.005 431.869 144.425C431.662 144.846 431.341 145.181 430.906 145.431C430.471 145.678 429.915 145.802 429.236 145.802H427.122V144.864H429.202C429.67 144.864 430.047 144.783 430.331 144.621C430.615 144.459 430.821 144.241 430.949 143.965C431.079 143.687 431.145 143.373 431.145 143.023C431.145 142.674 431.079 142.361 430.949 142.086C430.821 141.81 430.613 141.594 430.327 141.438C430.04 141.279 429.659 141.199 429.184 141.199H427.327V148.989H426.27ZM433.887 148.989V140.262H436.938C437.546 140.262 438.047 140.367 438.442 140.577C438.837 140.785 439.131 141.065 439.324 141.417C439.518 141.766 439.614 142.154 439.614 142.58C439.614 142.955 439.547 143.265 439.414 143.509C439.283 143.753 439.11 143.947 438.894 144.089C438.681 144.231 438.449 144.336 438.199 144.404V144.489C438.466 144.506 438.735 144.6 439.005 144.771C439.275 144.941 439.501 145.185 439.682 145.503C439.864 145.822 439.955 146.211 439.955 146.671C439.955 147.109 439.856 147.502 439.657 147.851C439.458 148.201 439.144 148.478 438.715 148.682C438.286 148.887 437.728 148.989 437.04 148.989H433.887ZM434.944 148.052H437.04C437.731 148.052 438.221 147.918 438.51 147.651C438.803 147.381 438.949 147.055 438.949 146.671C438.949 146.376 438.874 146.103 438.724 145.853C438.573 145.6 438.358 145.398 438.08 145.248C437.802 145.094 437.472 145.018 437.091 145.018H434.944V148.052ZM434.944 144.097H436.904C437.222 144.097 437.509 144.035 437.765 143.91C438.023 143.785 438.228 143.609 438.378 143.381C438.532 143.154 438.608 142.887 438.608 142.58C438.608 142.197 438.475 141.871 438.208 141.604C437.941 141.334 437.518 141.199 436.938 141.199H434.944V144.097Z" fill="white"/>
</g>
<defs>
<clipPath id="clip0_5_5">
<rect width="450" height="460" fill="white"/>
</clipPath>
</defs>
</svg>
