<svg xmlns="http://www.w3.org/2000/svg" width="1996" height="2000" viewBox="0 0 1996 2000" version="1.1"><path d="M 527.500 527.060 C 494.274 527.460, 473.759 528.098, 470.679 528.826 C 464.673 530.246, 456.316 534.367, 452.945 537.572 C 451.540 538.907, 449.928 540, 449.362 540 C 448.182 540, 441 546.948, 441 548.090 C 441 548.506, 439.890 550.166, 438.533 551.778 C 437.177 553.390, 434.431 557.812, 432.433 561.605 C 429.180 567.776, 426.494 572.467, 418.812 585.389 C 417.540 587.527, 414.700 592.556, 412.500 596.564 C 409.316 602.366, 401.106 616.561, 392.007 632 C 391.520 632.825, 387.832 639.260, 383.811 646.300 C 379.790 653.340, 375.537 660.765, 374.360 662.800 C 372.074 666.752, 371.124 668.486, 363.565 682.500 C 360.895 687.450, 358.174 692.175, 357.519 693 C 355.332 695.754, 347.294 710.397, 343.132 719.211 C 334.185 738.155, 336.949 755.470, 353.314 783 C 354.458 784.925, 355.702 786.725, 356.079 787 C 356.455 787.275, 358.504 790.779, 360.631 794.788 C 366.394 805.642, 367.290 807.199, 369.820 810.750 C 371.095 812.538, 373.960 817.488, 376.188 821.750 C 378.416 826.013, 381.701 831.750, 383.488 834.500 C 385.275 837.250, 388.670 842.875, 391.033 847 C 393.396 851.125, 395.818 854.831, 396.415 855.235 C 397.012 855.639, 397.200 855.976, 396.833 855.985 C 396.109 856.001, 397.489 858.578, 406.275 873.616 C 412.991 885.110, 412.890 884.945, 419.750 895.631 C 422.637 900.128, 425 904.269, 425 904.833 C 425 905.396, 425.563 906.466, 426.250 907.209 C 426.938 907.953, 429.058 911.674, 430.962 915.478 C 440.681 934.900, 458.515 950.010, 473.383 951.421 C 476.502 951.717, 479.913 952.418, 480.962 952.979 C 483.823 954.511, 670.218 954.382, 671.752 952.848 C 672.386 952.214, 675.344 951.592, 678.326 951.467 C 685.439 951.167, 690.657 949.442, 695.191 945.891 C 697.222 944.301, 699.247 942.987, 699.691 942.972 C 701.283 942.917, 708.086 937.173, 710.474 933.868 C 714.365 928.482, 725.146 910.241, 731.869 897.670 C 734.272 893.176, 737.309 888.068, 738.619 886.317 C 739.928 884.566, 741 882.896, 741 882.606 C 741 881.824, 753.971 858.747, 755.393 857 C 756.064 856.175, 757.156 854.375, 757.819 853 C 758.482 851.625, 761.494 846, 764.511 840.500 C 767.529 835, 770.292 829.825, 770.651 829 C 771.011 828.175, 773.198 824.575, 775.511 821 C 777.824 817.425, 781.170 811.800, 782.948 808.500 C 784.726 805.200, 786.783 801.824, 787.520 800.998 C 788.258 800.172, 789.350 798.372, 789.947 796.998 C 790.545 795.624, 792.427 792.025, 794.129 789 C 795.832 785.975, 798.124 781.700, 799.223 779.500 C 800.323 777.300, 802.023 774.600, 803.003 773.500 C 803.982 772.400, 805.997 769.025, 807.480 766 C 808.963 762.975, 810.924 759.150, 811.838 757.500 C 813.186 755.067, 813.493 751.664, 813.461 739.500 C 813.422 724.500, 813.422 724.500, 808.212 714.500 C 802.701 703.923, 801.755 702.283, 798.402 697.500 C 797.245 695.850, 794.319 690.806, 791.899 686.291 C 789.480 681.776, 786.824 676.826, 785.998 675.291 C 785.172 673.756, 783.543 671.150, 782.379 669.500 C 781.214 667.850, 779.248 664.475, 778.010 662 C 776.772 659.525, 773.842 654.575, 771.498 651 C 769.155 647.425, 765.574 641.350, 763.541 637.500 C 761.507 633.650, 758.079 627.642, 755.922 624.150 C 753.765 620.657, 752 617.679, 752 617.532 C 752 617.386, 749.100 612.368, 745.555 606.383 C 742.010 600.397, 737.259 592.248, 734.998 588.274 C 732.736 584.299, 730.457 580.782, 729.932 580.458 C 729.407 580.133, 727.614 577.085, 725.947 573.684 C 720.529 562.625, 716.222 555.602, 711.733 550.503 C 709.311 547.751, 706.789 544.487, 706.129 543.250 C 705.469 542.013, 704.442 541, 703.847 541 C 703.251 541, 701.143 539.577, 699.162 537.838 C 694.703 533.922, 684.998 529.448, 676.742 527.501 C 669.946 525.899, 632.900 525.789, 527.500 527.060 M 558.251 614.824 C 557.564 615.260, 555.170 615.523, 552.931 615.409 C 550.213 615.270, 548.682 615.666, 548.323 616.601 C 548.028 617.370, 547.365 618, 546.851 618 C 544.048 618, 532.238 624.709, 528.551 628.397 C 522.376 634.571, 515.118 649.957, 514.875 657.384 C 514.774 660.486, 514.948 663.281, 515.262 663.595 C 515.576 663.910, 516.875 663.117, 518.148 661.833 C 521.016 658.942, 522.094 658.303, 534.500 652.135 C 547.933 645.457, 559.346 643.237, 571.284 644.979 C 575.803 645.638, 580.063 646.643, 580.750 647.211 C 581.460 647.799, 582 650.514, 582 653.500 C 582 659.877, 580.294 661.910, 576.423 660.147 C 567.068 655.884, 543.690 662.391, 527.636 673.726 C 522.431 677.401, 518.532 677.587, 517.269 674.220 C 516.914 673.274, 515.943 671.990, 515.110 671.366 C 513.893 670.454, 513.099 670.853, 511.048 673.412 C 509.647 675.161, 506.700 678.527, 504.500 680.892 C 499.394 686.381, 496.543 691.368, 497.334 693.429 C 498.203 695.693, 501.031 696.574, 502.045 694.896 C 502.509 694.128, 505.276 690.225, 508.194 686.223 C 514.512 677.557, 517.376 676.227, 520.459 680.524 C 524.516 686.181, 529.447 691.197, 535.415 695.740 C 541.082 700.054, 542.142 700.461, 550.858 701.670 C 563.339 703.402, 568.605 702.267, 586.500 693.991 C 589.800 692.465, 596.775 689.771, 602 688.004 C 610.062 685.278, 612.397 684.883, 617.424 685.399 C 620.683 685.733, 624.093 686.679, 625.003 687.503 C 625.913 688.326, 627.305 689, 628.097 689 C 628.888 689, 631.234 690.154, 633.311 691.565 C 638.966 695.408, 640.527 694.613, 640.374 687.969 C 640.236 681.973, 637.500 672.895, 632.943 663.313 C 631.324 659.910, 630 656.879, 630 656.578 C 630 654.885, 622.761 644.505, 617.176 638.189 C 606.897 626.565, 592.620 617.702, 580.500 615.422 C 572.664 613.948, 560.160 613.612, 558.251 614.824 M 651.709 706.624 C 650.268 708.065, 651.122 711.679, 654.516 718.500 C 658.081 725.666, 658.969 731.283, 656.754 732.652 C 656.069 733.075, 653.257 733.770, 650.504 734.195 C 647.752 734.621, 644.539 735.133, 643.364 735.334 C 639.781 735.948, 628.702 742.637, 625.133 746.341 C 619.788 751.890, 615.378 760.738, 613.839 769 C 613.276 772.025, 612.449 774.950, 612.001 775.500 C 611.554 776.050, 611.176 779.965, 611.162 784.200 C 611.131 793.730, 610.163 800.667, 608.370 804.200 C 607.617 805.686, 606.990 808.386, 606.978 810.200 C 606.966 812.015, 606.076 814.625, 605 816 C 603.924 817.375, 603.034 819.041, 603.022 819.702 C 602.987 821.616, 596.065 827.827, 591.333 830.191 C 586.855 832.427, 585.560 835.603, 588.250 837.755 C 589.531 838.780, 597.755 840.825, 610.954 843.400 C 619.232 845.015, 637.340 844.936, 640.512 843.270 C 641.606 842.696, 645.650 841.208, 649.500 839.964 C 653.350 838.719, 657.210 837.093, 658.079 836.350 C 658.947 835.608, 660.114 835, 660.672 835 C 662.752 835, 675.791 825.026, 680.373 819.930 C 686.542 813.068, 689.162 808.481, 693.183 797.500 C 696.073 789.611, 696.473 787.328, 696.431 779 C 696.365 765.795, 692.578 755.967, 683.168 744.581 C 678.190 738.556, 667.891 733.424, 670.658 738.347 C 671.121 739.170, 671.267 748.092, 670.981 758.172 C 670.463 776.500, 670.463 776.500, 666.096 785.500 C 663.694 790.450, 660.479 795.933, 658.952 797.684 C 657.426 799.436, 655.882 801.797, 655.522 802.932 C 654.066 807.517, 645.530 806.592, 643.132 801.590 C 641.937 799.097, 641.975 798.324, 643.421 795.613 C 645.846 791.067, 647.204 788.871, 649.982 785 C 651.346 783.097, 652.496 781.082, 652.536 780.520 C 652.576 779.959, 653.179 778.150, 653.876 776.500 C 656.137 771.150, 657 763.986, 657 750.586 C 657 735.967, 657.769 733.649, 663.001 732.500 C 666.195 731.798, 666.573 731.007, 665.039 728.236 C 663.052 724.646, 659.177 715.338, 657.863 711 C 656.893 707.798, 655.911 706.416, 654.459 706.208 C 653.336 706.047, 652.099 706.235, 651.709 706.624 M 487.500 710.193 C 484.019 712.162, 472.344 724.432, 470.519 728.037 C 469.555 729.942, 467.950 732.400, 466.952 733.500 C 462.992 737.866, 455.190 754.633, 454.482 760.300 C 454.094 763.402, 453.135 766.473, 452.351 767.124 C 451.256 768.033, 450.957 770.883, 451.065 779.404 C 451.143 785.507, 451.571 790.950, 452.016 791.500 C 452.461 792.050, 453.351 795.408, 453.995 798.963 C 455.187 805.547, 457.735 810.857, 463.675 819.134 C 465.504 821.683, 467 824.509, 467 825.415 C 467 826.321, 467.788 827.349, 468.750 827.698 C 469.712 828.048, 472.189 829.833, 474.253 831.667 C 476.317 833.500, 478.624 835, 479.380 835 C 480.137 835, 481.267 835.616, 481.892 836.370 C 482.517 837.123, 486.011 838.747, 489.655 839.978 C 498.844 843.082, 514.025 842.587, 521.500 838.940 C 524.250 837.598, 526.412 836.090, 526.305 835.590 C 526.198 835.089, 524.571 834.151, 522.689 833.504 C 520.808 832.857, 518.195 831.324, 516.884 830.098 C 515.573 828.872, 512.925 827.120, 511 826.205 C 509.075 825.290, 503.638 820.683, 498.918 815.966 C 491.724 808.777, 489.582 805.840, 485.668 797.793 C 478.696 783.459, 479.334 778, 487.982 778 C 491.832 778, 495.591 781.768, 497.014 787.053 C 498.451 792.390, 505.212 802.105, 511.302 807.586 C 517.172 812.868, 527.455 819.814, 530.572 820.603 C 531.712 820.891, 533.429 822.456, 534.388 824.079 C 535.991 826.793, 536.005 827.284, 534.566 830.169 C 532.581 834.147, 532.545 834, 535.514 834 C 536.896 834, 538.809 834.441, 539.764 834.981 C 542.118 836.310, 558.850 838.995, 560.599 838.324 C 561.369 838.028, 561.993 837.047, 561.985 836.143 C 561.954 832.809, 560.214 831.661, 554.836 831.429 C 549.515 831.198, 540.703 829.553, 538.933 828.459 C 537.414 827.520, 537.865 822.727, 539.826 818.985 C 540.830 817.068, 542.462 811.997, 543.451 807.715 C 547.994 788.058, 540.734 774.529, 514 752.828 C 506.697 746.900, 499.616 739.739, 497.355 735.994 C 494.397 731.097, 492.647 722.709, 493.288 716.499 C 494.006 709.543, 492.174 707.548, 487.500 710.193 M 940 1333.720 C 938.625 1333.979, 937.050 1334.548, 936.500 1334.983 C 935.950 1335.418, 933.537 1336.098, 931.137 1336.494 C 925.488 1337.426, 916.638 1341.847, 910.142 1346.982 C 905.665 1350.521, 903.814 1352.770, 898.520 1361.107 C 897.959 1361.991, 895.794 1365.816, 893.708 1369.607 C 891.623 1373.398, 886.831 1381.675, 883.059 1388 C 879.287 1394.325, 874.695 1402.350, 872.854 1405.833 C 871.012 1409.316, 868.942 1412.633, 868.253 1413.205 C 867.564 1413.777, 867 1414.643, 867 1415.130 C 867 1415.894, 863.676 1421.858, 854.353 1437.823 C 853.172 1439.845, 851.225 1443.400, 850.027 1445.722 C 848.829 1448.044, 846.866 1451.419, 845.665 1453.222 C 844.464 1455.025, 842.914 1457.625, 842.221 1459 C 841.528 1460.375, 839.867 1463.300, 838.532 1465.500 C 837.196 1467.700, 835.637 1470.523, 835.067 1471.773 C 834.498 1473.023, 832.450 1476.519, 830.516 1479.542 C 828.582 1482.565, 827 1485.419, 827 1485.885 C 827 1486.350, 826.140 1487.823, 825.090 1489.159 C 824.039 1490.495, 821.676 1494.419, 819.840 1497.879 C 815.400 1506.241, 813.339 1509.895, 811.027 1513.500 C 808.639 1517.222, 803.624 1527.213, 801.560 1532.357 C 799.506 1537.478, 800.274 1559.341, 802.743 1566 C 804.756 1571.431, 810.431 1582.373, 813.368 1586.486 C 815.669 1589.709, 816.049 1590.355, 821.129 1599.699 C 822.983 1603.108, 826.586 1609.408, 829.135 1613.699 C 831.684 1617.989, 835.097 1623.862, 836.720 1626.749 C 838.342 1629.635, 840.041 1631.660, 840.495 1631.249 C 840.949 1630.837, 841.042 1630.989, 840.702 1631.587 C 840.362 1632.185, 840.851 1633.760, 841.789 1635.087 C 843.789 1637.917, 846.051 1641.818, 849.189 1647.848 C 850.434 1650.240, 852.417 1653.237, 853.595 1654.508 C 854.774 1655.780, 856.023 1657.954, 856.371 1659.340 C 856.718 1660.726, 857.565 1662.475, 858.252 1663.226 C 859.483 1664.572, 861.258 1667.658, 865.313 1675.500 C 866.450 1677.700, 868.420 1680.892, 869.691 1682.594 C 870.961 1684.296, 872 1685.962, 872 1686.296 C 872 1687.130, 885.937 1711.137, 887.503 1713 C 888.196 1713.825, 890.252 1717.425, 892.072 1721 C 893.892 1724.575, 896.420 1728.892, 897.691 1730.594 C 898.961 1732.296, 900.003 1734.096, 900.006 1734.594 C 900.015 1736.042, 910.951 1747, 912.387 1747 C 913.104 1747, 914.547 1747.947, 915.594 1749.104 C 918.407 1752.213, 924.666 1755.624, 932.005 1758.049 C 937.345 1759.814, 941.745 1760.288, 956.750 1760.720 C 969.276 1761.080, 975.416 1760.899, 976.326 1760.145 C 977.265 1759.365, 1001.722 1759.035, 1060.289 1759.012 C 1115.685 1758.989, 1143.841 1758.631, 1145.699 1757.924 C 1158.993 1752.870, 1170.132 1744.527, 1175.500 1735.602 C 1176.600 1733.773, 1179.467 1728.952, 1181.871 1724.888 C 1184.275 1720.825, 1187.425 1715.522, 1188.871 1713.104 C 1193.053 1706.111, 1195.307 1702.098, 1200.376 1692.625 C 1202.988 1687.744, 1205.932 1682.569, 1206.919 1681.125 C 1210.100 1676.471, 1212.326 1672.658, 1216.331 1665 C 1218.488 1660.875, 1221.224 1656.150, 1222.411 1654.500 C 1223.597 1652.850, 1225.121 1650.375, 1225.797 1649 C 1226.473 1647.625, 1228.271 1644.250, 1229.793 1641.500 C 1232.771 1636.117, 1238.585 1624.900, 1240.279 1621.267 C 1240.851 1620.039, 1242.126 1618.168, 1243.112 1617.110 C 1244.097 1616.053, 1246.794 1611.658, 1249.104 1607.344 C 1256.602 1593.341, 1259.938 1587.666, 1266.739 1577.343 C 1267.970 1575.473, 1269.709 1571.707, 1270.604 1568.972 C 1271.498 1566.237, 1272.578 1564, 1273.004 1564 C 1274.218 1564, 1275.158 1557.389, 1275.492 1546.500 C 1275.846 1534.990, 1274.109 1528.493, 1267.468 1516.500 C 1265.337 1512.650, 1262.672 1507.841, 1261.546 1505.814 C 1256.769 1497.206, 1245.526 1478.120, 1242.512 1473.500 C 1240.718 1470.750, 1236.477 1463.550, 1233.087 1457.500 C 1229.697 1451.450, 1225.154 1443.575, 1222.991 1440 C 1220.828 1436.425, 1218.645 1432.600, 1218.140 1431.500 C 1217.636 1430.400, 1215.598 1427.092, 1213.611 1424.150 C 1211.625 1421.207, 1210 1418.399, 1210 1417.910 C 1210 1417.421, 1207.898 1413.753, 1205.330 1409.760 C 1202.761 1405.767, 1199.455 1400.250, 1197.982 1397.500 C 1196.510 1394.750, 1194.340 1390.925, 1193.161 1389 C 1191.981 1387.075, 1190.476 1384.375, 1189.815 1383 C 1189.154 1381.625, 1188.066 1379.825, 1187.397 1379 C 1186.727 1378.175, 1184.714 1374.800, 1182.922 1371.500 C 1173.419 1354, 1162.302 1342.791, 1150 1338.307 C 1146.975 1337.204, 1142.925 1335.674, 1141 1334.907 C 1138.098 1333.750, 1120.847 1333.489, 1040 1333.380 C 986.375 1333.308, 941.375 1333.461, 940 1333.720 M 1051.767 1383.762 C 1048.494 1384.202, 1036.491 1390.222, 1029.402 1394.979 C 1024.656 1398.164, 1021.210 1402.318, 1009.750 1418.670 C 1007.688 1421.613, 1006 1424.366, 1006 1424.788 C 1006 1425.210, 1005.229 1426.656, 1004.286 1428.002 C 1003.344 1429.347, 1002.556 1431.360, 1002.536 1432.474 C 1002.509 1433.987, 1001.741 1434.569, 999.500 1434.774 C 993.694 1435.305, 992.218 1436.013, 988.130 1440.225 C 985.298 1443.142, 983.503 1446.204, 982.407 1449.988 C 981.529 1453.020, 980.465 1455.950, 980.042 1456.500 C 979.619 1457.050, 978.971 1460.181, 978.603 1463.458 C 978.229 1466.791, 977.195 1470.232, 976.257 1471.269 C 974.761 1472.922, 974.585 1476.472, 974.631 1504.154 C 974.669 1526.827, 975 1535.382, 975.859 1535.913 C 977.218 1536.753, 979 1542.392, 979 1545.850 C 979 1549.417, 990.563 1574.070, 992.528 1574.693 C 993.202 1574.907, 993.547 1569.928, 993.528 1560.259 C 993.500 1545.500, 993.500 1545.500, 997 1545.213 C 1000.500 1544.927, 1000.500 1544.927, 1003.954 1555.703 C 1006.775 1564.502, 1008.105 1567.162, 1011.204 1570.200 C 1015.654 1574.562, 1016.367 1579.157, 1012.917 1581.242 C 1008.990 1583.614, 1005.474 1592.939, 1007.933 1594.458 C 1009.444 1595.393, 1011.237 1605.848, 1011.455 1615 C 1011.586 1620.512, 1012.218 1624.554, 1013.252 1626.500 C 1014.386 1628.635, 1014.984 1629.068, 1015.327 1628 C 1015.592 1627.175, 1016.062 1625.713, 1016.373 1624.750 C 1016.742 1623.605, 1017.960 1623, 1019.892 1623 C 1022.848 1623, 1022.848 1623, 1023.316 1630.750 C 1023.739 1637.745, 1024.909 1645.276, 1026.838 1653.422 C 1027.874 1657.798, 1030 1657.915, 1030 1653.595 C 1030 1649.482, 1032.542 1645.917, 1034.897 1646.728 C 1038.202 1647.866, 1039 1650.299, 1039 1659.246 C 1039 1666.016, 1039.478 1669.160, 1041.025 1672.555 C 1043.987 1679.058, 1046 1678.040, 1046 1670.041 C 1046 1665.753, 1047.945 1663.530, 1050.883 1664.463 C 1053.050 1665.151, 1053.571 1666.976, 1054.598 1677.471 C 1055.425 1685.924, 1059.001 1696.979, 1061.380 1698.436 C 1062.739 1699.268, 1063.431 1699.077, 1064.559 1697.559 C 1065.651 1696.087, 1066 1692.261, 1066 1681.743 C 1066 1666.006, 1066.619 1663.807, 1070.740 1664.899 C 1072.769 1665.437, 1074.162 1666.999, 1076 1670.800 C 1079.027 1677.060, 1081.513 1677.840, 1080.619 1672.250 C 1080.290 1670.188, 1079.594 1664.993, 1079.074 1660.707 C 1078.553 1656.421, 1077.604 1651.329, 1076.964 1649.391 C 1076.325 1647.453, 1076.023 1645.019, 1076.295 1643.980 C 1076.566 1642.942, 1076.175 1641.285, 1075.426 1640.296 C 1074.001 1638.417, 1073.568 1633.289, 1074.607 1630.582 C 1074.954 1629.678, 1076.375 1629, 1077.923 1629 C 1080.268 1629, 1080.942 1629.749, 1082.942 1634.574 C 1084.325 1637.911, 1085.617 1639.783, 1086.160 1639.240 C 1087.529 1637.871, 1084.498 1611.453, 1082.117 1604.007 C 1081.503 1602.085, 1081 1598.913, 1081 1596.957 C 1081 1595, 1080.490 1592.890, 1079.867 1592.267 C 1078.344 1590.744, 1079.539 1587.886, 1081.400 1588.600 C 1083.246 1589.308, 1085.849 1584.285, 1088.965 1574 C 1090.215 1569.875, 1091.827 1564.925, 1092.546 1563 C 1094.515 1557.735, 1097.189 1537.122, 1096.569 1532 C 1095.915 1526.609, 1094.238 1515.553, 1092.941 1508.083 C 1092.423 1505.104, 1092 1501.031, 1092 1499.033 C 1092 1497.035, 1091.622 1494.973, 1091.161 1494.450 C 1090.700 1493.928, 1089.746 1490.800, 1089.041 1487.500 C 1087.731 1481.367, 1086.013 1476.560, 1083.444 1471.844 C 1082.649 1470.383, 1081.633 1466.517, 1081.186 1463.253 C 1080.685 1459.585, 1079.608 1456.495, 1078.366 1455.163 C 1077.262 1453.977, 1075.341 1450.972, 1074.099 1448.484 C 1072.456 1445.194, 1070.838 1443.545, 1068.170 1442.440 C 1059.799 1438.972, 1058.896 1438.399, 1058.341 1436.203 C 1058.021 1434.940, 1058.019 1433.648, 1058.336 1433.331 C 1059.493 1432.174, 1066.597 1432.800, 1070.218 1434.379 C 1074.700 1436.333, 1075.134 1436.354, 1077.373 1434.716 C 1079.043 1433.496, 1079.039 1433.313, 1077.287 1430.966 C 1074.936 1427.818, 1072.687 1421.315, 1073.496 1420.006 C 1074.819 1417.867, 1078.108 1419.068, 1080.080 1422.411 C 1081.187 1424.287, 1082.650 1426.035, 1083.331 1426.297 C 1084.013 1426.558, 1085.860 1428.634, 1087.437 1430.909 C 1090.085 1434.730, 1090.215 1435.338, 1089.152 1438.888 C 1088.518 1441.002, 1088 1443.096, 1088 1443.540 C 1088 1445.257, 1092.900 1439.639, 1094.008 1436.651 C 1094.651 1434.918, 1095.888 1432.179, 1096.755 1430.564 C 1099.144 1426.118, 1098.858 1414.555, 1096.231 1409.433 C 1095.085 1407.196, 1093.461 1404.798, 1092.624 1404.103 C 1091.787 1403.408, 1090.594 1401.300, 1089.973 1399.418 C 1088.526 1395.035, 1079.241 1387.824, 1072.750 1386.043 C 1070.138 1385.327, 1067.999 1384.461, 1067.997 1384.120 C 1067.993 1383.439, 1056.119 1383.177, 1051.767 1383.762" stroke="none" fill="#bfdb74" fill-rule="evenodd"/><path d="M 942.500 251.021 C 936.172 252.060, 926.037 255.693, 923.750 257.742 C 922.788 258.604, 922 258.937, 922 258.481 C 922 258.025, 920.987 258.547, 919.750 259.641 C 918.513 260.735, 916.248 262.409, 914.718 263.359 C 913.188 264.310, 912.202 265.518, 912.527 266.044 C 912.852 266.570, 912.278 267, 911.252 267 C 909.266 267, 903 274.996, 903 277.529 C 903 278.338, 902.600 279, 902.110 279 C 901.621 279, 900.243 280.913, 899.049 283.250 C 897.855 285.587, 895.791 289.300, 894.463 291.500 C 893.134 293.700, 891.634 296.418, 891.128 297.541 C 890.622 298.664, 889.486 300.181, 888.604 300.914 C 887.722 301.646, 887 302.702, 887 303.261 C 887 303.820, 883.400 310.562, 879 318.244 C 874.600 325.926, 871 332.558, 871 332.983 C 871 333.408, 870.299 334.337, 869.442 335.048 C 868.585 335.759, 867.254 337.727, 866.483 339.420 C 865.090 342.481, 861.615 348.676, 853 363.464 C 850.525 367.712, 847.061 373.896, 845.303 377.207 C 843.544 380.517, 841.494 383.963, 840.746 384.863 C 839.998 385.763, 838.853 387.625, 838.201 389 C 837.548 390.375, 836.577 392.175, 836.042 393 C 835.507 393.825, 833.591 397.128, 831.785 400.339 C 829.978 403.551, 827.518 407.826, 826.319 409.839 C 825.119 411.853, 823.428 414.850, 822.562 416.500 C 821.695 418.150, 819.918 421.300, 818.614 423.500 C 817.309 425.700, 814.726 430.350, 812.874 433.833 C 811.021 437.316, 808.942 440.633, 808.253 441.205 C 807.564 441.777, 807 442.883, 807 443.662 C 807 444.442, 806.100 446.844, 805 449 C 802.333 454.228, 802.130 471.125, 804.667 476.782 C 805.584 478.827, 806.479 481.742, 806.656 483.261 C 806.968 485.940, 809.559 491.265, 814.558 499.500 C 815.893 501.700, 817.695 504.850, 818.562 506.500 C 819.428 508.150, 821.119 511.136, 822.319 513.137 C 826.696 520.434, 833.535 532.232, 834.896 534.833 C 836.101 537.135, 838.649 541.341, 843.782 549.500 C 844.474 550.600, 845.737 552.850, 846.589 554.500 C 847.441 556.150, 849.119 559.152, 850.319 561.171 C 858.524 574.979, 868.764 592.471, 870.157 595.059 C 871.069 596.753, 872.532 598.930, 873.407 599.898 C 874.283 600.866, 875 602.383, 875 603.270 C 875 604.156, 875.424 605.144, 875.943 605.465 C 876.462 605.785, 878.824 609.452, 881.193 613.612 C 883.562 617.772, 885.966 621.924, 886.535 622.838 C 887.104 623.752, 888.583 626.300, 889.822 628.500 C 891.061 630.700, 893.167 634.300, 894.502 636.500 C 895.837 638.700, 897.594 641.886, 898.407 643.580 C 899.220 645.273, 900.585 647.241, 901.442 647.952 C 902.299 648.663, 903 649.688, 903 650.229 C 903 651.864, 910.826 661.164, 914.275 663.626 C 916.049 664.893, 918.158 666.508, 918.963 667.215 C 920.749 668.783, 923.669 670.543, 927 672.058 C 928.375 672.683, 931.430 674.164, 933.788 675.348 C 938.077 677.500, 938.077 677.500, 1040.788 677.500 C 1143.500 677.500, 1143.500 677.500, 1150 675.086 C 1159.967 671.383, 1172 664.103, 1172 661.775 C 1172 661.232, 1173.023 659.983, 1174.274 658.999 C 1176.518 657.234, 1187.654 639.511, 1193.438 628.500 C 1194.305 626.850, 1196.105 623.700, 1197.438 621.500 C 1198.772 619.300, 1200.572 616.150, 1201.438 614.500 C 1202.305 612.850, 1204.024 609.802, 1205.257 607.728 C 1206.491 605.653, 1209.017 601.154, 1210.872 597.730 C 1212.727 594.307, 1215.064 590.463, 1216.066 589.189 C 1217.068 587.915, 1217.663 586.284, 1217.387 585.565 C 1217.111 584.846, 1217.572 583.995, 1218.411 583.673 C 1219.250 583.351, 1220.629 581.605, 1221.476 579.794 C 1222.322 577.982, 1224.105 574.700, 1225.438 572.500 C 1226.772 570.300, 1228.523 567.092, 1229.329 565.372 C 1230.136 563.652, 1231.292 561.938, 1231.898 561.563 C 1232.504 561.188, 1233 560.150, 1233 559.255 C 1233 558.361, 1233.859 556.700, 1234.909 555.564 C 1235.958 554.429, 1238.235 550.800, 1239.968 547.500 C 1241.701 544.200, 1244.186 539.700, 1245.491 537.500 C 1246.795 535.300, 1248.559 532.150, 1249.411 530.500 C 1250.263 528.850, 1251.526 526.600, 1252.218 525.500 C 1252.910 524.400, 1254.938 521.183, 1256.724 518.351 C 1258.511 515.519, 1260.386 512.115, 1260.892 510.785 C 1261.397 509.456, 1262.944 506.697, 1264.330 504.656 C 1265.715 502.614, 1267.809 499.044, 1268.982 496.722 C 1270.155 494.400, 1272.421 490.159, 1274.017 487.299 C 1279.127 478.143, 1281.591 464.264, 1279.219 458 C 1278.699 456.625, 1277.943 453.261, 1277.541 450.523 C 1277.139 447.786, 1275.952 443.867, 1274.905 441.813 C 1273.857 439.760, 1273 437.456, 1273 436.695 C 1273 435.933, 1272.100 434.495, 1271 433.500 C 1269.900 432.505, 1269 431.369, 1269 430.976 C 1269 430.335, 1263.248 420.171, 1257.257 410.224 C 1256.024 408.176, 1254.319 405.150, 1253.470 403.500 C 1252.620 401.850, 1250.626 398.475, 1249.039 396 C 1247.451 393.525, 1244.946 389.280, 1243.471 386.567 C 1241.996 383.854, 1240.031 380.479, 1239.105 379.067 C 1236.400 374.945, 1235.061 372.697, 1233.411 369.500 C 1232.559 367.850, 1230.881 364.864, 1229.681 362.863 C 1226.158 356.989, 1218.749 344.246, 1215.349 338.211 C 1213.616 335.135, 1211.591 332.141, 1210.849 331.559 C 1210.107 330.977, 1209.345 329.600, 1209.155 328.500 C 1208.965 327.400, 1208.290 325.884, 1207.655 325.131 C 1207.020 324.378, 1204.925 320.922, 1203 317.451 C 1201.075 313.980, 1197.265 307.396, 1194.532 302.820 C 1191.800 298.244, 1189.073 293.600, 1188.471 292.500 C 1182.258 281.137, 1179.523 276.754, 1178.368 276.311 C 1177.616 276.022, 1177 275.210, 1177 274.506 C 1177 272.188, 1163.654 259.890, 1158.524 257.481 C 1141.985 249.713, 1155.083 250.538, 1045.500 250.359 C 991.600 250.272, 945.250 250.569, 942.500 251.021 M 988.995 342.491 C 985.418 343.778, 980.477 345.130, 978.017 345.498 C 975.556 345.865, 973.135 346.416, 972.638 346.724 C 972.124 347.041, 972.022 351.474, 972.402 356.993 C 973.071 366.703, 973.071 366.703, 969.033 370.352 C 965.833 373.242, 964.180 374, 961.074 374 C 956.446 374, 951.009 370.045, 950.985 366.661 C 950.958 362.871, 949.455 361.784, 943.692 361.383 C 939.589 361.098, 937.736 361.407, 936.572 362.570 C 934.793 364.350, 934.577 365.620, 935.913 366.446 C 937.747 367.580, 938.262 374.951, 936.677 377.370 C 935.329 379.427, 935.332 380.174, 936.697 384.323 C 938.243 389.018, 937.866 395.347, 935.970 396.519 C 935.446 396.842, 932.969 397.228, 930.466 397.375 C 926.360 397.617, 925.271 398.274, 919.363 404.072 C 912.813 410.500, 912.813 410.500, 913.286 418.590 C 913.980 430.473, 915.122 431.979, 921.500 429.426 C 923.217 428.739, 923.322 428.845, 922.241 430.176 C 921.160 431.508, 921.318 431.662, 923.366 431.270 C 925.399 430.882, 925.750 431.210, 925.750 433.497 C 925.750 436.875, 927.379 438.355, 932.778 439.885 C 936.644 440.980, 937.341 440.893, 940.028 438.980 C 941.662 437.816, 943.001 436.557, 943.002 436.182 C 943.003 435.807, 944.915 434.300, 947.252 432.834 C 953.142 429.137, 960.200 429.369, 963.644 433.373 C 964.956 434.897, 965.780 436.547, 965.476 437.038 C 964.437 438.719, 968.887 445.763, 971.714 446.912 C 973.246 447.535, 975.625 448.686, 977 449.469 C 978.375 450.253, 981.750 451.850, 984.500 453.018 C 987.250 454.186, 990.147 455.479, 990.938 455.891 C 993.694 457.326, 996.394 464.312, 996.950 471.446 C 997.500 478.500, 997.500 478.500, 1002 478.500 C 1007.916 478.500, 1009 479.352, 1009 484 C 1009 486.135, 1009.457 488.165, 1010.016 488.510 C 1010.575 488.856, 1010.774 489.557, 1010.457 490.069 C 1010.141 490.581, 1010.541 491, 1011.347 491 C 1012.356 491, 1012.637 491.672, 1012.249 493.156 C 1011.862 494.634, 1012.049 495.088, 1012.842 494.597 C 1013.479 494.204, 1014 494.332, 1014 494.882 C 1014 495.432, 1013.580 496.142, 1013.066 496.459 C 1011.919 497.168, 1012.567 502.609, 1014.710 510.262 C 1016.665 517.242, 1017.873 518.471, 1021.264 516.925 C 1024.429 515.483, 1029 518.123, 1029 521.393 C 1029 523.818, 1030.952 527.053, 1035.100 531.500 C 1039.113 535.802, 1041.330 541.514, 1039.973 544.051 C 1039.383 545.154, 1038.472 545.792, 1037.950 545.469 C 1037.427 545.146, 1037 545.282, 1037 545.772 C 1037 546.262, 1035.763 547.273, 1034.250 548.020 C 1032.737 548.767, 1028.237 552.741, 1024.250 556.852 C 1018.710 562.563, 1017 564.995, 1017 567.163 C 1017 570.173, 1017.972 570.620, 1020.996 569.002 C 1022.328 568.289, 1023.238 568.380, 1024.181 569.319 C 1024.906 570.043, 1027.020 571.163, 1028.877 571.810 C 1032.605 573.107, 1036.997 577.598, 1036.999 580.115 C 1036.999 581.003, 1037.823 582.803, 1038.830 584.115 C 1039.836 585.427, 1040.947 587.288, 1041.298 588.250 C 1042.270 590.912, 1043.856 590.359, 1046.086 586.579 C 1047.245 584.614, 1050.088 582.119, 1052.763 580.718 C 1055.326 579.376, 1057.732 577.653, 1058.111 576.889 C 1058.490 576.125, 1059.858 573.321, 1061.150 570.658 C 1063.326 566.173, 1066.512 562.663, 1069.226 561.758 C 1069.846 561.551, 1070.679 558.934, 1071.078 555.941 C 1073.145 540.447, 1077.390 531.372, 1084.830 526.541 C 1086.848 525.230, 1089.807 522.997, 1091.406 521.579 C 1093.997 519.279, 1098.638 518.186, 1102.500 518.965 C 1103.050 519.076, 1103.166 518.833, 1102.759 518.425 C 1101.747 517.413, 1103.885 515, 1105.794 515 C 1106.646 515, 1108.132 515.715, 1109.097 516.588 C 1110.517 517.873, 1111.869 518.014, 1116.176 517.329 C 1121.493 516.483, 1121.501 516.477, 1122.057 512.317 C 1122.437 509.477, 1123.622 507.121, 1125.781 504.913 C 1127.523 503.131, 1129.681 499.465, 1130.578 496.766 C 1131.474 494.066, 1132.834 491.617, 1133.598 491.324 C 1134.363 491.030, 1134.722 490.359, 1134.396 489.832 C 1134.071 489.305, 1134.455 488.115, 1135.250 487.187 C 1137.717 484.309, 1138.036 482.023, 1136.490 478.322 C 1135.597 476.184, 1135 471.592, 1135 466.856 C 1135 459.998, 1135.347 458.433, 1137.633 454.979 C 1139.081 452.790, 1140.655 451, 1141.130 451 C 1143.385 451, 1149.986 443.592, 1150.588 440.385 C 1151.013 438.117, 1152.867 435.348, 1156.050 432.226 C 1163.304 425.111, 1164.374 420.839, 1161.401 410.865 C 1158.480 401.068, 1158.245 400.708, 1155.221 401.409 C 1146.106 403.522, 1145.792 403.463, 1139.746 398.485 C 1134.569 394.224, 1133.359 393.698, 1127.160 393.018 C 1123.388 392.603, 1118.078 392.478, 1115.362 392.739 C 1111.621 393.099, 1110.099 392.824, 1109.089 391.607 C 1108.355 390.723, 1106.457 390, 1104.871 390 C 1103.041 390, 1101.192 389.086, 1099.813 387.500 C 1098.618 386.125, 1097.106 385, 1096.455 385 C 1095.803 385, 1094.126 384.100, 1092.727 383 C 1090.984 381.629, 1088.663 380.998, 1085.342 380.993 C 1082.193 380.989, 1079.451 380.292, 1077.500 379 C 1075.850 377.907, 1073.064 377.010, 1071.309 377.007 C 1067.330 376.998, 1066.385 375.796, 1066.125 370.413 C 1066.043 368.716, 1064.107 365.918, 1060.500 362.282 C 1057.016 358.770, 1055 355.890, 1055 354.425 C 1055 353.152, 1053.891 350.849, 1052.536 349.306 C 1050.072 346.500, 1050.072 346.500, 1045.078 351.875 C 1039.764 357.592, 1039.227 357.721, 1032.369 354.927 C 1029.326 353.687, 1029.045 353.811, 1022.401 359.326 C 1015.154 365.341, 1012.472 366.106, 1006.244 363.935 C 1001.761 362.373, 1000.626 358.806, 1002.443 352 C 1003.778 346.998, 1003.762 346.409, 1002.270 345.500 C 1001.367 344.950, 999.648 343.488, 998.450 342.250 C 997.251 341.012, 996.097 340.034, 995.885 340.076 C 995.673 340.118, 992.573 341.205, 988.995 342.491 M 471 1068.633 C 469.075 1069.489, 466.208 1070.407, 464.629 1070.673 C 458.156 1071.767, 443.281 1082.099, 438.010 1089.163 C 434.309 1094.122, 431 1099.027, 431 1099.552 C 431 1099.807, 428.637 1104.103, 425.750 1109.098 C 422.863 1114.094, 418.922 1121.046, 416.993 1124.547 C 415.065 1128.049, 412.927 1131.473, 412.243 1132.157 C 411.559 1132.841, 411 1133.764, 411 1134.208 C 411 1134.909, 405.489 1144.736, 398.319 1156.823 C 397.119 1158.845, 395.428 1161.850, 394.562 1163.500 C 393.695 1165.150, 391.895 1168.300, 390.562 1170.500 C 389.228 1172.700, 387.428 1175.850, 386.562 1177.500 C 385.695 1179.150, 383.895 1182.300, 382.562 1184.500 C 381.228 1186.700, 379.436 1189.850, 378.579 1191.500 C 376.222 1196.035, 371.031 1205.182, 369.215 1208 C 368.329 1209.375, 366.292 1212.975, 364.688 1216 C 363.085 1219.025, 361.236 1222.175, 360.580 1223 C 359.924 1223.825, 358.853 1225.625, 358.201 1227 C 357.548 1228.375, 356.594 1230.175, 356.079 1231 C 355.565 1231.825, 354.880 1233.175, 354.556 1234 C 354.232 1234.825, 352.634 1237.525, 351.004 1240 C 349.374 1242.475, 347.634 1245.404, 347.137 1246.508 C 346.640 1247.612, 344.781 1250.979, 343.006 1253.990 C 335.110 1267.382, 332.794 1283.293, 337 1295.260 C 338.100 1298.389, 339 1301.478, 339 1302.124 C 339 1303.213, 345.557 1315.331, 350.743 1323.826 C 351.976 1325.847, 353.680 1328.850, 354.529 1330.500 C 355.377 1332.150, 359.035 1338.450, 362.656 1344.500 C 366.278 1350.550, 370.599 1357.975, 372.260 1361 C 373.921 1364.025, 375.861 1367.176, 376.571 1368.002 C 377.280 1368.828, 378.365 1370.628, 378.982 1372.002 C 379.598 1373.376, 381.092 1376.164, 382.301 1378.199 C 389.692 1390.631, 397.637 1404.251, 400.271 1409 C 401.948 1412.025, 404.148 1415.573, 405.160 1416.885 C 406.172 1418.197, 407 1419.814, 407 1420.480 C 407 1421.145, 407.900 1422.505, 409 1423.500 C 410.100 1424.495, 411 1426.114, 411 1427.096 C 411 1428.078, 411.424 1429.144, 411.943 1429.465 C 412.462 1429.785, 414.734 1433.299, 416.993 1437.274 C 419.252 1441.248, 421.964 1445.850, 423.018 1447.500 C 424.073 1449.150, 425.650 1451.850, 426.522 1453.500 C 431.869 1463.617, 437.952 1472.617, 442.187 1476.675 C 447.701 1481.959, 462.205 1491.758, 460.551 1489.083 C 459.482 1487.353, 460.472 1487.814, 463.594 1490.499 C 465.193 1491.873, 467.400 1493.056, 468.500 1493.128 C 469.600 1493.199, 471.850 1493.490, 473.500 1493.774 C 478.851 1494.694, 668.295 1494.528, 675 1493.597 C 678.575 1493.101, 683.068 1491.864, 684.985 1490.847 C 686.902 1489.831, 688.978 1489, 689.599 1489 C 691.688 1489, 704.503 1478.829, 704.206 1477.407 C 704.045 1476.633, 704.601 1476, 705.444 1476 C 707.215 1476, 709.941 1472.011, 719.331 1455.681 C 721.438 1452.016, 723.576 1448.762, 724.081 1448.450 C 724.586 1448.138, 725 1447.212, 725 1446.392 C 725 1445.573, 726.800 1442.193, 729 1438.881 C 731.200 1435.569, 733 1432.647, 733 1432.389 C 733 1432.131, 736.586 1425.681, 740.968 1418.056 C 745.350 1410.431, 749.063 1403.588, 749.218 1402.850 C 749.373 1402.111, 750.048 1401.056, 750.719 1400.504 C 751.389 1399.952, 753.076 1397.362, 754.469 1394.750 C 760.642 1383.165, 762.056 1380.637, 762.988 1379.515 C 763.533 1378.857, 765.385 1375.660, 767.103 1372.410 C 768.822 1369.159, 770.798 1365.825, 771.495 1365 C 772.193 1364.175, 773.059 1362.528, 773.420 1361.340 C 773.782 1360.152, 774.735 1358.635, 775.539 1357.968 C 776.342 1357.301, 777 1355.965, 777 1355 C 777 1354.035, 777.701 1352.663, 778.558 1351.952 C 779.415 1351.241, 780.761 1349.273, 781.551 1347.580 C 783.944 1342.444, 790.433 1331.167, 791.757 1329.843 C 792.441 1329.159, 793 1327.613, 793 1326.407 C 793 1325.201, 793.661 1323.960, 794.468 1323.650 C 795.276 1323.341, 796.617 1321.605, 797.448 1319.794 C 799.014 1316.382, 800.132 1314.444, 803.256 1309.729 C 804.265 1308.204, 804.851 1306.568, 804.557 1306.092 C 804.263 1305.616, 804.762 1304.613, 805.666 1303.863 C 807.814 1302.082, 810.247 1296.209, 809.404 1294.844 C 809.041 1294.257, 809.250 1293.464, 809.868 1293.081 C 811.994 1291.768, 812.403 1277.932, 810.569 1269.401 C 808.528 1259.912, 804.137 1250.811, 792.281 1231.500 C 791.606 1230.400, 790.336 1228.150, 789.458 1226.500 C 788.581 1224.850, 786.772 1221.700, 785.438 1219.500 C 784.105 1217.300, 782.322 1214.018, 781.476 1212.206 C 780.629 1210.395, 779.276 1208.659, 778.468 1208.350 C 777.661 1208.040, 776.990 1207.047, 776.977 1206.143 C 776.945 1203.802, 770.534 1193.799, 769.639 1194.694 C 769.230 1195.104, 769.167 1194.728, 769.500 1193.860 C 769.857 1192.930, 769.056 1191.031, 767.553 1189.246 C 766.149 1187.577, 765 1185.696, 765 1185.065 C 765 1184.435, 764.194 1182.700, 763.210 1181.210 C 761.278 1178.285, 761.173 1178.110, 754.783 1167.162 C 752.427 1163.126, 750.048 1159.076, 749.496 1158.162 C 748.326 1156.225, 740.206 1142.167, 737.970 1138.209 C 737.129 1136.719, 735.554 1134.175, 734.470 1132.556 C 733.387 1130.937, 731.375 1127.485, 730 1124.885 C 727.781 1120.687, 725.704 1117.139, 717.290 1103.170 C 716.074 1101.151, 714.321 1098.150, 713.394 1096.500 C 709.092 1088.841, 694.902 1075.900, 687.487 1072.872 C 685.294 1071.977, 680.575 1070.285, 677 1069.112 C 670.540 1066.993, 669.896 1066.980, 572.500 1067.029 C 486.087 1067.072, 474.086 1067.262, 471 1068.633 M 479.447 1141.765 C 478.868 1142.169, 477.406 1144.128, 476.197 1146.118 C 471.725 1153.483, 474.246 1169.755, 480.757 1175.548 C 486.561 1180.711, 491.620 1180.031, 495.402 1173.578 C 500.074 1165.605, 498.221 1152.045, 491.448 1144.653 C 488.713 1141.667, 487.408 1141.003, 484.301 1141.015 C 482.210 1141.024, 480.026 1141.361, 479.447 1141.765 M 520.686 1145.017 C 516.521 1146.267, 515.054 1147.830, 512.296 1153.960 C 507.160 1165.371, 508.551 1176.153, 515.690 1180.273 C 518.701 1182.011, 519.065 1182.020, 522.190 1180.443 C 526.536 1178.249, 530.992 1174.026, 531.032 1172.063 C 531.049 1171.203, 531.724 1169.626, 532.532 1168.559 C 533.547 1167.217, 534 1164.076, 534 1158.386 C 534 1150.988, 533.737 1149.841, 531.411 1147.077 C 528.703 1143.858, 526.168 1143.371, 520.686 1145.017 M 453.285 1176.476 C 449.340 1178.192, 448.589 1180.748, 449.218 1190.323 C 449.779 1198.863, 452.747 1204.060, 459.136 1207.689 C 464.169 1210.548, 464.802 1210.549, 468.369 1207.694 C 471.154 1205.465, 471.238 1205.130, 471.238 1196.175 C 471.238 1187.649, 471.021 1186.638, 468.369 1182.809 C 465.420 1178.552, 460.651 1174.980, 458 1175.043 C 457.175 1175.062, 455.053 1175.707, 453.285 1176.476 M 542.033 1181.112 C 538.088 1182.686, 534.298 1187.974, 531.861 1195.305 C 529.768 1201.602, 529.708 1202.416, 531.050 1206.214 C 531.847 1208.472, 533.728 1211.228, 535.230 1212.340 C 537.960 1214.361, 537.960 1214.361, 543.062 1211.971 C 548.171 1209.578, 553.117 1204.478, 554.436 1200.242 C 554.823 1199.001, 555.130 1194.726, 555.118 1190.742 C 555.099 1184.545, 554.784 1183.248, 552.937 1181.750 C 550.580 1179.839, 545.906 1179.565, 542.033 1181.112 M 495 1201.898 C 491.002 1202.779, 484.538 1206.237, 481.294 1209.231 C 477.752 1212.499, 470.471 1224.071, 468.540 1229.500 C 467.562 1232.250, 466.552 1236.565, 466.296 1239.089 C 465.870 1243.276, 466.105 1243.911, 468.991 1246.339 C 472.437 1249.239, 473.724 1249.460, 479 1248.060 C 480.925 1247.549, 484.300 1246.989, 486.500 1246.816 C 488.700 1246.642, 490.761 1246.148, 491.079 1245.718 C 491.398 1245.287, 494.773 1244.862, 498.579 1244.773 C 504.481 1244.635, 506.479 1245.078, 512.149 1247.778 C 521.948 1252.445, 526.689 1253.307, 531 1251.206 C 534.381 1249.558, 534.499 1249.310, 534.483 1243.931 C 534.466 1238.186, 533.040 1233.858, 527.751 1223.500 C 518.720 1205.811, 508.333 1198.960, 495 1201.898 M 628.766 1204.920 C 625.500 1207.840, 625.500 1207.840, 625.500 1218.170 C 625.500 1228.015, 625.642 1228.711, 628.531 1233 C 632.336 1238.648, 638.003 1241.070, 642.784 1239.090 C 645.132 1238.117, 646.187 1236.724, 647.413 1232.977 C 651.369 1220.882, 646.906 1207.180, 637.827 1203.547 C 632.721 1201.505, 632.558 1201.529, 628.766 1204.920 M 669.955 1203.963 C 664.394 1206.903, 661 1214.542, 661 1224.116 C 661 1230.360, 661.404 1232.304, 663.281 1235.089 C 667.286 1241.032, 673.358 1241.475, 678.896 1236.229 C 686.248 1229.264, 687.045 1209.327, 680.186 1203.932 C 677.144 1201.538, 674.525 1201.546, 669.955 1203.963 M 692.696 1239.025 C 688.244 1242.526, 685 1250.883, 685 1258.849 C 685 1265.458, 685.166 1265.962, 688.182 1268.500 C 690.656 1270.581, 692.028 1271.044, 694.349 1270.580 C 698.184 1269.813, 703.598 1265.678, 705.446 1262.105 C 708.640 1255.928, 708.594 1241.737, 705.369 1238.512 C 703.129 1236.271, 695.820 1236.567, 692.696 1239.025 M 604.889 1240.808 C 602.236 1243.178, 601.702 1244.430, 601.465 1248.825 C 601.267 1252.497, 601.791 1255.282, 603.242 1258.267 C 604.373 1260.595, 605.794 1263.581, 606.400 1264.903 C 607.997 1268.390, 612.080 1271.067, 616.761 1271.695 C 620.227 1272.160, 621.239 1271.852, 623.424 1269.667 C 625.612 1267.479, 626 1266.199, 626 1261.173 C 626 1251.718, 622.080 1244.822, 613.785 1239.682 C 610.045 1237.365, 608.528 1237.557, 604.889 1240.808 M 646.829 1263.352 C 640.138 1266.632, 635.540 1270.389, 633.562 1274.194 C 632.616 1276.012, 630.706 1279.525, 629.316 1282 C 625.714 1288.416, 622.091 1299.626, 622.768 1302.260 C 623.085 1303.492, 624.090 1305.850, 625.001 1307.500 C 627.381 1311.810, 631.384 1311.821, 644.557 1307.549 C 656.606 1303.643, 660.351 1303.259, 664.636 1305.494 C 666.211 1306.315, 668.303 1306.990, 669.285 1306.994 C 670.267 1306.997, 672.180 1307.727, 673.535 1308.615 C 674.891 1309.504, 678.826 1310.457, 682.279 1310.734 C 690.219 1311.372, 691.510 1310.136, 691.399 1302.008 C 691.306 1295.114, 688.900 1289.727, 680.903 1278.500 C 674.714 1269.811, 671.460 1266.488, 665.882 1263.159 C 660.947 1260.214, 653.067 1260.294, 646.829 1263.352 M 535.500 1301.765 C 534.950 1302.169, 533.375 1304.075, 532 1306 C 529.860 1308.996, 529.455 1310.795, 529.184 1318.500 C 528.883 1327.086, 529.009 1327.719, 531.926 1332.272 C 538.625 1342.727, 547.899 1339.986, 551.660 1326.440 C 553.663 1319.223, 553.691 1317.871, 551.965 1311.500 C 549.963 1304.109, 546.726 1300.996, 541.063 1301.015 C 538.553 1301.024, 536.050 1301.361, 535.500 1301.765 M 496.223 1308.944 C 493.153 1311.748, 493 1312.233, 493.010 1319.194 C 493.027 1332.365, 500.373 1343, 509.453 1343 C 513.406 1343, 514.055 1342.647, 516.059 1339.405 C 520.276 1332.582, 518.331 1319.554, 512.070 1312.688 C 509.893 1310.299, 502.195 1306, 500.096 1306 C 499.738 1306, 497.995 1307.325, 496.223 1308.944 M 565.282 1332.777 C 556.684 1340.054, 555.373 1356.597, 562.858 1363.371 C 567.163 1367.268, 576.976 1362.148, 578.648 1355.133 C 578.993 1353.685, 579.708 1351.951, 580.236 1351.279 C 581.177 1350.083, 580.824 1343.735, 579.455 1337.231 C 578.637 1333.343, 574.755 1329.989, 571.115 1330.027 C 569.677 1330.042, 567.052 1331.279, 565.282 1332.777 M 477.174 1348.314 C 474.527 1351.132, 474.293 1356.990, 476.554 1363.812 C 478.913 1370.929, 485.257 1377.019, 491.810 1378.458 C 494.611 1379.073, 495.438 1378.743, 498.020 1375.978 C 500.208 1373.636, 500.996 1371.820, 500.985 1369.144 C 500.926 1354.278, 484.814 1340.183, 477.174 1348.314 M 523.667 1363.359 C 518.609 1365.808, 510.043 1374.393, 510.016 1377.039 C 510.007 1377.885, 509.081 1380.360, 507.959 1382.539 C 505.905 1386.524, 504.088 1396.820, 504.031 1404.795 C 504.007 1408.049, 504.595 1409.686, 506.455 1411.545 C 510.620 1415.711, 516.572 1414.623, 529 1407.423 C 530.375 1406.627, 532.288 1406.164, 533.251 1406.394 C 534.215 1406.625, 534.750 1406.405, 534.441 1405.905 C 533.619 1404.575, 538.481 1403, 543.409 1403 C 545.762 1403, 550.303 1403.900, 553.500 1405 C 563.026 1408.277, 568.079 1407.581, 571.385 1402.535 C 572.922 1400.190, 572.929 1399.564, 571.480 1394.579 C 570.615 1391.603, 569.253 1388.625, 568.453 1387.961 C 567.654 1387.298, 567 1386.318, 567 1385.784 C 567 1385.250, 563.304 1380.769, 558.786 1375.826 C 545.877 1361.701, 535.036 1357.853, 523.667 1363.359" stroke="none" fill="#4d9334" fill-rule="evenodd"/></svg>